AnnapurnaSIL-Bold.ufo
<glyph name="exclam" format="2">
  <advance width="789"/>
  <unicode hex="0021"/>
  <outline>
    <contour>
      <point x="330" y="-8" type="curve" smooth="yes"/>
      <point x="330" y="-75"/>
      <point x="383" y="-128"/>
      <point x="450" y="-128" type="curve" smooth="yes"/>
      <point x="515" y="-128"/>
      <point x="570" y="-75"/>
      <point x="570" y="-8" type="curve" smooth="yes"/>
      <point x="570" y="57"/>
      <point x="515" y="112"/>
      <point x="450" y="112" type="curve" smooth="yes"/>
      <point x="383" y="112"/>
      <point x="330" y="57"/>
    </contour>
    <contour>
      <point x="370" y="254" type="line"/>
      <point x="530" y="196" type="line"/>
      <point x="600" y="1415" type="line"/>
      <point x="300" y="1415" type="line"/>
    </contour>
  </outline>
</glyph>
<glyph name="quotedbl" format="2">
  <advance width="723"/>
  <unicode hex="0022"/>
  <outline>
    <contour>
      <point x="575" y="809" type="line"/>
      <point x="649" y="1240" type="line"/>
      <point x="649" y="1308"/>
      <point x="616" y="1356"/>
      <point x="540" y="1356" type="curve" smooth="yes"/>
      <point x="466" y="1356"/>
      <point x="435" y="1308"/>
      <point x="435" y="1240" type="curve"/>
      <point x="507" y="809" type="line"/>
    </contour>
    <contour>
      <point x="214" y="809" type="line"/>
      <point x="285" y="1240" type="line"/>
      <point x="285" y="1308"/>
      <point x="253" y="1356"/>
      <point x="179" y="1356" type="curve" smooth="yes"/>
      <point x="105" y="1356"/>
      <point x="74" y="1308"/>
      <point x="74" y="1240" type="curve"/>
      <point x="146" y="809" type="line"/>
    </contour>
  </outline>
</glyph>
<glyph name="numbersign" format="2">
  <advance width="1366"/>
  <unicode hex="0023"/>
  <outline>
    <contour>
      <point x="1252" y="803" type="line"/>
      <point x="1252" y="925" type="line"/>
      <point x="1010" y="925" type="line"/>
      <point x="1148" y="1313" type="line"/>
      <point x="1021" y="1349" type="line"/>
      <point x="885" y="925" type="line"/>
      <point x="645" y="925" type="line"/>
      <point x="781" y="1315" type="line"/>
      <point x="658" y="1349" type="line"/>
      <point x="516" y="925" type="line"/>
      <point x="204" y="925" type="line"/>
      <point x="204" y="803" type="line"/>
      <point x="477" y="803" type="line"/>
      <point x="398" y="560" type="line"/>
      <point x="114" y="560" type="line"/>
      <point x="114" y="444" type="line"/>
      <point x="361" y="444" type="line"/>
      <point x="223" y="29" type="line"/>
      <point x="346" y="-4" type="line"/>
      <point x="490" y="444" type="line"/>
      <point x="721" y="444" type="line"/>
      <point x="584" y="27" type="line"/>
      <point x="712" y="-4" type="line"/>
      <point x="851" y="444" type="line"/>
      <point x="1178" y="444" type="line"/>
      <point x="1178" y="560" type="line"/>
      <point x="892" y="560" type="line"/>
      <point x="971" y="803" type="line"/>
    </contour>
    <contour>
      <point x="842" y="803" type="line"/>
      <point x="758" y="560" type="line"/>
      <point x="529" y="560" type="line"/>
      <point x="610" y="803" type="line"/>
    </contour>
  </outline>
</glyph>
<glyph name="dollar" format="2">
  <advance width="1082"/>
  <unicode hex="0024"/>
  <outline>
    <contour>
      <point x="985" y="418" type="curve" smooth="yes"/>
      <point x="985" y="669"/>
      <point x="707" y="746"/>
      <point x="586" y="779" type="curve"/>
      <point x="586" y="1159" type="line"/>
      <point x="614" y="1159"/>
      <point x="754" y="1131"/>
      <point x="758" y="1115" type="curve"/>
      <point x="793" y="910" type="line"/>
      <point x="920" y="910" type="line"/>
      <point x="920" y="1218" type="line"/>
      <point x="840" y="1241"/>
      <point x="695" y="1271"/>
      <point x="586" y="1271" type="curve"/>
      <point x="586" y="1408" type="line"/>
      <point x="477" y="1408" type="line"/>
      <point x="477" y="1271" type="line"/>
      <point x="320" y="1265"/>
      <point x="111" y="1166"/>
      <point x="111" y="919" type="curve" smooth="yes"/>
      <point x="111" y="670"/>
      <point x="339" y="601"/>
      <point x="477" y="560" type="curve"/>
      <point x="477" y="154" type="line"/>
      <point x="420" y="155"/>
      <point x="324" y="169"/>
      <point x="269" y="204" type="curve"/>
      <point x="230" y="420" type="line"/>
      <point x="100" y="420" type="line"/>
      <point x="100" y="101" type="line"/>
      <point x="215" y="63"/>
      <point x="383" y="44"/>
      <point x="477" y="40" type="curve"/>
      <point x="477" y="-148" type="line"/>
      <point x="586" y="-148" type="line"/>
      <point x="586" y="42" type="line"/>
      <point x="820" y="75"/>
      <point x="985" y="207"/>
    </contour>
    <contour>
      <point x="477" y="805" type="line"/>
      <point x="420" y="818"/>
      <point x="345" y="877"/>
      <point x="345" y="986" type="curve" smooth="yes"/>
      <point x="345" y="1101"/>
      <point x="420" y="1149"/>
      <point x="477" y="1153" type="curve"/>
    </contour>
    <contour>
      <point x="751" y="351" type="curve" smooth="yes"/>
      <point x="751" y="220"/>
      <point x="657" y="165"/>
      <point x="586" y="160" type="curve"/>
      <point x="586" y="532" type="line"/>
      <point x="649" y="515"/>
      <point x="751" y="473"/>
    </contour>
  </outline>
</glyph>
<glyph name="percent" format="2">
  <advance width="1648"/>
  <unicode hex="0025"/>
  <outline>
    <contour>
      <point x="1595" y="395" type="curve" smooth="yes"/>
      <point x="1595" y="636"/>
      <point x="1488" y="781"/>
      <point x="1277" y="781" type="curve" smooth="yes"/>
      <point x="1067" y="781"/>
      <point x="964" y="636"/>
      <point x="964" y="395" type="curve" smooth="yes"/>
      <point x="964" y="156"/>
      <point x="1067" y="10"/>
      <point x="1277" y="10" type="curve" smooth="yes"/>
      <point x="1488" y="10"/>
      <point x="1595" y="156"/>
    </contour>
    <contour>
      <point x="1273" y="1277" type="line"/>
      <point x="1141" y="1277" type="line"/>
      <point x="376" y="40" type="line"/>
      <point x="507" y="40" type="line"/>
    </contour>
    <contour>
      <point x="686" y="921" type="curve" smooth="yes"/>
      <point x="686" y="1160"/>
      <point x="580" y="1306"/>
      <point x="371" y="1306" type="curve" smooth="yes"/>
      <point x="160" y="1306"/>
      <point x="53" y="1160"/>
      <point x="53" y="921" type="curve" smooth="yes"/>
      <point x="53" y="682"/>
      <point x="160" y="534"/>
      <point x="371" y="534" type="curve" smooth="yes"/>
      <point x="580" y="534"/>
      <point x="686" y="682"/>
    </contour>
    <contour>
      <point x="1393" y="395" type="curve" smooth="yes"/>
      <point x="1393" y="169"/>
      <point x="1345" y="97"/>
      <point x="1277" y="97" type="curve" smooth="yes"/>
      <point x="1211" y="97"/>
      <point x="1152" y="169"/>
      <point x="1152" y="395" type="curve" smooth="yes"/>
      <point x="1152" y="622"/>
      <point x="1211" y="694"/>
      <point x="1277" y="694" type="curve" smooth="yes"/>
      <point x="1345" y="694"/>
      <point x="1393" y="622"/>
    </contour>
    <contour>
      <point x="487" y="921" type="curve" smooth="yes"/>
      <point x="487" y="694"/>
      <point x="436" y="620"/>
      <point x="371" y="620" type="curve" smooth="yes"/>
      <point x="302" y="620"/>
      <point x="239" y="694"/>
      <point x="239" y="921" type="curve" smooth="yes"/>
      <point x="239" y="1148"/>
      <point x="302" y="1220"/>
      <point x="371" y="1220" type="curve" smooth="yes"/>
      <point x="436" y="1220"/>
      <point x="487" y="1148"/>
    </contour>
  </outline>
</glyph>
<glyph name="ampersand" format="2">
  <advance width="1354"/>
  <unicode hex="0026"/>
  <outline>
    <contour>
      <point x="1325" y="41" type="line"/>
      <point x="1325" y="133" type="line"/>
      <point x="1176" y="150" type="line"/>
      <point x="1004" y="336" type="line"/>
      <point x="985" y="311"/>
      <point x="1114" y="449"/>
      <point x="1174" y="641" type="curve"/>
      <point x="1300" y="666" type="line"/>
      <point x="1300" y="754" type="line"/>
      <point x="913" y="754" type="line"/>
      <point x="913" y="666" type="line"/>
      <point x="1010" y="649" type="line" smooth="yes"/>
      <point x="1018" y="647"/>
      <point x="1030" y="629"/>
      <point x="1028" y="618" type="curve" smooth="yes"/>
      <point x="1006" y="504"/>
      <point x="918" y="395"/>
      <point x="932" y="414" type="curve"/>
      <point x="647" y="707" type="line"/>
      <point x="670" y="711"/>
      <point x="924" y="764"/>
      <point x="924" y="1012" type="curve" smooth="yes"/>
      <point x="924" y="1239"/>
      <point x="702" y="1300"/>
      <point x="559" y="1300" type="curve" smooth="yes"/>
      <point x="342" y="1300"/>
      <point x="158" y="1192"/>
      <point x="158" y="987" type="curve" smooth="yes"/>
      <point x="158" y="803"/>
      <point x="342" y="682"/>
      <point x="330" y="696" type="curve"/>
      <point x="174" y="647"/>
      <point x="70" y="555"/>
      <point x="70" y="379" type="curve" smooth="yes"/>
      <point x="70" y="162"/>
      <point x="229" y="16"/>
      <point x="469" y="16" type="curve" smooth="yes"/>
      <point x="707" y="16"/>
      <point x="877" y="195"/>
      <point x="846" y="170" type="curve"/>
      <point x="924" y="84" type="line"/>
      <point x="924" y="41" type="line"/>
    </contour>
    <contour>
      <point x="694" y="1008" type="curve" smooth="yes"/>
      <point x="694" y="874"/>
      <point x="631" y="827"/>
      <point x="578" y="772" type="curve"/>
      <point x="516" y="836"/>
      <point x="401" y="926"/>
      <point x="401" y="1047" type="curve" smooth="yes"/>
      <point x="401" y="1130"/>
      <point x="465" y="1190"/>
      <point x="549" y="1190" type="curve" smooth="yes"/>
      <point x="639" y="1190"/>
      <point x="694" y="1110"/>
    </contour>
    <contour>
      <point x="770" y="250" type="line"/>
      <point x="791" y="268"/>
      <point x="715" y="176"/>
      <point x="590" y="176" type="curve" smooth="yes"/>
      <point x="459" y="176"/>
      <point x="319" y="254"/>
      <point x="319" y="465" type="curve" smooth="yes"/>
      <point x="319" y="580"/>
      <point x="428" y="647"/>
      <point x="406" y="631" type="curve"/>
    </contour>
  </outline>
</glyph>
<glyph name="quotesingle" format="1">
  <advance width="324"/>
  <unicode hex="0027"/>
  <outline>
    <contour>
      <point x="195" y="809" type="line"/>
      <point x="269" y="1240" type="line"/>
      <point x="269" y="1308"/>
      <point x="236" y="1356"/>
      <point x="162" y="1356" type="curve" smooth="yes"/>
      <point x="86" y="1356"/>
      <point x="57" y="1308"/>
      <point x="57" y="1240" type="curve"/>
      <point x="129" y="809" type="line"/>
    </contour>
  </outline>
</glyph>
<glyph name="asterisk" format="2">
  <advance width="922"/>
  <unicode hex="002A"/>
  <outline>
    <contour>
      <point x="823" y="1092" type="line"/>
      <point x="688" y="1146" type="line"/>
      <point x="492" y="1002" type="line"/>
      <point x="505" y="974" type="line"/>
      <point x="742" y="972" type="line"/>
    </contour>
    <contour>
      <point x="553" y="1253" type="line"/>
      <point x="461" y="1363" type="line"/>
      <point x="369" y="1253" type="line"/>
      <point x="445" y="1023" type="line"/>
      <point x="475" y="1023" type="line"/>
    </contour>
    <contour>
      <point x="691" y="807" type="line"/>
      <point x="494" y="951" type="line"/>
      <point x="472" y="928" type="line"/>
      <point x="545" y="700" type="line"/>
      <point x="686" y="663" type="line"/>
    </contour>
    <contour>
      <point x="427" y="1000" type="line"/>
      <point x="230" y="1146" type="line"/>
      <point x="98" y="1092" type="line"/>
      <point x="177" y="972" type="line"/>
      <point x="417" y="974" type="line"/>
    </contour>
    <contour>
      <point x="450" y="928" type="line"/>
      <point x="427" y="951" type="line"/>
      <point x="230" y="807" type="line"/>
      <point x="236" y="663" type="line"/>
      <point x="376" y="700" type="line"/>
    </contour>
  </outline>
</glyph>
<glyph name="plus" format="1">
  <advance width="1535"/>
  <unicode hex="002B"/>
  <outline>
    <contour>
      <point x="1316" y="536" type="line"/>
      <point x="1316" y="641" type="line"/>
      <point x="820" y="641" type="line"/>
      <point x="820" y="1135" type="line"/>
      <point x="715" y="1135" type="line"/>
      <point x="715" y="641" type="line"/>
      <point x="220" y="641" type="line"/>
      <point x="220" y="536" type="line"/>
      <point x="715" y="536" type="line"/>
      <point x="715" y="40" type="line"/>
      <point x="820" y="40" type="line"/>
      <point x="820" y="536" type="line"/>
    </contour>
  </outline>
</glyph>
<glyph name="comma" format="2">
  <advance width="586"/>
  <unicode hex="002C"/>
  <outline>
    <contour>
      <point x="446" y="149" type="curve" smooth="yes"/>
      <point x="446" y="256"/>
      <point x="382" y="325"/>
      <point x="271" y="325" type="curve" smooth="yes"/>
      <point x="192" y="325"/>
      <point x="116" y="263"/>
      <point x="116" y="170" type="curve" smooth="yes"/>
      <point x="116" y="134"/>
      <point x="129" y="88"/>
      <point x="174" y="53" type="curve"/>
      <point x="285" y="53" type="line"/>
      <point x="293" y="-120"/>
      <point x="158" y="-180"/>
      <point x="65" y="-194" type="curve"/>
      <point x="65" y="-284" type="line"/>
      <point x="241" y="-271"/>
      <point x="446" y="-80"/>
    </contour>
  </outline>
</glyph>
<glyph name="hyphen" format="1">
  <advance width="605"/>
  <unicode hex="002D"/>
  <outline>
    <contour>
      <point x="544" y="386" type="line"/>
      <point x="544" y="582" type="line"/>
      <point x="61" y="582" type="line"/>
      <point x="61" y="386" type="line"/>
    </contour>
  </outline>
</glyph>
<glyph name="period" format="2">
  <advance width="586"/>
  <unicode hex="002E"/>
  <outline>
    <contour>
      <point x="424" y="170" type="curve" smooth="yes"/>
      <point x="424" y="256"/>
      <point x="357" y="325"/>
      <point x="271" y="325" type="curve" smooth="yes"/>
      <point x="186" y="325"/>
      <point x="116" y="256"/>
      <point x="116" y="170" type="curve" smooth="yes"/>
      <point x="116" y="86"/>
      <point x="186" y="17"/>
      <point x="271" y="17" type="curve" smooth="yes"/>
      <point x="357" y="17"/>
      <point x="424" y="86"/>
    </contour>
  </outline>
</glyph>
<glyph name="zero" format="1">
  <advance width="1082"/>
  <unicode hex="0030"/>
  <outline>
    <contour>
      <point x="1017" y="657" type="curve" smooth="yes"/>
      <point x="1017" y="1002"/>
      <point x="876" y="1299"/>
      <point x="540" y="1299" type="curve" smooth="yes"/>
      <point x="206" y="1299"/>
      <point x="67" y="1002"/>
      <point x="67" y="657" type="curve" smooth="yes"/>
      <point x="67" y="311"/>
      <point x="206" y="17"/>
      <point x="540" y="17" type="curve" smooth="yes"/>
      <point x="876" y="17"/>
      <point x="1017" y="311"/>
    </contour>
    <contour>
      <point x="748" y="657" type="curve" smooth="yes"/>
      <point x="748" y="497"/>
      <point x="739" y="126"/>
      <point x="540" y="126" type="curve" smooth="yes"/>
      <point x="343" y="126"/>
      <point x="336" y="497"/>
      <point x="336" y="657" type="curve" smooth="yes"/>
      <point x="336" y="818"/>
      <point x="343" y="1192"/>
      <point x="540" y="1192" type="curve" smooth="yes"/>
      <point x="739" y="1192"/>
      <point x="748" y="818"/>
    </contour>
  </outline>
</glyph>
<glyph name="one" format="2">
  <advance width="1082"/>
  <unicode hex="0031"/>
  <outline>
    <contour>
      <point x="857" y="40" type="line"/>
      <point x="857" y="135" type="line"/>
      <point x="712" y="142" type="line" smooth="yes"/>
      <point x="689" y="143"/>
      <point x="670" y="160"/>
      <point x="670" y="182" type="curve" smooth="yes"/>
      <point x="670" y="1306" type="line"/>
      <point x="535" y="1306" type="line"/>
      <point x="137" y="1162" type="line"/>
      <point x="137" y="1065" type="line"/>
      <point x="411" y="1104" type="line"/>
      <point x="411" y="182" type="line" smooth="yes"/>
      <point x="411" y="160"/>
      <point x="392" y="143"/>
      <point x="371" y="142" type="curve" smooth="yes"/>
      <point x="212" y="135" type="line"/>
      <point x="212" y="40" type="line"/>
    </contour>
  </outline>
</glyph>
<glyph name="two" format="2">
  <advance width="1082"/>
  <unicode hex="0032"/>
  <outline>
    <contour>
      <point x="1001" y="40" type="line"/>
      <point x="1001" y="401" type="line"/>
      <point x="883" y="401" type="line"/>
      <point x="848" y="239" type="line"/>
      <point x="324" y="239" type="line"/>
      <point x="689" y="478"/>
      <point x="962" y="678"/>
      <point x="962" y="941" type="curve" smooth="yes"/>
      <point x="962" y="1162"/>
      <point x="778" y="1306"/>
      <point x="544" y="1306" type="curve" smooth="yes"/>
      <point x="383" y="1306"/>
      <point x="94" y="1243"/>
      <point x="94" y="1011" type="curve" smooth="yes"/>
      <point x="94" y="930"/>
      <point x="142" y="875"/>
      <point x="232" y="875" type="curve" smooth="yes"/>
      <point x="276" y="875"/>
      <point x="329" y="895"/>
      <point x="357" y="910" type="curve"/>
      <point x="357" y="1159" type="line"/>
      <point x="407" y="1178"/>
      <point x="433" y="1183"/>
      <point x="463" y="1183" type="curve" smooth="yes"/>
      <point x="603" y="1183"/>
      <point x="691" y="1070"/>
      <point x="691" y="925" type="curve" smooth="yes"/>
      <point x="691" y="701"/>
      <point x="486" y="486"/>
      <point x="79" y="193" type="curve"/>
      <point x="79" y="40" type="line"/>
    </contour>
  </outline>
</glyph>
<glyph name="three" format="2">
  <advance width="1082"/>
  <unicode hex="0033"/>
  <outline>
    <contour>
      <point x="1001" y="394" type="curve" smooth="yes"/>
      <point x="1001" y="665"/>
      <point x="691" y="692"/>
      <point x="643" y="691" type="curve"/>
      <point x="693" y="696"/>
      <point x="957" y="747"/>
      <point x="957" y="982" type="curve" smooth="yes"/>
      <point x="957" y="1203"/>
      <point x="739" y="1306"/>
      <point x="538" y="1306" type="curve" smooth="yes"/>
      <point x="306" y="1306"/>
      <point x="111" y="1194"/>
      <point x="111" y="1041" type="curve" smooth="yes"/>
      <point x="111" y="951"/>
      <point x="177" y="908"/>
      <point x="255" y="908" type="curve" smooth="yes"/>
      <point x="283" y="908"/>
      <point x="320" y="912"/>
      <point x="354" y="934" type="curve"/>
      <point x="354" y="1160" type="line"/>
      <point x="354" y="1160"/>
      <point x="417" y="1183"/>
      <point x="452" y="1183" type="curve" smooth="yes"/>
      <point x="586" y="1183"/>
      <point x="688" y="1079"/>
      <point x="688" y="962" type="curve" smooth="yes"/>
      <point x="688" y="784"/>
      <point x="533" y="735"/>
      <point x="394" y="735" type="curve" smooth="yes"/>
      <point x="378" y="735"/>
      <point x="363" y="735"/>
      <point x="343" y="737" type="curve"/>
      <point x="343" y="599" type="line"/>
      <point x="343" y="599"/>
      <point x="417" y="608"/>
      <point x="472" y="608" type="curve" smooth="yes"/>
      <point x="643" y="608"/>
      <point x="730" y="499"/>
      <point x="730" y="383" type="curve" smooth="yes"/>
      <point x="730" y="239"/>
      <point x="616" y="125"/>
      <point x="489" y="125" type="curve" smooth="yes"/>
      <point x="438" y="125"/>
      <point x="394" y="145"/>
      <point x="354" y="156" type="curve"/>
      <point x="295" y="364" type="line"/>
      <point x="274" y="374"/>
      <point x="248" y="381"/>
      <point x="216" y="381" type="curve" smooth="yes"/>
      <point x="158" y="381"/>
      <point x="79" y="357"/>
      <point x="79" y="254" type="curve" smooth="yes"/>
      <point x="79" y="132"/>
      <point x="230" y="10"/>
      <point x="470" y="10" type="curve" smooth="yes"/>
      <point x="744" y="10"/>
      <point x="1001" y="154"/>
    </contour>
  </outline>
</glyph>
<glyph name="four" format="2">
  <advance width="1082"/>
  <unicode hex="0034"/>
  <outline>
    <contour>
      <point x="1017" y="386" type="line"/>
      <point x="1017" y="536" type="line"/>
      <point x="867" y="536" type="line"/>
      <point x="867" y="1306" type="line"/>
      <point x="667" y="1306" type="line"/>
      <point x="67" y="543" type="line"/>
      <point x="67" y="385" type="line"/>
      <point x="632" y="385" type="line"/>
      <point x="632" y="10" type="line"/>
      <point x="867" y="10" type="line"/>
      <point x="867" y="386" type="line"/>
    </contour>
    <contour>
      <point x="632" y="536" type="line"/>
      <point x="245" y="536" type="line"/>
      <point x="632" y="1021" type="line"/>
    </contour>
  </outline>
</glyph>
<glyph name="five" format="2">
  <advance width="1082"/>
  <unicode hex="0035"/>
  <outline>
    <contour>
      <point x="1008" y="458" type="curve" smooth="yes"/>
      <point x="1008" y="672"/>
      <point x="820" y="819"/>
      <point x="556" y="819" type="curve" smooth="yes"/>
      <point x="433" y="819"/>
      <point x="302" y="775"/>
      <point x="302" y="775" type="curve"/>
      <point x="302" y="1072" type="line"/>
      <point x="938" y="1072" type="line"/>
      <point x="938" y="1277" type="line"/>
      <point x="146" y="1277" type="line"/>
      <point x="146" y="631" type="line"/>
      <point x="146" y="631"/>
      <point x="292" y="661"/>
      <point x="417" y="661" type="curve" smooth="yes"/>
      <point x="598" y="661"/>
      <point x="744" y="560"/>
      <point x="744" y="395" type="curve" smooth="yes"/>
      <point x="744" y="309"/>
      <point x="661" y="121"/>
      <point x="448" y="121" type="curve" smooth="yes"/>
      <point x="429" y="121"/>
      <point x="352" y="135"/>
      <point x="352" y="135" type="curve"/>
      <point x="293" y="355" type="line"/>
      <point x="260" y="366"/>
      <point x="234" y="372"/>
      <point x="210" y="372" type="curve" smooth="yes"/>
      <point x="121" y="372"/>
      <point x="76" y="307"/>
      <point x="76" y="252" type="curve" smooth="yes"/>
      <point x="76" y="93"/>
      <point x="269" y="10"/>
      <point x="457" y="10" type="curve" smooth="yes"/>
      <point x="739" y="10"/>
      <point x="1008" y="180"/>
    </contour>
  </outline>
</glyph>
<glyph name="six" format="2">
  <advance width="1082"/>
  <unicode hex="0036"/>
  <outline>
    <contour>
      <point x="1017" y="485" type="curve" smooth="yes"/>
      <point x="1017" y="659"/>
      <point x="888" y="858"/>
      <point x="630" y="858" type="curve" smooth="yes"/>
      <point x="515" y="858"/>
      <point x="400" y="806"/>
      <point x="345" y="766" type="curve"/>
      <point x="382" y="1006"/>
      <point x="512" y="1153"/>
      <point x="779" y="1171" type="curve"/>
      <point x="806" y="1168"/>
      <point x="833" y="1165"/>
      <point x="860" y="1162" type="curve"/>
      <point x="860" y="1306" type="line"/>
      <point x="377" y="1306"/>
      <point x="67" y="1054"/>
      <point x="67" y="576" type="curve" smooth="yes"/>
      <point x="67" y="211"/>
      <point x="248" y="10"/>
      <point x="559" y="10" type="curve" smooth="yes"/>
      <point x="807" y="10"/>
      <point x="1017" y="198"/>
    </contour>
    <contour>
      <point x="754" y="429" type="curve" smooth="yes"/>
      <point x="754" y="272"/>
      <point x="689" y="130"/>
      <point x="561" y="130" type="curve" smooth="yes"/>
      <point x="377" y="130"/>
      <point x="329" y="367"/>
      <point x="329" y="556" type="curve" smooth="yes"/>
      <point x="329" y="595"/>
      <point x="331" y="631"/>
      <point x="334" y="663" type="curve"/>
      <point x="366" y="679"/>
      <point x="436" y="701"/>
      <point x="512" y="701" type="curve" smooth="yes"/>
      <point x="679" y="701"/>
      <point x="754" y="591"/>
    </contour>
  </outline>
</glyph>
<glyph name="seven" format="1">
  <advance width="1082"/>
  <unicode hex="0037"/>
  <outline>
    <contour>
      <point x="1013" y="1146" type="line"/>
      <point x="1013" y="1277" type="line"/>
      <point x="68" y="1277" type="line"/>
      <point x="68" y="884" type="line"/>
      <point x="197" y="884" type="line"/>
      <point x="225" y="1055" type="line"/>
      <point x="758" y="1055" type="line"/>
      <point x="157" y="10" type="line"/>
      <point x="392" y="10" type="line"/>
      <point x="392" y="66" type="line"/>
    </contour>
  </outline>
</glyph>
<glyph name="eight" format="1">
  <advance width="1082"/>
  <unicode hex="0038"/>
  <outline>
    <contour>
      <point x="1015" y="379" type="curve" smooth="yes"/>
      <point x="1015" y="619"/>
      <point x="789" y="680"/>
      <point x="739" y="698" type="curve"/>
      <point x="832" y="742"/>
      <point x="967" y="807"/>
      <point x="967" y="982" type="curve" smooth="yes"/>
      <point x="967" y="1201"/>
      <point x="761" y="1306"/>
      <point x="568" y="1306" type="curve" smooth="yes"/>
      <point x="352" y="1306"/>
      <point x="116" y="1213"/>
      <point x="116" y="934" type="curve" smooth="yes"/>
      <point x="116" y="781"/>
      <point x="248" y="685"/>
      <point x="322" y="657" type="curve"/>
      <point x="230" y="629"/>
      <point x="67" y="573"/>
      <point x="67" y="374" type="curve" smooth="yes"/>
      <point x="67" y="165"/>
      <point x="262" y="10"/>
      <point x="529" y="10" type="curve" smooth="yes"/>
      <point x="778" y="10"/>
      <point x="1015" y="128"/>
    </contour>
    <contour>
      <point x="741" y="967" type="curve" smooth="yes"/>
      <point x="741" y="858"/>
      <point x="688" y="781"/>
      <point x="651" y="742" type="curve"/>
      <point x="512" y="803"/>
      <point x="369" y="866"/>
      <point x="369" y="1013" type="curve" smooth="yes"/>
      <point x="369" y="1111"/>
      <point x="448" y="1190"/>
      <point x="545" y="1190" type="curve" smooth="yes"/>
      <point x="663" y="1190"/>
      <point x="741" y="1081"/>
    </contour>
    <contour>
      <point x="765" y="314" type="curve" smooth="yes"/>
      <point x="765" y="195"/>
      <point x="658" y="128"/>
      <point x="544" y="128" type="curve" smooth="yes"/>
      <point x="411" y="128"/>
      <point x="302" y="248"/>
      <point x="302" y="392" type="curve" smooth="yes"/>
      <point x="302" y="515"/>
      <point x="387" y="582"/>
      <point x="409" y="611" type="curve"/>
      <point x="524" y="557"/>
      <point x="765" y="495"/>
    </contour>
  </outline>
</glyph>
<glyph name="nine" format="2">
  <advance width="1082"/>
  <unicode hex="0039"/>
  <outline>
    <contour>
      <point x="1017" y="738" type="curve" smooth="yes"/>
      <point x="1017" y="1104"/>
      <point x="833" y="1306"/>
      <point x="526" y="1306" type="curve" smooth="yes"/>
      <point x="276" y="1306"/>
      <point x="67" y="1116"/>
      <point x="67" y="831" type="curve" smooth="yes"/>
      <point x="67" y="656"/>
      <point x="193" y="457"/>
      <point x="454" y="457" type="curve" smooth="yes"/>
      <point x="569" y="457"/>
      <point x="683" y="509"/>
      <point x="737" y="548" type="curve"/>
      <point x="700" y="309"/>
      <point x="571" y="163"/>
      <point x="304" y="145" type="curve"/>
      <point x="223" y="154" type="line"/>
      <point x="223" y="10" type="line"/>
      <point x="701" y="10"/>
      <point x="1017" y="256"/>
    </contour>
    <contour>
      <point x="755" y="752" type="curve" smooth="yes"/>
      <point x="755" y="716"/>
      <point x="754" y="682"/>
      <point x="751" y="652" type="curve"/>
      <point x="718" y="635"/>
      <point x="647" y="613"/>
      <point x="571" y="613" type="curve" smooth="yes"/>
      <point x="406" y="613"/>
      <point x="330" y="724"/>
      <point x="330" y="886" type="curve" smooth="yes"/>
      <point x="330" y="1043"/>
      <point x="394" y="1187"/>
      <point x="524" y="1187" type="curve" smooth="yes"/>
      <point x="709" y="1187"/>
      <point x="755" y="944"/>
    </contour>
  </outline>
</glyph>
<glyph name="colon" format="2">
  <advance width="586"/>
  <unicode hex="003A"/>
  <outline>
    <contour>
      <point x="424" y="807" type="curve" smooth="yes"/>
      <point x="424" y="891"/>
      <point x="357" y="962"/>
      <point x="271" y="962" type="curve" smooth="yes"/>
      <point x="186" y="962"/>
      <point x="116" y="891"/>
      <point x="116" y="807" type="curve" smooth="yes"/>
      <point x="116" y="720"/>
      <point x="186" y="654"/>
      <point x="271" y="654" type="curve" smooth="yes"/>
      <point x="357" y="654"/>
      <point x="424" y="720"/>
    </contour>
    <contour>
      <point x="424" y="170" type="curve" smooth="yes"/>
      <point x="424" y="256"/>
      <point x="357" y="325"/>
      <point x="271" y="325" type="curve" smooth="yes"/>
      <point x="186" y="325"/>
      <point x="116" y="256"/>
      <point x="116" y="170" type="curve" smooth="yes"/>
      <point x="116" y="86"/>
      <point x="186" y="17"/>
      <point x="271" y="17" type="curve" smooth="yes"/>
      <point x="357" y="17"/>
      <point x="424" y="86"/>
    </contour>
  </outline>
</glyph>
<glyph name="semicolon" format="2">
  <advance width="586"/>
  <unicode hex="003B"/>
  <outline>
    <contour>
      <point x="424" y="807" type="curve" smooth="yes"/>
      <point x="424" y="891"/>
      <point x="357" y="962"/>
      <point x="271" y="962" type="curve" smooth="yes"/>
      <point x="186" y="962"/>
      <point x="116" y="891"/>
      <point x="116" y="807" type="curve" smooth="yes"/>
      <point x="116" y="720"/>
      <point x="186" y="654"/>
      <point x="271" y="654" type="curve" smooth="yes"/>
      <point x="357" y="654"/>
      <point x="424" y="720"/>
    </contour>
    <contour>
      <point x="446" y="149" type="curve" smooth="yes"/>
      <point x="446" y="256"/>
      <point x="382" y="325"/>
      <point x="271" y="325" type="curve" smooth="yes"/>
      <point x="192" y="325"/>
      <point x="116" y="263"/>
      <point x="116" y="170" type="curve" smooth="yes"/>
      <point x="116" y="134"/>
      <point x="129" y="88"/>
      <point x="174" y="53" type="curve"/>
      <point x="285" y="53" type="line"/>
      <point x="285" y="-120"/>
      <point x="158" y="-180"/>
      <point x="65" y="-194" type="curve"/>
      <point x="65" y="-284" type="line"/>
      <point x="241" y="-271"/>
      <point x="446" y="-80"/>
    </contour>
  </outline>
</glyph>
<glyph name="equal" format="2">
  <advance width="1535"/>
  <unicode hex="003D"/>
  <outline>
    <contour>
      <point x="1307" y="709" type="line"/>
      <point x="1307" y="814" type="line"/>
      <point x="229" y="814" type="line"/>
      <point x="229" y="709" type="line"/>
    </contour>
    <contour>
      <point x="1307" y="364" type="line"/>
      <point x="1307" y="469" type="line"/>
      <point x="229" y="469" type="line"/>
      <point x="229" y="364" type="line"/>
    </contour>
  </outline>
</glyph>
<glyph name="greater" format="2">
  <advance width="1535"/>
  <unicode hex="003E"/>
  <outline>
    <contour>
      <point x="1298" y="541" type="line"/>
      <point x="1298" y="636" type="line"/>
      <point x="238" y="1070" type="line"/>
      <point x="238" y="956" type="line"/>
      <point x="1138" y="589" type="line"/>
      <point x="238" y="224" type="line"/>
      <point x="238" y="108" type="line"/>
    </contour>
  </outline>
</glyph>
<glyph name="question" format="1">
  <advance width="1115"/>
  <unicode hex="003F"/>
  <outline>
    <contour>
      <point x="344" y="1143" type="line"/>
      <point x="448" y="1234"/>
      <point x="557" y="1273"/>
      <point x="627" y="1273" type="curve" smooth="yes"/>
      <point x="674" y="1273"/>
      <point x="705" y="1265"/>
      <point x="721" y="1249" type="curve" smooth="yes"/>
      <point x="748" y="1222"/>
      <point x="762" y="1164"/>
      <point x="762" y="1088" type="curve" smooth="yes"/>
      <point x="762" y="863"/>
      <point x="435" y="786"/>
      <point x="435" y="424" type="curve" smooth="yes"/>
      <point x="435" y="387"/>
      <point x="445" y="331"/>
      <point x="472" y="252" type="curve"/>
      <point x="648" y="144" type="line"/>
      <point x="631" y="203"/>
      <point x="623" y="267"/>
      <point x="623" y="335" type="curve" smooth="yes"/>
      <point x="623" y="662"/>
      <point x="946" y="703"/>
      <point x="946" y="966" type="curve" smooth="yes"/>
      <point x="946" y="1071"/>
      <point x="876" y="1190"/>
      <point x="781" y="1285" type="curve" smooth="yes"/>
      <point x="692" y="1375"/>
      <point x="586" y="1436"/>
      <point x="503" y="1436" type="curve" smooth="yes"/>
      <point x="381" y="1436"/>
      <point x="296" y="1408"/>
      <point x="221" y="1355" type="curve"/>
    </contour>
    <contour>
      <point x="437" y="-26" type="curve" smooth="yes"/>
      <point x="437" y="-93"/>
      <point x="490" y="-146"/>
      <point x="557" y="-146" type="curve" smooth="yes"/>
      <point x="622" y="-146"/>
      <point x="677" y="-93"/>
      <point x="677" y="-26" type="curve" smooth="yes"/>
      <point x="677" y="39"/>
      <point x="622" y="94"/>
      <point x="557" y="94" type="curve" smooth="yes"/>
      <point x="490" y="94"/>
      <point x="437" y="39"/>
    </contour>
  </outline>
</glyph>
<glyph name="at" format="2">
  <advance width="1725"/>
  <unicode hex="0040"/>
  <outline>
    <contour>
      <point x="1618" y="719" type="curve" smooth="yes"/>
      <point x="1618" y="1090"/>
      <point x="1362" y="1306"/>
      <point x="962" y="1306" type="curve" smooth="yes"/>
      <point x="517" y="1306"/>
      <point x="107" y="1011"/>
      <point x="107" y="473" type="curve" smooth="yes"/>
      <point x="107" y="35"/>
      <point x="438" y="-250"/>
      <point x="868" y="-250" type="curve" smooth="yes"/>
      <point x="1102" y="-250"/>
      <point x="1289" y="-170"/>
      <point x="1454" y="-83" type="curve"/>
      <point x="1416" y="8" type="line"/>
      <point x="1259" y="-78"/>
      <point x="1106" y="-146"/>
      <point x="913" y="-146" type="curve" smooth="yes"/>
      <point x="538" y="-146"/>
      <point x="293" y="128"/>
      <point x="293" y="506" type="curve" smooth="yes"/>
      <point x="293" y="919"/>
      <point x="599" y="1213"/>
      <point x="986" y="1213" type="curve" smooth="yes"/>
      <point x="1213" y="1213"/>
      <point x="1476" y="1065"/>
      <point x="1476" y="717" type="curve" smooth="yes"/>
      <point x="1476" y="420"/>
      <point x="1294" y="250"/>
      <point x="1220" y="250" type="curve" smooth="yes"/>
      <point x="1154" y="250"/>
      <point x="1159" y="305"/>
      <point x="1178" y="386" type="curve"/>
      <point x="1178" y="386"/>
      <point x="1296" y="899"/>
      <point x="1307" y="934" type="curve"/>
      <point x="1152" y="934" type="line"/>
      <point x="1128" y="888" type="line"/>
      <point x="1080" y="910"/>
      <point x="1017" y="944"/>
      <point x="960" y="944" type="curve" smooth="yes"/>
      <point x="693" y="944"/>
      <point x="475" y="715"/>
      <point x="475" y="440" type="curve" smooth="yes"/>
      <point x="475" y="263"/>
      <point x="564" y="134"/>
      <point x="732" y="134" type="curve" smooth="yes"/>
      <point x="826" y="134"/>
      <point x="909" y="197"/>
      <point x="985" y="261" type="curve"/>
      <point x="995" y="193"/>
      <point x="1030" y="132"/>
      <point x="1143" y="132" type="curve" smooth="yes"/>
      <point x="1360" y="132"/>
      <point x="1618" y="353"/>
    </contour>
    <contour>
      <point x="1050" y="755" type="curve"/>
      <point x="976" y="377" type="line"/>
      <point x="940" y="333"/>
      <point x="894" y="265"/>
      <point x="814" y="265" type="curve" smooth="yes"/>
      <point x="758" y="265"/>
      <point x="697" y="318"/>
      <point x="697" y="457" type="curve" smooth="yes"/>
      <point x="697" y="685"/>
      <point x="820" y="853"/>
      <point x="967" y="853" type="curve" smooth="yes"/>
      <point x="1030" y="853"/>
      <point x="1057" y="784"/>
    </contour>
  </outline>
</glyph>
<glyph name="B" format="2">
  <advance width="1178"/>
  <unicode hex="0042"/>
  <outline>
    <contour>
      <point x="1110" y="399" type="curve" smooth="yes"/>
      <point x="1110" y="643"/>
      <point x="913" y="694"/>
      <point x="776" y="698" type="curve"/>
      <point x="835" y="710"/>
      <point x="1038" y="770"/>
      <point x="1038" y="991" type="curve" smooth="yes"/>
      <point x="1038" y="1249"/>
      <point x="778" y="1277"/>
      <point x="645" y="1277" type="curve" smooth="yes"/>
      <point x="51" y="1277" type="line"/>
      <point x="51" y="1183" type="line"/>
      <point x="151" y="1174" type="line"/>
      <point x="174" y="1171"/>
      <point x="192" y="1157"/>
      <point x="192" y="1133" type="curve" smooth="yes"/>
      <point x="192" y="184" type="line" smooth="yes"/>
      <point x="192" y="160"/>
      <point x="174" y="145"/>
      <point x="151" y="143" type="curve" smooth="yes"/>
      <point x="51" y="134" type="line"/>
      <point x="51" y="40" type="line"/>
      <point x="684" y="40" type="line" smooth="yes"/>
      <point x="867" y="40"/>
      <point x="1110" y="54"/>
    </contour>
    <contour>
      <point x="767" y="962" type="curve" smooth="yes"/>
      <point x="767" y="831"/>
      <point x="712" y="729"/>
      <point x="501" y="729" type="curve" smooth="yes"/>
      <point x="496" y="729"/>
      <point x="472" y="730"/>
      <point x="455" y="731" type="curve"/>
      <point x="455" y="1169" type="line"/>
      <point x="490" y="1172"/>
      <point x="517" y="1174"/>
      <point x="531" y="1174" type="curve" smooth="yes"/>
      <point x="728" y="1174"/>
      <point x="767" y="1070"/>
    </contour>
    <contour>
      <point x="833" y="386" type="curve" smooth="yes"/>
      <point x="833" y="209"/>
      <point x="730" y="145"/>
      <point x="542" y="145" type="curve" smooth="yes"/>
      <point x="534" y="145"/>
      <point x="488" y="147"/>
      <point x="455" y="149" type="curve"/>
      <point x="455" y="619" type="line"/>
      <point x="497" y="620"/>
      <point x="529" y="620"/>
      <point x="547" y="620" type="curve" smooth="yes"/>
      <point x="746" y="620"/>
      <point x="833" y="545"/>
    </contour>
  </outline>
</glyph>
<glyph name="C" format="2">
  <advance width="1173"/>
  <unicode hex="0043"/>
  <outline>
    <contour>
      <point x="1106" y="407" type="line"/>
      <point x="960" y="407" type="line"/>
      <point x="920" y="189" type="line"/>
      <point x="902" y="145"/>
      <point x="828" y="130"/>
      <point x="781" y="130" type="curve" smooth="yes"/>
      <point x="472" y="130"/>
      <point x="357" y="397"/>
      <point x="357" y="656" type="curve" smooth="yes"/>
      <point x="357" y="974"/>
      <point x="514" y="1181"/>
      <point x="767" y="1181" type="curve" smooth="yes"/>
      <point x="804" y="1181"/>
      <point x="922" y="1159"/>
      <point x="922" y="1122" type="curve"/>
      <point x="962" y="916" type="line"/>
      <point x="1106" y="916" type="line"/>
      <point x="1106" y="1229" type="line"/>
      <point x="934" y="1284"/>
      <point x="857" y="1306"/>
      <point x="717" y="1306" type="curve" smooth="yes"/>
      <point x="352" y="1306"/>
      <point x="68" y="1043"/>
      <point x="68" y="659" type="curve" smooth="yes"/>
      <point x="68" y="279"/>
      <point x="337" y="10"/>
      <point x="715" y="10" type="curve" smooth="yes"/>
      <point x="905" y="10"/>
      <point x="1060" y="66"/>
      <point x="1106" y="84" type="curve"/>
    </contour>
  </outline>
</glyph>
<glyph name="D" format="2">
  <advance width="1335"/>
  <unicode hex="0044"/>
  <outline>
    <contour>
      <point x="1266" y="672" type="curve" smooth="yes"/>
      <point x="1266" y="1032"/>
      <point x="1032" y="1277"/>
      <point x="612" y="1277" type="curve" smooth="yes"/>
      <point x="48" y="1277" type="line"/>
      <point x="48" y="1183" type="line"/>
      <point x="149" y="1174" type="line"/>
      <point x="171" y="1171"/>
      <point x="192" y="1157"/>
      <point x="192" y="1133" type="curve" smooth="yes"/>
      <point x="192" y="184" type="line" smooth="yes"/>
      <point x="192" y="160"/>
      <point x="171" y="145"/>
      <point x="149" y="143" type="curve" smooth="yes"/>
      <point x="48" y="134" type="line"/>
      <point x="48" y="40" type="line"/>
      <point x="623" y="40" type="line" smooth="yes"/>
      <point x="1013" y="40"/>
      <point x="1266" y="250"/>
    </contour>
    <contour>
      <point x="969" y="652" type="curve" smooth="yes"/>
      <point x="969" y="258"/>
      <point x="767" y="156"/>
      <point x="608" y="152" type="curve" smooth="yes"/>
      <point x="455" y="149" type="line"/>
      <point x="455" y="1169" type="line"/>
      <point x="571" y="1169" type="line" smooth="yes"/>
      <point x="761" y="1169"/>
      <point x="969" y="1076"/>
    </contour>
  </outline>
</glyph>
<glyph name="F" format="2">
  <advance width="1030"/>
  <unicode hex="0046"/>
  <outline>
    <contour>
      <point x="981" y="962" type="line"/>
      <point x="981" y="1277" type="line"/>
      <point x="44" y="1277" type="line"/>
      <point x="44" y="1183" type="line"/>
      <point x="149" y="1174" type="line"/>
      <point x="171" y="1171"/>
      <point x="192" y="1157"/>
      <point x="192" y="1133" type="curve" smooth="yes"/>
      <point x="192" y="184" type="line" smooth="yes"/>
      <point x="192" y="160"/>
      <point x="171" y="145"/>
      <point x="149" y="143" type="curve" smooth="yes"/>
      <point x="49" y="134" type="line"/>
      <point x="49" y="40" type="line"/>
      <point x="616" y="40" type="line"/>
      <point x="616" y="134" type="line"/>
      <point x="496" y="143" type="line" smooth="yes"/>
      <point x="473" y="145"/>
      <point x="455" y="160"/>
      <point x="455" y="184" type="curve" smooth="yes"/>
      <point x="455" y="593" type="line"/>
      <point x="684" y="593" type="line" smooth="yes"/>
      <point x="698" y="593"/>
      <point x="714" y="573"/>
      <point x="715" y="560" type="curve"/>
      <point x="733" y="434" type="line"/>
      <point x="848" y="434" type="line"/>
      <point x="848" y="870" type="line"/>
      <point x="733" y="870" type="line"/>
      <point x="715" y="744" type="line"/>
      <point x="714" y="731"/>
      <point x="700" y="710"/>
      <point x="684" y="710" type="curve" smooth="yes"/>
      <point x="455" y="710" type="line"/>
      <point x="455" y="1164" type="line"/>
      <point x="789" y="1164" type="line" smooth="yes"/>
      <point x="805" y="1164"/>
      <point x="818" y="1148"/>
      <point x="822" y="1129" type="curve"/>
      <point x="848" y="962" type="line"/>
    </contour>
  </outline>
</glyph>
<glyph name="G" format="1">
  <advance width="1319"/>
  <unicode hex="0047"/>
  <outline>
    <contour>
      <point x="1277" y="557" type="line"/>
      <point x="1277" y="652" type="line"/>
      <point x="721" y="652" type="line"/>
      <point x="721" y="557" type="line"/>
      <point x="844" y="548" type="line"/>
      <point x="867" y="548"/>
      <point x="886" y="532"/>
      <point x="886" y="508" type="curve" smooth="yes"/>
      <point x="886" y="149" type="line"/>
      <point x="842" y="145"/>
      <point x="820" y="149"/>
      <point x="804" y="149" type="curve" smooth="yes"/>
      <point x="514" y="149"/>
      <point x="354" y="351"/>
      <point x="354" y="668" type="curve" smooth="yes"/>
      <point x="354" y="930"/>
      <point x="475" y="1185"/>
      <point x="796" y="1185" type="curve" smooth="yes"/>
      <point x="816" y="1185"/>
      <point x="872" y="1176"/>
      <point x="929" y="1153" type="curve" smooth="yes"/>
      <point x="944" y="1148"/>
      <point x="960" y="1127"/>
      <point x="962" y="1115" type="curve" smooth="yes"/>
      <point x="999" y="916" type="line"/>
      <point x="1143" y="916" type="line"/>
      <point x="1143" y="1234" type="line"/>
      <point x="1143" y="1234"/>
      <point x="969" y="1306"/>
      <point x="728" y="1306" type="curve" smooth="yes"/>
      <point x="346" y="1306"/>
      <point x="68" y="1060"/>
      <point x="68" y="661" type="curve" smooth="yes"/>
      <point x="68" y="269"/>
      <point x="345" y="10"/>
      <point x="714" y="10" type="curve" smooth="yes"/>
      <point x="960" y="10"/>
      <point x="1141" y="97"/>
      <point x="1141" y="97" type="curve"/>
      <point x="1141" y="508" type="line" smooth="yes"/>
      <point x="1141" y="532"/>
      <point x="1161" y="547"/>
      <point x="1183" y="548" type="curve" smooth="yes"/>
    </contour>
  </outline>
</glyph>
<glyph name="H" format="1">
  <advance width="1417"/>
  <unicode hex="0048"/>
  <outline>
    <contour>
      <point x="1362" y="40" type="line"/>
      <point x="1362" y="134" type="line"/>
      <point x="1266" y="143" type="line" smooth="yes"/>
      <point x="1244" y="145"/>
      <point x="1226" y="160"/>
      <point x="1226" y="184" type="curve" smooth="yes"/>
      <point x="1226" y="1133" type="line" smooth="yes"/>
      <point x="1226" y="1157"/>
      <point x="1246" y="1171"/>
      <point x="1266" y="1174" type="curve" smooth="yes"/>
      <point x="1362" y="1183" type="line"/>
      <point x="1362" y="1277" type="line"/>
      <point x="826" y="1277" type="line"/>
      <point x="826" y="1183" type="line"/>
      <point x="922" y="1174" type="line" smooth="yes"/>
      <point x="944" y="1171"/>
      <point x="962" y="1157"/>
      <point x="962" y="1133" type="curve" smooth="yes"/>
      <point x="962" y="747" type="line"/>
      <point x="455" y="747" type="line"/>
      <point x="455" y="1133" type="line" smooth="yes"/>
      <point x="455" y="1157"/>
      <point x="473" y="1171"/>
      <point x="496" y="1174" type="curve" smooth="yes"/>
      <point x="593" y="1183" type="line"/>
      <point x="593" y="1277" type="line"/>
      <point x="55" y="1277" type="line"/>
      <point x="55" y="1183" type="line"/>
      <point x="151" y="1174" type="line" smooth="yes"/>
      <point x="174" y="1171"/>
      <point x="192" y="1157"/>
      <point x="192" y="1133" type="curve" smooth="yes"/>
      <point x="192" y="184" type="line" smooth="yes"/>
      <point x="192" y="160"/>
      <point x="174" y="145"/>
      <point x="151" y="143" type="curve" smooth="yes"/>
      <point x="55" y="134" type="line"/>
      <point x="55" y="40" type="line"/>
      <point x="593" y="40" type="line"/>
      <point x="593" y="134" type="line"/>
      <point x="496" y="143" type="line" smooth="yes"/>
      <point x="473" y="145"/>
      <point x="455" y="160"/>
      <point x="455" y="184" type="curve" smooth="yes"/>
      <point x="455" y="629" type="line"/>
      <point x="962" y="629" type="line"/>
      <point x="962" y="184" type="line" smooth="yes"/>
      <point x="962" y="160"/>
      <point x="944" y="145"/>
      <point x="922" y="143" type="curve" smooth="yes"/>
      <point x="826" y="134" type="line"/>
      <point x="826" y="40" type="line"/>
    </contour>
  </outline>
</glyph>
<glyph name="J" format="2">
  <advance width="944"/>
  <unicode hex="004A"/>
  <outline>
    <contour>
      <point x="904" y="1183" type="line"/>
      <point x="904" y="1277" type="line"/>
      <point x="334" y="1277" type="line"/>
      <point x="334" y="1183" type="line"/>
      <point x="448" y="1174" type="line"/>
      <point x="468" y="1171"/>
      <point x="489" y="1157"/>
      <point x="489" y="1133" type="curve" smooth="yes"/>
      <point x="489" y="492" type="line" smooth="yes"/>
      <point x="489" y="214"/>
      <point x="415" y="121"/>
      <point x="278" y="121" type="curve" smooth="yes"/>
      <point x="250" y="121"/>
      <point x="234" y="139"/>
      <point x="230" y="152" type="curve"/>
      <point x="188" y="399" type="line"/>
      <point x="44" y="399" type="line"/>
      <point x="44" y="62" type="line"/>
      <point x="102" y="42"/>
      <point x="218" y="10"/>
      <point x="319" y="10" type="curve" smooth="yes"/>
      <point x="621" y="10"/>
      <point x="751" y="202"/>
      <point x="751" y="486" type="curve" smooth="yes"/>
      <point x="751" y="1133" type="line" smooth="yes"/>
      <point x="751" y="1157"/>
      <point x="769" y="1171"/>
      <point x="791" y="1174" type="curve"/>
    </contour>
  </outline>
</glyph>
<glyph name="K" format="2">
  <advance width="1257"/>
  <unicode hex="004B"/>
  <outline>
    <contour>
      <point x="1257" y="40" type="line"/>
      <point x="1257" y="134" type="line"/>
      <point x="1126" y="145" type="line"/>
      <point x="739" y="763" type="line"/>
      <point x="1082" y="1171" type="line"/>
      <point x="1141" y="1178"/>
      <point x="1211" y="1183"/>
      <point x="1211" y="1183" type="curve"/>
      <point x="1211" y="1277" type="line"/>
      <point x="789" y="1277" type="line"/>
      <point x="789" y="1183" type="line"/>
      <point x="894" y="1174" type="line"/>
      <point x="907" y="1174"/>
      <point x="909" y="1159"/>
      <point x="904" y="1151" type="curve" smooth="yes"/>
      <point x="507" y="668" type="line"/>
      <point x="455" y="668" type="line"/>
      <point x="455" y="1133" type="line" smooth="yes"/>
      <point x="455" y="1157"/>
      <point x="473" y="1171"/>
      <point x="496" y="1174" type="curve" smooth="yes"/>
      <point x="593" y="1183" type="line"/>
      <point x="593" y="1277" type="line"/>
      <point x="53" y="1277" type="line"/>
      <point x="53" y="1183" type="line"/>
      <point x="151" y="1174" type="line" smooth="yes"/>
      <point x="174" y="1171"/>
      <point x="192" y="1157"/>
      <point x="192" y="1133" type="curve" smooth="yes"/>
      <point x="192" y="184" type="line" smooth="yes"/>
      <point x="192" y="160"/>
      <point x="174" y="145"/>
      <point x="151" y="143" type="curve" smooth="yes"/>
      <point x="53" y="134" type="line"/>
      <point x="53" y="40" type="line"/>
      <point x="593" y="40" type="line"/>
      <point x="593" y="134" type="line"/>
      <point x="496" y="143" type="line" smooth="yes"/>
      <point x="473" y="145"/>
      <point x="455" y="160"/>
      <point x="455" y="184" type="curve" smooth="yes"/>
      <point x="455" y="580" type="line"/>
      <point x="556" y="580" type="line"/>
      <point x="857" y="108" type="line"/>
      <point x="857" y="40" type="line"/>
    </contour>
  </outline>
</glyph>
<glyph name="L" format="2">
  <advance width="1021"/>
  <unicode hex="004C"/>
  <outline>
    <contour>
      <point x="992" y="40" type="line"/>
      <point x="992" y="407" type="line"/>
      <point x="844" y="407" type="line"/>
      <point x="820" y="195" type="line" smooth="yes"/>
      <point x="818" y="180"/>
      <point x="802" y="152"/>
      <point x="776" y="152" type="curve" smooth="yes"/>
      <point x="455" y="152" type="line"/>
      <point x="455" y="1133" type="line" smooth="yes"/>
      <point x="455" y="1157"/>
      <point x="473" y="1171"/>
      <point x="496" y="1174" type="curve"/>
      <point x="599" y="1183" type="line"/>
      <point x="599" y="1277" type="line"/>
      <point x="49" y="1277" type="line"/>
      <point x="49" y="1183" type="line"/>
      <point x="151" y="1174" type="line"/>
      <point x="174" y="1171"/>
      <point x="192" y="1157"/>
      <point x="192" y="1133" type="curve" smooth="yes"/>
      <point x="192" y="184" type="line" smooth="yes"/>
      <point x="192" y="160"/>
      <point x="174" y="145"/>
      <point x="151" y="143" type="curve" smooth="yes"/>
      <point x="49" y="134" type="line"/>
      <point x="49" y="40" type="line"/>
    </contour>
  </outline>
</glyph>
<glyph name="M" format="1">
  <advance width="1664"/>
  <unicode hex="004D"/>
  <outline>
    <contour>
      <point x="1616" y="40" type="line"/>
      <point x="1616" y="134" type="line"/>
      <point x="1511" y="143" type="line" smooth="yes"/>
      <point x="1489" y="145"/>
      <point x="1471" y="160"/>
      <point x="1471" y="184" type="curve" smooth="yes"/>
      <point x="1471" y="1133" type="line" smooth="yes"/>
      <point x="1471" y="1157"/>
      <point x="1489" y="1171"/>
      <point x="1511" y="1174" type="curve" smooth="yes"/>
      <point x="1616" y="1183" type="line"/>
      <point x="1616" y="1277" type="line"/>
      <point x="1093" y="1277" type="line"/>
      <point x="1093" y="1225" type="line"/>
      <point x="835" y="436" type="line"/>
      <point x="575" y="1225" type="line"/>
      <point x="575" y="1277" type="line"/>
      <point x="46" y="1277" type="line"/>
      <point x="46" y="1183" type="line"/>
      <point x="149" y="1174" type="line" smooth="yes"/>
      <point x="171" y="1171"/>
      <point x="192" y="1157"/>
      <point x="192" y="1133" type="curve" smooth="yes"/>
      <point x="192" y="184" type="line" smooth="yes"/>
      <point x="192" y="160"/>
      <point x="171" y="145"/>
      <point x="149" y="143" type="curve" smooth="yes"/>
      <point x="46" y="134" type="line"/>
      <point x="46" y="40" type="line"/>
      <point x="472" y="40" type="line"/>
      <point x="472" y="134" type="line"/>
      <point x="373" y="143" type="line" smooth="yes"/>
      <point x="352" y="145"/>
      <point x="332" y="160"/>
      <point x="332" y="184" type="curve" smooth="yes"/>
      <point x="332" y="1144" type="line"/>
      <point x="695" y="40" type="line"/>
      <point x="837" y="40" type="line"/>
      <point x="1207" y="1151" type="line"/>
      <point x="1207" y="184" type="line" smooth="yes"/>
      <point x="1207" y="160"/>
      <point x="1187" y="145"/>
      <point x="1166" y="143" type="curve" smooth="yes"/>
      <point x="1076" y="134" type="line"/>
      <point x="1076" y="40" type="line"/>
    </contour>
  </outline>
</glyph>
<glyph name="N" format="2">
  <advance width="1372"/>
  <unicode hex="004E"/>
  <outline>
    <contour>
      <point x="1318" y="1183" type="line"/>
      <point x="1318" y="1277" type="line"/>
      <point x="890" y="1277" type="line"/>
      <point x="890" y="1183" type="line"/>
      <point x="995" y="1174" type="line"/>
      <point x="1017" y="1171"/>
      <point x="1038" y="1157"/>
      <point x="1038" y="1133" type="curve" smooth="yes"/>
      <point x="1038" y="395" type="line"/>
      <point x="507" y="1227" type="line"/>
      <point x="507" y="1277" type="line"/>
      <point x="51" y="1277" type="line"/>
      <point x="51" y="1183" type="line"/>
      <point x="151" y="1174" type="line"/>
      <point x="174" y="1171"/>
      <point x="192" y="1157"/>
      <point x="192" y="1133" type="curve" smooth="yes"/>
      <point x="192" y="184" type="line" smooth="yes"/>
      <point x="192" y="160"/>
      <point x="174" y="145"/>
      <point x="151" y="143" type="curve" smooth="yes"/>
      <point x="49" y="134" type="line"/>
      <point x="49" y="40" type="line"/>
      <point x="475" y="40" type="line"/>
      <point x="475" y="134" type="line"/>
      <point x="373" y="143" type="line" smooth="yes"/>
      <point x="352" y="145"/>
      <point x="332" y="160"/>
      <point x="332" y="184" type="curve" smooth="yes"/>
      <point x="332" y="1015" type="line"/>
      <point x="953" y="40" type="line"/>
      <point x="1178" y="40" type="line"/>
      <point x="1178" y="1133" type="line" smooth="yes"/>
      <point x="1178" y="1157"/>
      <point x="1198" y="1171"/>
      <point x="1219" y="1174" type="curve"/>
    </contour>
  </outline>
</glyph>
<glyph name="O" format="1">
  <advance width="1393"/>
  <unicode hex="004F"/>
  <outline>
    <contour>
      <point x="1327" y="652" type="curve" smooth="yes"/>
      <point x="1327" y="1009"/>
      <point x="1075" y="1306"/>
      <point x="691" y="1306" type="curve" smooth="yes"/>
      <point x="299" y="1306"/>
      <point x="68" y="1030"/>
      <point x="68" y="666" type="curve" smooth="yes"/>
      <point x="68" y="248"/>
      <point x="339" y="10"/>
      <point x="707" y="10" type="curve" smooth="yes"/>
      <point x="1078" y="10"/>
      <point x="1327" y="300"/>
    </contour>
    <contour>
      <point x="1030" y="645" type="curve" smooth="yes"/>
      <point x="1030" y="407"/>
      <point x="936" y="126"/>
      <point x="689" y="126" type="curve" smooth="yes"/>
      <point x="463" y="126"/>
      <point x="363" y="399"/>
      <point x="363" y="661" type="curve" smooth="yes"/>
      <point x="363" y="908"/>
      <point x="452" y="1183"/>
      <point x="707" y="1183" type="curve" smooth="yes"/>
      <point x="922" y="1183"/>
      <point x="1030" y="934"/>
    </contour>
  </outline>
</glyph>
<glyph name="P" format="1">
  <advance width="1128"/>
  <unicode hex="0050"/>
  <outline>
    <contour>
      <point x="1060" y="902" type="curve" smooth="yes"/>
      <point x="1060" y="1227"/>
      <point x="807" y="1277"/>
      <point x="559" y="1277" type="curve" smooth="yes"/>
      <point x="42" y="1277" type="line"/>
      <point x="42" y="1183" type="line"/>
      <point x="149" y="1174" type="line" smooth="yes"/>
      <point x="171" y="1171"/>
      <point x="192" y="1157"/>
      <point x="192" y="1133" type="curve" smooth="yes"/>
      <point x="192" y="184" type="line" smooth="yes"/>
      <point x="192" y="160"/>
      <point x="171" y="145"/>
      <point x="149" y="143" type="curve" smooth="yes"/>
      <point x="48" y="134" type="line"/>
      <point x="48" y="40" type="line"/>
      <point x="612" y="40" type="line"/>
      <point x="612" y="134" type="line"/>
      <point x="496" y="143" type="line" smooth="yes"/>
      <point x="473" y="145"/>
      <point x="455" y="160"/>
      <point x="455" y="184" type="curve" smooth="yes"/>
      <point x="455" y="497" type="line"/>
      <point x="505" y="492"/>
      <point x="542" y="494"/>
      <point x="577" y="494" type="curve" smooth="yes"/>
      <point x="813" y="494"/>
      <point x="1060" y="587"/>
    </contour>
    <contour>
      <point x="785" y="893" type="curve" smooth="yes"/>
      <point x="785" y="683"/>
      <point x="675" y="608"/>
      <point x="505" y="606" type="curve" smooth="yes"/>
      <point x="489" y="606"/>
      <point x="483" y="606"/>
      <point x="455" y="608" type="curve"/>
      <point x="455" y="1164" type="line"/>
      <point x="455" y="1164"/>
      <point x="547" y="1164"/>
      <point x="559" y="1164" type="curve" smooth="yes"/>
      <point x="695" y="1164"/>
      <point x="785" y="1065"/>
    </contour>
  </outline>
</glyph>
<glyph name="Q" format="1">
  <advance width="1393"/>
  <unicode hex="0051"/>
  <outline>
    <contour>
      <point x="1266" y="-257" type="curve"/>
      <point x="1266" y="-159" type="line"/>
      <point x="1185" y="-178"/>
      <point x="1131" y="-181"/>
      <point x="1095" y="-181" type="curve" smooth="yes"/>
      <point x="960" y="-181"/>
      <point x="841" y="-108"/>
      <point x="844" y="26" type="curve"/>
      <point x="1138" y="86"/>
      <point x="1327" y="346"/>
      <point x="1327" y="652" type="curve" smooth="yes"/>
      <point x="1327" y="1009"/>
      <point x="1075" y="1306"/>
      <point x="691" y="1306" type="curve" smooth="yes"/>
      <point x="299" y="1306"/>
      <point x="68" y="1030"/>
      <point x="68" y="666" type="curve" smooth="yes"/>
      <point x="68" y="302"/>
      <point x="273" y="75"/>
      <point x="570" y="22" type="curve"/>
      <point x="571" y="-172"/>
      <point x="675" y="-299"/>
      <point x="940" y="-299" type="curve" smooth="yes"/>
      <point x="1039" y="-299"/>
      <point x="1139" y="-286"/>
    </contour>
    <contour>
      <point x="1030" y="645" type="curve" smooth="yes"/>
      <point x="1030" y="407"/>
      <point x="936" y="126"/>
      <point x="689" y="126" type="curve" smooth="yes"/>
      <point x="463" y="126"/>
      <point x="363" y="399"/>
      <point x="363" y="661" type="curve" smooth="yes"/>
      <point x="363" y="908"/>
      <point x="452" y="1183"/>
      <point x="707" y="1183" type="curve" smooth="yes"/>
      <point x="922" y="1183"/>
      <point x="1030" y="934"/>
    </contour>
  </outline>
</glyph>
<glyph name="R" format="2">
  <advance width="1298"/>
  <unicode hex="0052"/>
  <outline>
    <contour>
      <point x="1298" y="40" type="curve"/>
      <point x="1298" y="134" type="line"/>
      <point x="892" y="86"/>
      <point x="1148" y="569"/>
      <point x="744" y="648" type="curve"/>
      <point x="844" y="663"/>
      <point x="1066" y="722"/>
      <point x="1066" y="971" type="curve" smooth="yes"/>
      <point x="1066" y="1232"/>
      <point x="800" y="1277"/>
      <point x="663" y="1277" type="curve" smooth="yes"/>
      <point x="51" y="1277" type="line"/>
      <point x="51" y="1183" type="line"/>
      <point x="149" y="1174" type="line"/>
      <point x="171" y="1171"/>
      <point x="192" y="1157"/>
      <point x="192" y="1133" type="curve" smooth="yes"/>
      <point x="192" y="184" type="line" smooth="yes"/>
      <point x="192" y="160"/>
      <point x="171" y="145"/>
      <point x="149" y="143" type="curve" smooth="yes"/>
      <point x="51" y="134" type="line"/>
      <point x="51" y="40" type="line"/>
      <point x="598" y="40" type="line"/>
      <point x="598" y="134" type="line"/>
      <point x="496" y="143" type="line" smooth="yes"/>
      <point x="473" y="145"/>
      <point x="455" y="160"/>
      <point x="455" y="184" type="curve" smooth="yes"/>
      <point x="455" y="582" type="line"/>
      <point x="492" y="582" type="line" smooth="yes"/>
      <point x="853" y="582"/>
      <point x="640" y="10"/>
      <point x="1115" y="10" type="curve" smooth="yes"/>
      <point x="1161" y="10"/>
      <point x="1217" y="31"/>
    </contour>
    <contour>
      <point x="789" y="935" type="curve" smooth="yes"/>
      <point x="789" y="726"/>
      <point x="632" y="691"/>
      <point x="516" y="691" type="curve" smooth="yes"/>
      <point x="507" y="691"/>
      <point x="487" y="692"/>
      <point x="455" y="694" type="curve"/>
      <point x="455" y="1166" type="line"/>
      <point x="487" y="1168"/>
      <point x="514" y="1166"/>
      <point x="514" y="1166" type="curve"/>
      <point x="693" y="1166"/>
      <point x="789" y="1090"/>
    </contour>
  </outline>
</glyph>
<glyph name="S" format="2">
  <advance width="988"/>
  <unicode hex="0053"/>
  <outline>
    <contour>
      <point x="920" y="401" type="curve" smooth="yes"/>
      <point x="920" y="594"/>
      <point x="761" y="681"/>
      <point x="599" y="761" type="curve" smooth="yes"/>
      <point x="470" y="825"/>
      <point x="350" y="886"/>
      <point x="350" y="1016" type="curve" smooth="yes"/>
      <point x="350" y="1125"/>
      <point x="455" y="1183"/>
      <point x="577" y="1183" type="curve" smooth="yes"/>
      <point x="635" y="1183"/>
      <point x="713" y="1134"/>
      <point x="714" y="1127" type="curve" smooth="yes"/>
      <point x="744" y="930" type="line"/>
      <point x="886" y="930" type="line"/>
      <point x="886" y="1232" type="line"/>
      <point x="817" y="1264"/>
      <point x="675" y="1306"/>
      <point x="538" y="1306" type="curve" smooth="yes"/>
      <point x="301" y="1306"/>
      <point x="94" y="1171"/>
      <point x="94" y="932" type="curve" smooth="yes"/>
      <point x="94" y="759"/>
      <point x="214" y="674"/>
      <point x="345" y="604" type="curve" smooth="yes"/>
      <point x="537" y="501"/>
      <point x="649" y="439"/>
      <point x="649" y="309" type="curve" smooth="yes"/>
      <point x="649" y="186"/>
      <point x="520" y="135"/>
      <point x="411" y="135" type="curve" smooth="yes"/>
      <point x="360" y="135"/>
      <point x="300" y="153"/>
      <point x="269" y="167" type="curve"/>
      <point x="264" y="167"/>
      <point x="247" y="180"/>
      <point x="245" y="195" type="curve" smooth="yes"/>
      <point x="214" y="418" type="line"/>
      <point x="68" y="418" type="line"/>
      <point x="68" y="80" type="line"/>
      <point x="140" y="50"/>
      <point x="288" y="10"/>
      <point x="427" y="10" type="curve" smooth="yes"/>
      <point x="688" y="10"/>
      <point x="920" y="142"/>
    </contour>
  </outline>
</glyph>
<glyph name="T" format="1">
  <advance width="1122"/>
  <unicode hex="0054"/>
  <outline>
    <contour>
      <point x="1093" y="939" type="line"/>
      <point x="1093" y="1277" type="line"/>
      <point x="30" y="1277" type="line"/>
      <point x="30" y="939" type="line"/>
      <point x="162" y="939" type="line"/>
      <point x="195" y="1144" type="line" smooth="yes"/>
      <point x="197" y="1159"/>
      <point x="208" y="1166"/>
      <point x="223" y="1166" type="curve" smooth="yes"/>
      <point x="429" y="1166" type="line"/>
      <point x="429" y="184" type="line" smooth="yes"/>
      <point x="429" y="160"/>
      <point x="409" y="145"/>
      <point x="387" y="143" type="curve" smooth="yes"/>
      <point x="280" y="134" type="line"/>
      <point x="280" y="40" type="line"/>
      <point x="842" y="40" type="line"/>
      <point x="842" y="134" type="line"/>
      <point x="733" y="143" type="line" smooth="yes"/>
      <point x="712" y="145"/>
      <point x="693" y="160"/>
      <point x="693" y="184" type="curve" smooth="yes"/>
      <point x="693" y="1166" type="line"/>
      <point x="899" y="1166" type="line" smooth="yes"/>
      <point x="914" y="1166"/>
      <point x="923" y="1159"/>
      <point x="925" y="1144" type="curve" smooth="yes"/>
      <point x="958" y="939" type="line"/>
    </contour>
  </outline>
</glyph>
<glyph name="V" format="2">
  <advance width="1301"/>
  <unicode hex="0056"/>
  <outline>
    <contour>
      <point x="1282" y="1183" type="line"/>
      <point x="1282" y="1277" type="line"/>
      <point x="870" y="1277" type="line"/>
      <point x="870" y="1183" type="line"/>
      <point x="969" y="1169" type="line"/>
      <point x="997" y="1166"/>
      <point x="999" y="1146"/>
      <point x="995" y="1131" type="curve"/>
      <point x="714" y="327" type="line"/>
      <point x="422" y="1129" type="line" smooth="yes"/>
      <point x="417" y="1144"/>
      <point x="418" y="1166"/>
      <point x="440" y="1169" type="curve" smooth="yes"/>
      <point x="544" y="1183" type="line"/>
      <point x="544" y="1277" type="line"/>
      <point x="18" y="1277" type="line"/>
      <point x="18" y="1183" type="line"/>
      <point x="137" y="1166" type="line"/>
      <point x="568" y="10" type="line"/>
      <point x="742" y="10" type="line"/>
      <point x="1166" y="1168" type="line"/>
    </contour>
  </outline>
</glyph>
<glyph name="W" format="1">
  <advance width="1780"/>
  <unicode hex="0057"/>
  <outline>
    <contour>
      <point x="1762" y="1183" type="line"/>
      <point x="1762" y="1277" type="line"/>
      <point x="1354" y="1277" type="line"/>
      <point x="1354" y="1183" type="line"/>
      <point x="1472" y="1171" type="line"/>
      <point x="1498" y="1168"/>
      <point x="1502" y="1148"/>
      <point x="1498" y="1133" type="curve" smooth="yes"/>
      <point x="1314" y="383" type="line"/>
      <point x="1047" y="1277" type="line"/>
      <point x="848" y="1277" type="line"/>
      <point x="589" y="403" type="line"/>
      <point x="394" y="1133" type="line" smooth="yes"/>
      <point x="391" y="1148"/>
      <point x="389" y="1169"/>
      <point x="411" y="1171" type="curve" smooth="yes"/>
      <point x="520" y="1183" type="line"/>
      <point x="520" y="1277" type="line"/>
      <point x="18" y="1277" type="line"/>
      <point x="18" y="1183" type="line"/>
      <point x="130" y="1168" type="line"/>
      <point x="438" y="10" type="line"/>
      <point x="616" y="10" type="line"/>
      <point x="897" y="969" type="line"/>
      <point x="1185" y="10" type="line"/>
      <point x="1360" y="10" type="line"/>
      <point x="1650" y="1168" type="line"/>
    </contour>
  </outline>
</glyph>
<glyph name="X" format="2">
  <advance width="1237"/>
  <unicode hex="0058"/>
  <outline>
    <contour>
      <point x="1219" y="40" type="line"/>
      <point x="1219" y="134" type="line"/>
      <point x="1102" y="149" type="line"/>
      <point x="737" y="719" type="line"/>
      <point x="1082" y="1166" type="line"/>
      <point x="1198" y="1183" type="line"/>
      <point x="1198" y="1277" type="line"/>
      <point x="778" y="1277" type="line"/>
      <point x="778" y="1183" type="line"/>
      <point x="876" y="1176" type="line" smooth="yes"/>
      <point x="886" y="1175"/>
      <point x="895" y="1166"/>
      <point x="895" y="1153" type="curve" smooth="yes"/>
      <point x="895" y="1146"/>
      <point x="892" y="1138"/>
      <point x="886" y="1131" type="curve" smooth="yes"/>
      <point x="660" y="838" type="line"/>
      <point x="475" y="1129" type="line" smooth="yes"/>
      <point x="470" y="1137"/>
      <point x="468" y="1145"/>
      <point x="468" y="1151" type="curve" smooth="yes"/>
      <point x="468" y="1165"/>
      <point x="476" y="1173"/>
      <point x="485" y="1174" type="curve" smooth="yes"/>
      <point x="582" y="1183" type="line"/>
      <point x="582" y="1277" type="line"/>
      <point x="42" y="1277" type="line"/>
      <point x="42" y="1183" type="line"/>
      <point x="158" y="1166" type="line"/>
      <point x="503" y="629" type="line"/>
      <point x="137" y="149" type="line"/>
      <point x="18" y="134" type="line"/>
      <point x="18" y="40" type="line"/>
      <point x="454" y="40" type="line"/>
      <point x="454" y="134" type="line"/>
      <point x="343" y="143" type="line"/>
      <point x="334" y="144"/>
      <point x="324" y="154"/>
      <point x="324" y="167" type="curve" smooth="yes"/>
      <point x="324" y="174"/>
      <point x="326" y="181"/>
      <point x="332" y="188" type="curve" smooth="yes"/>
      <point x="580" y="510" type="line"/>
      <point x="787" y="186" type="line" smooth="yes"/>
      <point x="793" y="177"/>
      <point x="795" y="169"/>
      <point x="795" y="162" type="curve" smooth="yes"/>
      <point x="795" y="151"/>
      <point x="789" y="143"/>
      <point x="778" y="142" type="curve" smooth="yes"/>
      <point x="665" y="134" type="line"/>
      <point x="665" y="40" type="line"/>
    </contour>
  </outline>
</glyph>
<glyph name="Y" format="2">
  <advance width="1222"/>
  <unicode hex="0059"/>
  <outline>
    <contour>
      <point x="1203" y="1183" type="line"/>
      <point x="1203" y="1277" type="line"/>
      <point x="796" y="1277" type="line"/>
      <point x="796" y="1183" type="line"/>
      <point x="909" y="1176" type="line" smooth="yes"/>
      <point x="925" y="1176"/>
      <point x="931" y="1153"/>
      <point x="918" y="1131" type="curve" smooth="yes"/>
      <point x="667" y="692" type="line"/>
      <point x="435" y="1129" type="line" smooth="yes"/>
      <point x="422" y="1153"/>
      <point x="431" y="1174"/>
      <point x="445" y="1174" type="curve"/>
      <point x="542" y="1183" type="line"/>
      <point x="542" y="1277" type="line"/>
      <point x="18" y="1277" type="line"/>
      <point x="18" y="1183" type="line"/>
      <point x="137" y="1166" type="line"/>
      <point x="492" y="523" type="line"/>
      <point x="492" y="184" type="line" smooth="yes"/>
      <point x="492" y="160"/>
      <point x="470" y="145"/>
      <point x="450" y="143" type="curve" smooth="yes"/>
      <point x="337" y="134" type="line"/>
      <point x="337" y="40" type="line"/>
      <point x="909" y="40" type="line"/>
      <point x="909" y="134" type="line"/>
      <point x="796" y="143" type="line" smooth="yes"/>
      <point x="774" y="145"/>
      <point x="756" y="160"/>
      <point x="756" y="184" type="curve" smooth="yes"/>
      <point x="756" y="575" type="line"/>
      <point x="1097" y="1166" type="line"/>
    </contour>
  </outline>
</glyph>
<glyph name="Z" format="1">
  <advance width="1071"/>
  <unicode hex="005A"/>
  <outline>
    <contour>
      <point x="1003" y="40" type="line"/>
      <point x="1003" y="403" type="line"/>
      <point x="868" y="403" type="line"/>
      <point x="832" y="175" type="line"/>
      <point x="828" y="161"/>
      <point x="818" y="154"/>
      <point x="804" y="154" type="curve" smooth="yes"/>
      <point x="363" y="154" type="line"/>
      <point x="994" y="1168" type="line"/>
      <point x="994" y="1277" type="line"/>
      <point x="100" y="1277" type="line"/>
      <point x="100" y="941" type="line"/>
      <point x="234" y="941" type="line"/>
      <point x="267" y="1142" type="line" smooth="yes"/>
      <point x="269" y="1157"/>
      <point x="278" y="1164"/>
      <point x="293" y="1164" type="curve" smooth="yes"/>
      <point x="700" y="1164" type="line"/>
      <point x="68" y="149" type="line"/>
      <point x="68" y="40" type="line"/>
    </contour>
  </outline>
</glyph>
<glyph name="bracketleft" format="1">
  <advance width="918"/>
  <unicode hex="005B"/>
  <outline>
    <contour>
      <point x="844" y="-270" type="line"/>
      <point x="844" y="-152" type="line"/>
      <point x="530" y="-152" type="line"/>
      <point x="530" y="1327" type="line"/>
      <point x="844" y="1327" type="line"/>
      <point x="844" y="1450" type="line"/>
      <point x="276" y="1450" type="line"/>
      <point x="276" y="-270" type="line"/>
    </contour>
  </outline>
</glyph>
<glyph name="backslash" format="1">
  <advance width="911"/>
  <unicode hex="005C"/>
  <outline>
    <contour>
      <point x="911" y="-131" type="line"/>
      <point x="144" y="1277" type="line"/>
      <point x="0" y="1277" type="line"/>
      <point x="767" y="-131" type="line"/>
    </contour>
  </outline>
</glyph>
<glyph name="bracketright" format="2">
  <advance width="918"/>
  <unicode hex="005D"/>
  <outline>
    <contour>
      <point x="641" y="-270" type="line"/>
      <point x="641" y="1450" type="line"/>
      <point x="74" y="1450" type="line"/>
      <point x="74" y="1327" type="line"/>
      <point x="387" y="1327" type="line"/>
      <point x="387" y="-152" type="line"/>
      <point x="74" y="-152" type="line"/>
      <point x="74" y="-270" type="line"/>
    </contour>
  </outline>
</glyph>
<glyph name="asciicircum" format="1">
  <advance width="1766"/>
  <unicode hex="005E"/>
  <outline>
    <contour>
      <point x="1364" y="61" type="line"/>
      <point x="931" y="1120" type="line"/>
      <point x="837" y="1120" type="line"/>
      <point x="401" y="61" type="line"/>
      <point x="516" y="61" type="line"/>
      <point x="883" y="960" type="line"/>
      <point x="1247" y="61" type="line"/>
    </contour>
  </outline>
</glyph>
<glyph name="underscore" format="2">
  <advance width="922"/>
  <unicode hex="005F"/>
  <outline>
    <contour>
      <point x="922" y="-395" type="line"/>
      <point x="922" y="-227" type="line"/>
      <point x="0" y="-227" type="line"/>
      <point x="0" y="-395" type="line"/>
    </contour>
  </outline>
</glyph>
<glyph name="grave" format="2">
  <advance width="689"/>
  <unicode hex="0060"/>
  <outline>
    <contour>
      <point x="473" y="1055" type="line"/>
      <point x="221" y="1334" type="line" smooth="yes"/>
      <point x="179" y="1380"/>
      <point x="155" y="1393"/>
      <point x="105" y="1393" type="curve" smooth="yes"/>
      <point x="26" y="1393"/>
      <point x="0" y="1340"/>
      <point x="0" y="1295" type="curve" smooth="yes"/>
      <point x="0" y="1271"/>
      <point x="21" y="1232"/>
      <point x="46" y="1218" type="curve" smooth="yes"/>
      <point x="345" y="1055" type="line"/>
    </contour>
  </outline>
</glyph>
<glyph name="b" format="1">
  <advance width="1102"/>
  <unicode hex="0062"/>
  <outline>
    <contour>
      <point x="1043" y="545" type="curve" smooth="yes"/>
      <point x="1043" y="809"/>
      <point x="877" y="962"/>
      <point x="680" y="962" type="curve" smooth="yes"/>
      <point x="542" y="962"/>
      <point x="413" y="877"/>
      <point x="413" y="877" type="curve"/>
      <point x="413" y="1404" type="line"/>
      <point x="319" y="1404" type="line"/>
      <point x="37" y="1312" type="line"/>
      <point x="37" y="1236" type="line"/>
      <point x="166" y="1236" type="line"/>
      <point x="166" y="40" type="line"/>
      <point x="503" y="40" type="line" smooth="yes"/>
      <point x="848" y="40"/>
      <point x="1043" y="261"/>
    </contour>
    <contour>
      <point x="776" y="490" type="curve" smooth="yes"/>
      <point x="776" y="228"/>
      <point x="656" y="142"/>
      <point x="452" y="142" type="curve" smooth="yes"/>
      <point x="440" y="142"/>
      <point x="435" y="143"/>
      <point x="413" y="143" type="curve"/>
      <point x="413" y="798" type="line"/>
      <point x="413" y="798"/>
      <point x="466" y="809"/>
      <point x="510" y="809" type="curve" smooth="yes"/>
      <point x="684" y="809"/>
      <point x="776" y="689"/>
    </contour>
  </outline>
</glyph>
<glyph name="c" format="2">
  <advance width="925"/>
  <unicode hex="0063"/>
  <outline>
    <contour>
      <point x="868" y="121" type="curve"/>
      <point x="868" y="263" type="line"/>
      <point x="844" y="244"/>
      <point x="723" y="172"/>
      <point x="610" y="172" type="curve" smooth="yes"/>
      <point x="436" y="172"/>
      <point x="330" y="309"/>
      <point x="330" y="525" type="curve" smooth="yes"/>
      <point x="330" y="754"/>
      <point x="452" y="868"/>
      <point x="564" y="868" type="curve" smooth="yes"/>
      <point x="577" y="868"/>
      <point x="584" y="868"/>
      <point x="599" y="866" type="curve"/>
      <point x="599" y="659" type="line"/>
      <point x="615" y="643"/>
      <point x="655" y="620"/>
      <point x="723" y="620" type="curve" smooth="yes"/>
      <point x="789" y="620"/>
      <point x="853" y="676"/>
      <point x="853" y="759" type="curve" smooth="yes"/>
      <point x="853" y="877"/>
      <point x="728" y="962"/>
      <point x="535" y="962" type="curve" smooth="yes"/>
      <point x="271" y="962"/>
      <point x="59" y="763"/>
      <point x="59" y="471" type="curve" smooth="yes"/>
      <point x="59" y="230"/>
      <point x="218" y="17"/>
      <point x="505" y="17" type="curve" smooth="yes"/>
      <point x="681" y="17"/>
      <point x="815" y="91"/>
    </contour>
  </outline>
</glyph>
<glyph name="d" format="2">
  <advance width="1122"/>
  <unicode hex="0064"/>
  <outline>
    <contour>
      <point x="1075" y="40" type="line"/>
      <point x="1075" y="126" type="line"/>
      <point x="997" y="132" type="line" smooth="yes"/>
      <point x="975" y="134"/>
      <point x="957" y="152"/>
      <point x="957" y="175" type="curve" smooth="yes"/>
      <point x="957" y="1404" type="line"/>
      <point x="862" y="1404" type="line"/>
      <point x="575" y="1312" type="line"/>
      <point x="575" y="1236" type="line"/>
      <point x="712" y="1236" type="line"/>
      <point x="712" y="939" type="line"/>
      <point x="668" y="949"/>
      <point x="591" y="962"/>
      <point x="540" y="962" type="curve" smooth="yes"/>
      <point x="262" y="962"/>
      <point x="59" y="786"/>
      <point x="59" y="469" type="curve" smooth="yes"/>
      <point x="59" y="209"/>
      <point x="195" y="17"/>
      <point x="420" y="17" type="curve" smooth="yes"/>
      <point x="534" y="17"/>
      <point x="669" y="109"/>
      <point x="712" y="147" type="curve"/>
      <point x="712" y="40" type="line"/>
    </contour>
    <contour>
      <point x="712" y="223" type="line"/>
      <point x="678" y="208"/>
      <point x="616" y="188"/>
      <point x="568" y="188" type="curve" smooth="yes"/>
      <point x="408" y="188"/>
      <point x="328" y="318"/>
      <point x="328" y="512" type="curve" smooth="yes"/>
      <point x="328" y="701"/>
      <point x="409" y="851"/>
      <point x="580" y="851" type="curve" smooth="yes"/>
      <point x="621" y="851"/>
      <point x="679" y="832"/>
      <point x="712" y="818" type="curve"/>
    </contour>
  </outline>
</glyph>
<glyph name="f" format="1">
  <advance width="640"/>
  <unicode hex="0066"/>
  <outline>
    <contour>
      <point x="774" y="1257" type="curve" smooth="yes"/>
      <point x="774" y="1361"/>
      <point x="670" y="1404"/>
      <point x="598" y="1404" type="curve" smooth="yes"/>
      <point x="446" y="1404"/>
      <point x="324" y="1317"/>
      <point x="251" y="1197" type="curve" smooth="yes"/>
      <point x="199" y="1116"/>
      <point x="171" y="1030"/>
      <point x="171" y="934" type="curve"/>
      <point x="53" y="873" type="line"/>
      <point x="53" y="800" type="line"/>
      <point x="174" y="800" type="line"/>
      <point x="174" y="175" type="line" smooth="yes"/>
      <point x="174" y="152"/>
      <point x="155" y="134"/>
      <point x="132" y="132" type="curve" smooth="yes"/>
      <point x="39" y="126" type="line"/>
      <point x="39" y="40" type="line"/>
      <point x="573" y="40" type="line"/>
      <point x="573" y="126" type="line"/>
      <point x="461" y="132" type="line"/>
      <point x="436" y="132"/>
      <point x="420" y="152"/>
      <point x="420" y="175" type="curve" smooth="yes"/>
      <point x="420" y="800" type="line"/>
      <point x="619" y="800" type="line"/>
      <point x="619" y="917" type="line"/>
      <point x="418" y="917" type="line"/>
      <point x="418" y="1025" type="line" smooth="yes"/>
      <point x="418" y="1192"/>
      <point x="440" y="1251"/>
      <point x="477" y="1306" type="curve"/>
      <point x="660" y="1135" type="line"/>
      <point x="719" y="1155"/>
      <point x="774" y="1199"/>
    </contour>
  </outline>
</glyph>
<glyph name="g" format="2">
  <advance width="1023"/>
  <unicode hex="0067"/>
  <outline>
    <contour>
      <point x="1006" y="796" type="line"/>
      <point x="1006" y="905" type="line"/>
      <point x="767" y="905" type="line"/>
      <point x="716" y="925"/>
      <point x="619" y="962"/>
      <point x="503" y="962" type="curve" smooth="yes"/>
      <point x="278" y="962"/>
      <point x="95" y="860"/>
      <point x="95" y="639" type="curve" smooth="yes"/>
      <point x="95" y="448"/>
      <point x="258" y="377"/>
      <point x="322" y="362" type="curve"/>
      <point x="253" y="300"/>
      <point x="220" y="254"/>
      <point x="220" y="191" type="curve" smooth="yes"/>
      <point x="220" y="167"/>
      <point x="227" y="126"/>
      <point x="243" y="93" type="curve"/>
      <point x="125" y="58"/>
      <point x="59" y="-8"/>
      <point x="59" y="-110" type="curve" smooth="yes"/>
      <point x="59" y="-308"/>
      <point x="260" y="-386"/>
      <point x="454" y="-386" type="curve" smooth="yes"/>
      <point x="695" y="-386"/>
      <point x="951" y="-247"/>
      <point x="951" y="-34" type="curve" smooth="yes"/>
      <point x="951" y="121"/>
      <point x="795" y="206"/>
      <point x="391" y="239" type="curve"/>
      <point x="386" y="252"/>
      <point x="383" y="263"/>
      <point x="383" y="273" type="curve" smooth="yes"/>
      <point x="383" y="305"/>
      <point x="407" y="327"/>
      <point x="440" y="350" type="curve"/>
      <point x="451" y="349"/>
      <point x="463" y="349"/>
      <point x="475" y="349" type="curve" smooth="yes"/>
      <point x="648" y="349"/>
      <point x="881" y="425"/>
      <point x="881" y="656" type="curve" smooth="yes"/>
      <point x="881" y="711"/>
      <point x="864" y="755"/>
      <point x="844" y="796" type="curve"/>
    </contour>
    <contour>
      <point x="638" y="659" type="curve" smooth="yes"/>
      <point x="638" y="550"/>
      <point x="596" y="436"/>
      <point x="496" y="436" type="curve" smooth="yes"/>
      <point x="394" y="436"/>
      <point x="350" y="548"/>
      <point x="350" y="657" type="curve" smooth="yes"/>
      <point x="350" y="763"/>
      <point x="389" y="872"/>
      <point x="499" y="872" type="curve" smooth="yes"/>
      <point x="591" y="872"/>
      <point x="638" y="761"/>
    </contour>
    <contour>
      <point x="714" y="-87" type="curve" smooth="yes"/>
      <point x="714" y="-207"/>
      <point x="603" y="-284"/>
      <point x="505" y="-284" type="curve" smooth="yes"/>
      <point x="408" y="-284"/>
      <point x="302" y="-192"/>
      <point x="302" y="-74" type="curve" smooth="yes"/>
      <point x="302" y="-26"/>
      <point x="327" y="21"/>
      <point x="359" y="70" type="curve"/>
      <point x="482" y="58"/>
      <point x="714" y="32"/>
    </contour>
  </outline>
</glyph>
<glyph name="h" format="2">
  <advance width="1154"/>
  <unicode hex="0068"/>
  <outline>
    <contour>
      <point x="1106" y="40" type="line"/>
      <point x="1106" y="126" type="line"/>
      <point x="1029" y="132" type="line" smooth="yes"/>
      <point x="1006" y="134"/>
      <point x="988" y="152"/>
      <point x="988" y="175" type="curve" smooth="yes"/>
      <point x="988" y="672" type="line" smooth="yes"/>
      <point x="988" y="781"/>
      <point x="953" y="962"/>
      <point x="735" y="962" type="curve" smooth="yes"/>
      <point x="591" y="962"/>
      <point x="413" y="847"/>
      <point x="413" y="847" type="curve"/>
      <point x="413" y="1404" type="line"/>
      <point x="317" y="1404" type="line"/>
      <point x="35" y="1312" type="line"/>
      <point x="35" y="1236" type="line"/>
      <point x="166" y="1236" type="line"/>
      <point x="166" y="175" type="line" smooth="yes"/>
      <point x="166" y="152"/>
      <point x="148" y="134"/>
      <point x="125" y="132" type="curve" smooth="yes"/>
      <point x="49" y="126" type="line"/>
      <point x="49" y="40" type="line"/>
      <point x="517" y="40" type="line"/>
      <point x="517" y="126" type="line"/>
      <point x="454" y="132" type="line" smooth="yes"/>
      <point x="431" y="134"/>
      <point x="413" y="152"/>
      <point x="413" y="175" type="curve" smooth="yes"/>
      <point x="413" y="768" type="line"/>
      <point x="413" y="768"/>
      <point x="512" y="792"/>
      <point x="586" y="792" type="curve" smooth="yes"/>
      <point x="723" y="792"/>
      <point x="741" y="670"/>
      <point x="741" y="610" type="curve" smooth="yes"/>
      <point x="741" y="175" type="line" smooth="yes"/>
      <point x="741" y="152"/>
      <point x="723" y="134"/>
      <point x="700" y="132" type="curve" smooth="yes"/>
      <point x="642" y="126" type="line"/>
      <point x="642" y="40" type="line"/>
    </contour>
  </outline>
</glyph>
<glyph name="i" format="1">
  <advance width="614"/>
  <unicode hex="0069"/>
  <outline>
    <contour>
      <point x="455" y="1262" type="curve" smooth="yes"/>
      <point x="455" y="1341"/>
      <point x="391" y="1404"/>
      <point x="311" y="1404" type="curve" smooth="yes"/>
      <point x="232" y="1404"/>
      <point x="169" y="1341"/>
      <point x="169" y="1262" type="curve" smooth="yes"/>
      <point x="169" y="1183"/>
      <point x="232" y="1118"/>
      <point x="311" y="1118" type="curve" smooth="yes"/>
      <point x="391" y="1118"/>
      <point x="455" y="1183"/>
    </contour>
    <contour>
      <point x="561" y="40" type="line"/>
      <point x="561" y="126" type="line"/>
      <point x="472" y="132" type="line" smooth="yes"/>
      <point x="450" y="134"/>
      <point x="429" y="152"/>
      <point x="429" y="175" type="curve" smooth="yes"/>
      <point x="429" y="962" type="line"/>
      <point x="336" y="962" type="line"/>
      <point x="67" y="870" type="line"/>
      <point x="67" y="794" type="line"/>
      <point x="184" y="794" type="line"/>
      <point x="184" y="175" type="line" smooth="yes"/>
      <point x="184" y="152"/>
      <point x="166" y="134"/>
      <point x="144" y="132" type="curve" smooth="yes"/>
      <point x="59" y="126" type="line"/>
      <point x="59" y="40" type="line"/>
    </contour>
  </outline>
</glyph>
<glyph name="j" format="1">
  <advance width="598"/>
  <unicode hex="006A"/>
  <outline>
    <contour>
      <point x="448" y="1262" type="curve" smooth="yes"/>
      <point x="448" y="1341"/>
      <point x="385" y="1404"/>
      <point x="306" y="1404" type="curve" smooth="yes"/>
      <point x="227" y="1404"/>
      <point x="162" y="1341"/>
      <point x="162" y="1262" type="curve" smooth="yes"/>
      <point x="162" y="1183"/>
      <point x="227" y="1118"/>
      <point x="306" y="1118" type="curve" smooth="yes"/>
      <point x="385" y="1118"/>
      <point x="448" y="1183"/>
    </contour>
    <contour>
      <point x="429" y="126" type="curve"/>
      <point x="429" y="962" type="line"/>
      <point x="336" y="962" type="line"/>
      <point x="53" y="870" type="line"/>
      <point x="53" y="794" type="line"/>
      <point x="184" y="794" type="line"/>
      <point x="184" y="31" type="line"/>
      <point x="184" y="31"/>
      <point x="190" y="-211"/>
      <point x="132" y="-305" type="curve"/>
      <point x="-48" y="-122" type="line"/>
      <point x="-111" y="-127"/>
      <point x="-166" y="-180"/>
      <point x="-166" y="-245" type="curve" smooth="yes"/>
      <point x="-166" y="-336"/>
      <point x="-81" y="-386"/>
      <point x="18" y="-386" type="curve" smooth="yes"/>
      <point x="160" y="-386"/>
      <point x="262" y="-327"/>
      <point x="328" y="-236" type="curve" smooth="yes"/>
      <point x="398" y="-139"/>
      <point x="429" y="-8"/>
    </contour>
  </outline>
</glyph>
<glyph name="k" format="2">
  <advance width="1091"/>
  <unicode hex="006B"/>
  <outline>
    <contour>
      <point x="1075" y="40" type="line"/>
      <point x="1075" y="126" type="line"/>
      <point x="966" y="135" type="line"/>
      <point x="682" y="613" type="line"/>
      <point x="879" y="838" type="line"/>
      <point x="1001" y="853" type="line"/>
      <point x="1001" y="939" type="line"/>
      <point x="617" y="939" type="line"/>
      <point x="617" y="853" type="line"/>
      <point x="688" y="845" type="line" smooth="yes"/>
      <point x="706" y="843"/>
      <point x="711" y="828"/>
      <point x="700" y="814" type="curve" smooth="yes"/>
      <point x="454" y="519" type="line"/>
      <point x="413" y="519" type="line"/>
      <point x="413" y="1404" type="line"/>
      <point x="319" y="1404" type="line"/>
      <point x="37" y="1312" type="line"/>
      <point x="37" y="1236" type="line"/>
      <point x="166" y="1236" type="line"/>
      <point x="166" y="175" type="line" smooth="yes"/>
      <point x="166" y="152"/>
      <point x="148" y="134"/>
      <point x="125" y="132" type="curve" smooth="yes"/>
      <point x="48" y="126" type="line"/>
      <point x="48" y="40" type="line"/>
      <point x="527" y="40" type="line"/>
      <point x="527" y="126" type="line"/>
      <point x="454" y="132" type="line" smooth="yes"/>
      <point x="429" y="134"/>
      <point x="413" y="152"/>
      <point x="413" y="175" type="curve" smooth="yes"/>
      <point x="413" y="457" type="line"/>
      <point x="499" y="457" type="line"/>
      <point x="702" y="116" type="line"/>
      <point x="702" y="40" type="line"/>
    </contour>
  </outline>
</glyph>
<glyph name="l" format="2">
  <advance width="614"/>
  <unicode hex="006C"/>
  <outline>
    <contour>
      <point x="562" y="40" type="line"/>
      <point x="562" y="126" type="line"/>
      <point x="470" y="132" type="line" smooth="yes"/>
      <point x="446" y="134"/>
      <point x="429" y="151"/>
      <point x="429" y="175" type="curve" smooth="yes"/>
      <point x="429" y="1404" type="line"/>
      <point x="336" y="1404" type="line"/>
      <point x="53" y="1312" type="line"/>
      <point x="53" y="1236" type="line"/>
      <point x="184" y="1236" type="line"/>
      <point x="184" y="175" type="line" smooth="yes"/>
      <point x="184" y="151"/>
      <point x="167" y="134"/>
      <point x="144" y="132" type="curve" smooth="yes"/>
      <point x="53" y="126" type="line"/>
      <point x="53" y="40" type="line"/>
    </contour>
  </outline>
</glyph>
<glyph name="m" format="2">
  <advance width="1669"/>
  <unicode hex="006D"/>
  <outline>
    <contour>
      <point x="1618" y="40" type="line"/>
      <point x="1618" y="126" type="line"/>
      <point x="1552" y="132" type="line" smooth="yes"/>
      <point x="1530" y="134"/>
      <point x="1511" y="152"/>
      <point x="1511" y="175" type="curve" smooth="yes"/>
      <point x="1511" y="680" type="line" smooth="yes"/>
      <point x="1511" y="766"/>
      <point x="1480" y="962"/>
      <point x="1257" y="962" type="curve" smooth="yes"/>
      <point x="1113" y="962"/>
      <point x="929" y="836"/>
      <point x="929" y="836" type="curve"/>
      <point x="895" y="877"/>
      <point x="846" y="962"/>
      <point x="706" y="962" type="curve" smooth="yes"/>
      <point x="562" y="962"/>
      <point x="404" y="849"/>
      <point x="404" y="849" type="curve"/>
      <point x="404" y="962" type="line"/>
      <point x="311" y="962" type="line"/>
      <point x="40" y="868" type="line"/>
      <point x="40" y="792" type="line"/>
      <point x="158" y="792" type="line"/>
      <point x="158" y="175" type="line" smooth="yes"/>
      <point x="158" y="152"/>
      <point x="140" y="134"/>
      <point x="118" y="132" type="curve" smooth="yes"/>
      <point x="49" y="126" type="line"/>
      <point x="49" y="40" type="line"/>
      <point x="503" y="40" type="line"/>
      <point x="503" y="126" type="line"/>
      <point x="446" y="132" type="line" smooth="yes"/>
      <point x="424" y="134"/>
      <point x="404" y="152"/>
      <point x="404" y="175" type="curve" smooth="yes"/>
      <point x="404" y="763" type="line"/>
      <point x="404" y="763"/>
      <point x="452" y="792"/>
      <point x="553" y="792" type="curve" smooth="yes"/>
      <point x="667" y="792"/>
      <point x="712" y="709"/>
      <point x="712" y="619" type="curve" smooth="yes"/>
      <point x="712" y="175" type="line" smooth="yes"/>
      <point x="712" y="152"/>
      <point x="693" y="134"/>
      <point x="670" y="132" type="curve" smooth="yes"/>
      <point x="614" y="126" type="line"/>
      <point x="614" y="40" type="line"/>
      <point x="1057" y="40" type="line"/>
      <point x="1057" y="126" type="line"/>
      <point x="999" y="132" type="line" smooth="yes"/>
      <point x="976" y="134"/>
      <point x="958" y="152"/>
      <point x="958" y="175" type="curve" smooth="yes"/>
      <point x="958" y="763" type="line"/>
      <point x="958" y="763"/>
      <point x="1027" y="792"/>
      <point x="1106" y="792" type="curve" smooth="yes"/>
      <point x="1228" y="792"/>
      <point x="1266" y="709"/>
      <point x="1266" y="619" type="curve" smooth="yes"/>
      <point x="1266" y="175" type="line" smooth="yes"/>
      <point x="1266" y="152"/>
      <point x="1246" y="134"/>
      <point x="1224" y="132" type="curve" smooth="yes"/>
      <point x="1166" y="126" type="line"/>
      <point x="1166" y="40" type="line"/>
    </contour>
  </outline>
</glyph>
<glyph name="n" format="1">
  <advance width="1152"/>
  <unicode hex="006E"/>
  <outline>
    <contour>
      <point x="1085" y="40" type="line"/>
      <point x="1085" y="126" type="line"/>
      <point x="1029" y="132" type="line" smooth="yes"/>
      <point x="1006" y="134"/>
      <point x="986" y="152"/>
      <point x="986" y="175" type="curve" smooth="yes"/>
      <point x="986" y="641" type="line" smooth="yes"/>
      <point x="986" y="801"/>
      <point x="948" y="962"/>
      <point x="735" y="962" type="curve" smooth="yes"/>
      <point x="577" y="962"/>
      <point x="413" y="849"/>
      <point x="413" y="849" type="curve"/>
      <point x="413" y="962" type="line"/>
      <point x="317" y="962" type="line"/>
      <point x="39" y="868" type="line"/>
      <point x="39" y="792" type="line"/>
      <point x="166" y="792" type="line"/>
      <point x="166" y="175" type="line" smooth="yes"/>
      <point x="166" y="152"/>
      <point x="148" y="134"/>
      <point x="125" y="132" type="curve" smooth="yes"/>
      <point x="59" y="126" type="line"/>
      <point x="59" y="40" type="line"/>
      <point x="510" y="40" type="line"/>
      <point x="510" y="126" type="line"/>
      <point x="455" y="132" type="line" smooth="yes"/>
      <point x="433" y="134"/>
      <point x="413" y="152"/>
      <point x="413" y="175" type="curve" smooth="yes"/>
      <point x="413" y="768" type="line"/>
      <point x="413" y="768"/>
      <point x="489" y="792"/>
      <point x="589" y="792" type="curve" smooth="yes"/>
      <point x="700" y="792"/>
      <point x="741" y="701"/>
      <point x="741" y="608" type="curve" smooth="yes"/>
      <point x="741" y="175" type="line" smooth="yes"/>
      <point x="741" y="152"/>
      <point x="723" y="134"/>
      <point x="700" y="132" type="curve" smooth="yes"/>
      <point x="632" y="126" type="line"/>
      <point x="632" y="40" type="line"/>
    </contour>
  </outline>
</glyph>
<glyph name="o" format="2">
  <advance width="1076"/>
  <unicode hex="006F"/>
  <outline>
    <contour>
      <point x="1020" y="485" type="curve" smooth="yes"/>
      <point x="1020" y="764"/>
      <point x="850" y="962"/>
      <point x="545" y="962" type="curve" smooth="yes"/>
      <point x="260" y="962"/>
      <point x="59" y="788"/>
      <point x="59" y="486" type="curve" smooth="yes"/>
      <point x="59" y="195"/>
      <point x="253" y="17"/>
      <point x="533" y="17" type="curve" smooth="yes"/>
      <point x="839" y="17"/>
      <point x="1020" y="209"/>
    </contour>
    <contour>
      <point x="744" y="486" type="curve" smooth="yes"/>
      <point x="744" y="322"/>
      <point x="707" y="121"/>
      <point x="540" y="121" type="curve" smooth="yes"/>
      <point x="369" y="121"/>
      <point x="336" y="335"/>
      <point x="336" y="494" type="curve" smooth="yes"/>
      <point x="336" y="652"/>
      <point x="373" y="856"/>
      <point x="538" y="856" type="curve" smooth="yes"/>
      <point x="707" y="856"/>
      <point x="744" y="643"/>
    </contour>
  </outline>
</glyph>
<glyph name="p" format="1">
  <advance width="1113"/>
  <unicode hex="0070"/>
  <outline>
    <contour>
      <point x="1054" y="515" type="curve" smooth="yes"/>
      <point x="1054" y="735"/>
      <point x="934" y="962"/>
      <point x="709" y="962" type="curve" smooth="yes"/>
      <point x="561" y="962"/>
      <point x="413" y="845"/>
      <point x="413" y="845" type="curve"/>
      <point x="413" y="962" type="line"/>
      <point x="317" y="962" type="line"/>
      <point x="44" y="868" type="line"/>
      <point x="44" y="792" type="line"/>
      <point x="166" y="792" type="line"/>
      <point x="166" y="-229" type="line" smooth="yes"/>
      <point x="166" y="-253"/>
      <point x="148" y="-271"/>
      <point x="125" y="-271" type="curve"/>
      <point x="44" y="-277" type="line"/>
      <point x="44" y="-364" type="line"/>
      <point x="551" y="-364" type="line"/>
      <point x="551" y="-277" type="line"/>
      <point x="454" y="-271" type="line"/>
      <point x="429" y="-271"/>
      <point x="413" y="-253"/>
      <point x="413" y="-229" type="curve" smooth="yes"/>
      <point x="413" y="36" type="line"/>
      <point x="413" y="36"/>
      <point x="483" y="17"/>
      <point x="556" y="17" type="curve" smooth="yes"/>
      <point x="860" y="17"/>
      <point x="1054" y="217"/>
    </contour>
    <contour>
      <point x="781" y="488" type="curve" smooth="yes"/>
      <point x="781" y="281"/>
      <point x="691" y="117"/>
      <point x="514" y="117" type="curve" smooth="yes"/>
      <point x="475" y="117"/>
      <point x="413" y="140"/>
      <point x="413" y="140" type="curve"/>
      <point x="413" y="766" type="line"/>
      <point x="413" y="766"/>
      <point x="485" y="794"/>
      <point x="549" y="794" type="curve" smooth="yes"/>
      <point x="709" y="794"/>
      <point x="781" y="650"/>
    </contour>
  </outline>
</glyph>
<glyph name="q" format="2">
  <advance width="1111"/>
  <unicode hex="0071"/>
  <outline>
    <contour>
      <point x="1062" y="-364" type="line"/>
      <point x="1062" y="-277" type="line"/>
      <point x="986" y="-271" type="line"/>
      <point x="964" y="-271"/>
      <point x="946" y="-253"/>
      <point x="946" y="-229" type="curve" smooth="yes"/>
      <point x="946" y="939" type="line"/>
      <point x="874" y="949"/>
      <point x="745" y="962"/>
      <point x="654" y="962" type="curve" smooth="yes"/>
      <point x="306" y="962"/>
      <point x="59" y="810"/>
      <point x="59" y="462" type="curve" smooth="yes"/>
      <point x="59" y="224"/>
      <point x="199" y="17"/>
      <point x="420" y="17" type="curve" smooth="yes"/>
      <point x="530" y="17"/>
      <point x="643" y="71"/>
      <point x="698" y="112" type="curve"/>
      <point x="698" y="-229" type="line" smooth="yes"/>
      <point x="698" y="-253"/>
      <point x="682" y="-271"/>
      <point x="658" y="-271" type="curve"/>
      <point x="556" y="-277" type="line"/>
      <point x="556" y="-364" type="line"/>
    </contour>
    <contour>
      <point x="698" y="186" type="line"/>
      <point x="670" y="183"/>
      <point x="619" y="179"/>
      <point x="580" y="179" type="curve" smooth="yes"/>
      <point x="422" y="179"/>
      <point x="328" y="304"/>
      <point x="328" y="504" type="curve" smooth="yes"/>
      <point x="328" y="701"/>
      <point x="406" y="853"/>
      <point x="625" y="853" type="curve" smooth="yes"/>
      <point x="656" y="853"/>
      <point x="685" y="848"/>
      <point x="698" y="845" type="curve"/>
    </contour>
  </outline>
</glyph>
<glyph name="r" format="1">
  <advance width="796"/>
  <unicode hex="0072"/>
  <outline>
    <contour>
      <point x="778" y="648" type="line"/>
      <point x="778" y="928" type="line"/>
      <point x="756" y="945"/>
      <point x="704" y="962"/>
      <point x="661" y="962" type="curve" smooth="yes"/>
      <point x="577" y="962"/>
      <point x="459" y="825"/>
      <point x="413" y="766" type="curve"/>
      <point x="413" y="962" type="line"/>
      <point x="317" y="962" type="line"/>
      <point x="31" y="868" type="line"/>
      <point x="31" y="792" type="line"/>
      <point x="166" y="792" type="line"/>
      <point x="166" y="172" type="line" smooth="yes"/>
      <point x="166" y="151"/>
      <point x="148" y="132"/>
      <point x="125" y="130" type="curve" smooth="yes"/>
      <point x="44" y="125" type="line"/>
      <point x="44" y="38" type="line"/>
      <point x="571" y="38" type="line"/>
      <point x="571" y="125" type="line"/>
      <point x="454" y="130" type="line" smooth="yes"/>
      <point x="429" y="130"/>
      <point x="413" y="151"/>
      <point x="413" y="172" type="curve" smooth="yes"/>
      <point x="413" y="689" type="line"/>
      <point x="413" y="689"/>
      <point x="463" y="722"/>
      <point x="533" y="722" type="curve" smooth="yes"/>
      <point x="605" y="722"/>
      <point x="636" y="672"/>
      <point x="652" y="648" type="curve"/>
    </contour>
  </outline>
</glyph>
<glyph name="s" format="2">
  <advance width="820"/>
  <unicode hex="0073"/>
  <outline>
    <contour>
      <point x="763" y="327" type="curve" smooth="yes"/>
      <point x="763" y="441"/>
      <point x="649" y="503"/>
      <point x="503" y="578" type="curve" smooth="yes"/>
      <point x="406" y="628"/>
      <point x="317" y="676"/>
      <point x="317" y="749" type="curve" smooth="yes"/>
      <point x="317" y="814"/>
      <point x="369" y="851"/>
      <point x="455" y="851" type="curve" smooth="yes"/>
      <point x="522" y="851"/>
      <point x="575" y="833"/>
      <point x="599" y="805" type="curve"/>
      <point x="619" y="657" type="line"/>
      <point x="733" y="657" type="line"/>
      <point x="733" y="912" type="line"/>
      <point x="641" y="948"/>
      <point x="532" y="962"/>
      <point x="440" y="962" type="curve"/>
      <point x="225" y="962"/>
      <point x="70" y="853"/>
      <point x="70" y="682" type="curve" smooth="yes"/>
      <point x="70" y="560"/>
      <point x="160" y="493"/>
      <point x="328" y="416" type="curve" smooth="yes"/>
      <point x="470" y="351"/>
      <point x="527" y="312"/>
      <point x="527" y="244" type="curve" smooth="yes"/>
      <point x="527" y="202"/>
      <point x="494" y="126"/>
      <point x="369" y="126" type="curve" smooth="yes"/>
      <point x="310" y="126"/>
      <point x="202" y="167"/>
      <point x="197" y="179" type="curve"/>
      <point x="190" y="230"/>
      <point x="179" y="312"/>
      <point x="175" y="348" type="curve"/>
      <point x="59" y="348" type="line"/>
      <point x="59" y="68" type="line"/>
      <point x="122" y="46"/>
      <point x="255" y="17"/>
      <point x="387" y="17" type="curve" smooth="yes"/>
      <point x="570" y="17"/>
      <point x="763" y="95"/>
    </contour>
  </outline>
</glyph>
<glyph name="t" format="2">
  <advance width="691"/>
  <unicode hex="0074"/>
  <outline>
    <contour>
      <point x="684" y="80" type="curve"/>
      <point x="684" y="172" type="line"/>
      <point x="658" y="167"/>
      <point x="607" y="160"/>
      <point x="564" y="160" type="curve" smooth="yes"/>
      <point x="466" y="160"/>
      <point x="413" y="202"/>
      <point x="413" y="320" type="curve" smooth="yes"/>
      <point x="413" y="821" type="line"/>
      <point x="669" y="821" type="line"/>
      <point x="669" y="939" type="line"/>
      <point x="413" y="939" type="line"/>
      <point x="413" y="1176" type="line"/>
      <point x="285" y="1176" type="line"/>
      <point x="186" y="980" type="line"/>
      <point x="44" y="895" type="line"/>
      <point x="44" y="821" type="line"/>
      <point x="166" y="821" type="line"/>
      <point x="166" y="244" type="line" smooth="yes"/>
      <point x="166" y="89"/>
      <point x="225" y="17"/>
      <point x="389" y="17" type="curve" smooth="yes"/>
      <point x="498" y="17"/>
      <point x="621" y="53"/>
    </contour>
  </outline>
</glyph>
<glyph name="u" format="1">
  <advance width="1143"/>
  <unicode hex="0075"/>
  <outline>
    <contour>
      <point x="1101" y="40" type="line"/>
      <point x="1101" y="126" type="line"/>
      <point x="1020" y="132" type="line" smooth="yes"/>
      <point x="997" y="134"/>
      <point x="976" y="152"/>
      <point x="976" y="175" type="curve" smooth="yes"/>
      <point x="976" y="962" type="line"/>
      <point x="883" y="962" type="line"/>
      <point x="614" y="870" type="line"/>
      <point x="614" y="794" type="line"/>
      <point x="730" y="794" type="line"/>
      <point x="730" y="217" type="line"/>
      <point x="730" y="217"/>
      <point x="660" y="186"/>
      <point x="582" y="186" type="curve" smooth="yes"/>
      <point x="426" y="186"/>
      <point x="413" y="300"/>
      <point x="413" y="390" type="curve" smooth="yes"/>
      <point x="413" y="962" type="line"/>
      <point x="317" y="962" type="line"/>
      <point x="46" y="870" type="line"/>
      <point x="46" y="794" type="line"/>
      <point x="166" y="794" type="line"/>
      <point x="166" y="318" type="line" smooth="yes"/>
      <point x="166" y="130"/>
      <point x="229" y="17"/>
      <point x="438" y="17" type="curve" smooth="yes"/>
      <point x="573" y="17"/>
      <point x="730" y="142"/>
      <point x="730" y="142" type="curve"/>
      <point x="730" y="40" type="line"/>
    </contour>
  </outline>
</glyph>
<glyph name="v" format="2">
  <advance width="1043"/>
  <unicode hex="0076"/>
  <outline>
    <contour>
      <point x="1027" y="853" type="line"/>
      <point x="1027" y="939" type="line"/>
      <point x="669" y="939" type="line"/>
      <point x="669" y="853" type="line"/>
      <point x="746" y="847" type="line" smooth="yes"/>
      <point x="763" y="846"/>
      <point x="776" y="832"/>
      <point x="776" y="817" type="curve" smooth="yes"/>
      <point x="776" y="813"/>
      <point x="775" y="810"/>
      <point x="774" y="807" type="curve" smooth="yes"/>
      <point x="573" y="296" type="line"/>
      <point x="392" y="807" type="line" smooth="yes"/>
      <point x="391" y="811"/>
      <point x="390" y="815"/>
      <point x="390" y="819" type="curve" smooth="yes"/>
      <point x="390" y="834"/>
      <point x="401" y="846"/>
      <point x="418" y="847" type="curve" smooth="yes"/>
      <point x="503" y="853" type="line"/>
      <point x="503" y="939" type="line"/>
      <point x="18" y="939" type="line"/>
      <point x="18" y="853" type="line"/>
      <point x="127" y="842" type="line"/>
      <point x="422" y="40" type="line"/>
      <point x="605" y="40" type="line"/>
      <point x="922" y="840" type="line"/>
    </contour>
  </outline>
</glyph>
<glyph name="w" format="2">
  <advance width="1550"/>
  <unicode hex="0077"/>
  <outline>
    <contour>
      <point x="1534" y="853" type="line"/>
      <point x="1534" y="939" type="line"/>
      <point x="1180" y="939" type="line"/>
      <point x="1180" y="853" type="line"/>
      <point x="1261" y="847" type="line" smooth="yes"/>
      <point x="1281" y="845"/>
      <point x="1292" y="825"/>
      <point x="1287" y="807" type="curve" smooth="yes"/>
      <point x="1134" y="296" type="line"/>
      <point x="936" y="939" type="line"/>
      <point x="733" y="939" type="line"/>
      <point x="527" y="300" type="line"/>
      <point x="383" y="807" type="line"/>
      <point x="378" y="827"/>
      <point x="391" y="845"/>
      <point x="411" y="847" type="curve" smooth="yes"/>
      <point x="490" y="853" type="line"/>
      <point x="490" y="939" type="line"/>
      <point x="18" y="939" type="line"/>
      <point x="18" y="853" type="line"/>
      <point x="127" y="842" type="line"/>
      <point x="365" y="40" type="line"/>
      <point x="566" y="40" type="line"/>
      <point x="778" y="694" type="line"/>
      <point x="978" y="40" type="line"/>
      <point x="1183" y="40" type="line"/>
      <point x="1430" y="840" type="line"/>
    </contour>
  </outline>
</glyph>
<glyph name="x" format="2">
  <advance width="1006"/>
  <unicode hex="0078"/>
  <outline>
    <contour>
      <point x="990" y="40" type="line"/>
      <point x="990" y="126" type="line"/>
      <point x="892" y="142" type="line"/>
      <point x="608" y="538" type="line"/>
      <point x="853" y="840" type="line"/>
      <point x="957" y="853" type="line"/>
      <point x="957" y="939" type="line"/>
      <point x="614" y="939" type="line"/>
      <point x="614" y="853" type="line"/>
      <point x="673" y="847" type="line" smooth="yes"/>
      <point x="691" y="845"/>
      <point x="695" y="827"/>
      <point x="686" y="814" type="curve"/>
      <point x="538" y="636" type="line"/>
      <point x="409" y="814" type="line"/>
      <point x="398" y="827"/>
      <point x="401" y="845"/>
      <point x="422" y="847" type="curve" smooth="yes"/>
      <point x="475" y="853" type="line"/>
      <point x="475" y="939" type="line"/>
      <point x="22" y="939" type="line"/>
      <point x="22" y="853" type="line"/>
      <point x="120" y="840" type="line"/>
      <point x="392" y="460" type="line"/>
      <point x="129" y="142" type="line"/>
      <point x="18" y="126" type="line"/>
      <point x="18" y="40" type="line"/>
      <point x="378" y="40" type="line"/>
      <point x="378" y="126" type="line"/>
      <point x="313" y="134" type="line"/>
      <point x="295" y="135"/>
      <point x="290" y="152"/>
      <point x="301" y="165" type="curve" smooth="yes"/>
      <point x="463" y="364" type="line"/>
      <point x="608" y="165" type="line"/>
      <point x="617" y="151"/>
      <point x="612" y="135"/>
      <point x="593" y="134" type="curve"/>
      <point x="522" y="126" type="line"/>
      <point x="522" y="40" type="line"/>
    </contour>
  </outline>
</glyph>
<glyph name="y" format="2">
  <advance width="1043"/>
  <unicode hex="0079"/>
  <outline>
    <contour>
      <point x="1027" y="853" type="line"/>
      <point x="1027" y="939" type="line"/>
      <point x="667" y="939" type="line"/>
      <point x="667" y="853" type="line"/>
      <point x="748" y="847" type="line" smooth="yes"/>
      <point x="769" y="845"/>
      <point x="783" y="825"/>
      <point x="776" y="807" type="curve" smooth="yes"/>
      <point x="580" y="333" type="line"/>
      <point x="391" y="807" type="line" smooth="yes"/>
      <point x="383" y="827"/>
      <point x="396" y="845"/>
      <point x="418" y="847" type="curve" smooth="yes"/>
      <point x="503" y="853" type="line"/>
      <point x="503" y="939" type="line"/>
      <point x="18" y="939" type="line"/>
      <point x="18" y="853" type="line"/>
      <point x="127" y="842" type="line"/>
      <point x="455" y="24" type="line"/>
      <point x="438" y="-39"/>
      <point x="385" y="-159"/>
      <point x="319" y="-222" type="curve"/>
      <point x="162" y="-102" type="line"/>
      <point x="109" y="-126"/>
      <point x="55" y="-170"/>
      <point x="55" y="-238" type="curve" smooth="yes"/>
      <point x="53" y="-327"/>
      <point x="146" y="-386"/>
      <point x="218" y="-386" type="curve" smooth="yes"/>
      <point x="290" y="-386"/>
      <point x="350" y="-354"/>
      <point x="401" y="-305" type="curve" smooth="yes"/>
      <point x="501" y="-211"/>
      <point x="564" y="-52"/>
      <point x="610" y="58" type="curve" smooth="yes"/>
      <point x="929" y="840" type="line"/>
    </contour>
  </outline>
</glyph>
<glyph name="z" format="2">
  <advance width="905"/>
  <unicode hex="007A"/>
  <outline>
    <contour>
      <point x="846" y="40" type="line"/>
      <point x="846" y="350" type="line"/>
      <point x="719" y="350" type="line"/>
      <point x="695" y="193" type="line"/>
      <point x="691" y="175"/>
      <point x="670" y="149"/>
      <point x="654" y="149" type="curve" smooth="yes"/>
      <point x="337" y="149" type="line"/>
      <point x="820" y="836" type="line"/>
      <point x="820" y="939" type="line"/>
      <point x="74" y="939" type="line"/>
      <point x="74" y="654" type="line"/>
      <point x="204" y="654" type="line"/>
      <point x="218" y="796" type="line"/>
      <point x="218" y="812"/>
      <point x="234" y="835"/>
      <point x="253" y="835" type="curve" smooth="yes"/>
      <point x="531" y="835" type="line"/>
      <point x="59" y="160" type="line"/>
      <point x="59" y="40" type="line"/>
    </contour>
  </outline>
</glyph>
<glyph name="braceleft" format="2">
  <advance width="1014"/>
  <unicode hex="007B"/>
  <outline>
    <contour>
      <point x="864" y="-137" type="line"/>
      <point x="808" y="-140"/>
      <point x="716" y="-127"/>
      <point x="670" y="-82" type="curve" smooth="yes"/>
      <point x="547" y="39"/>
      <point x="692" y="346"/>
      <point x="524" y="506" type="curve" smooth="yes"/>
      <point x="454" y="573"/>
      <point x="357" y="597"/>
      <point x="303" y="598" type="curve"/>
      <point x="357" y="598"/>
      <point x="454" y="621"/>
      <point x="524" y="688" type="curve" smooth="yes"/>
      <point x="691" y="846"/>
      <point x="547" y="1157"/>
      <point x="670" y="1278" type="curve" smooth="yes"/>
      <point x="716" y="1323"/>
      <point x="798" y="1333"/>
      <point x="864" y="1333" type="curve"/>
      <point x="864" y="1446" type="line"/>
      <point x="757" y="1446"/>
      <point x="552" y="1444"/>
      <point x="459" y="1362" type="curve" smooth="yes"/>
      <point x="272" y="1196"/>
      <point x="428" y="836"/>
      <point x="309" y="715" type="curve" smooth="yes"/>
      <point x="251" y="657"/>
      <point x="146" y="649"/>
      <point x="84" y="659" type="curve"/>
      <point x="84" y="537" type="line"/>
      <point x="146" y="546"/>
      <point x="251" y="537"/>
      <point x="309" y="479" type="curve" smooth="yes"/>
      <point x="428" y="358"/>
      <point x="272" y="0"/>
      <point x="459" y="-166" type="curve" smooth="yes"/>
      <point x="547" y="-244"/>
      <point x="747" y="-250"/>
      <point x="864" y="-250" type="curve"/>
    </contour>
  </outline>
</glyph>
<glyph name="bar" format="1">
  <advance width="922"/>
  <unicode hex="007C"/>
  <outline>
    <contour>
      <point x="545" y="-395" type="line"/>
      <point x="545" y="1448" type="line"/>
      <point x="376" y="1448" type="line"/>
      <point x="376" y="-395" type="line"/>
    </contour>
  </outline>
</glyph>
<glyph name="braceright" format="2">
  <advance width="1014"/>
  <unicode hex="007D"/>
  <outline>
    <contour>
      <point x="150" y="1446" type="curve"/>
      <point x="150" y="1333" type="line"/>
      <point x="231" y="1333"/>
      <point x="305" y="1319"/>
      <point x="344" y="1278" type="curve" smooth="yes"/>
      <point x="369" y="1251"/>
      <point x="391" y="1205"/>
      <point x="395" y="1164" type="curve" smooth="yes"/>
      <point x="397" y="1143"/>
      <point x="400" y="1086"/>
      <point x="400" y="993" type="curve" smooth="yes"/>
      <point x="400" y="837"/>
      <point x="429" y="742"/>
      <point x="490" y="690" type="curve" smooth="yes"/>
      <point x="539" y="648"/>
      <point x="588" y="612"/>
      <point x="711" y="598" type="curve"/>
      <point x="630" y="598"/>
      <point x="537" y="557"/>
      <point x="490" y="508" type="curve" smooth="yes"/>
      <point x="422" y="437"/>
      <point x="400" y="354"/>
      <point x="400" y="218" type="curve" smooth="yes"/>
      <point x="400" y="125"/>
      <point x="399" y="68"/>
      <point x="397" y="47" type="curve" smooth="yes"/>
      <point x="391" y="-14"/>
      <point x="369" y="-55"/>
      <point x="344" y="-82" type="curve" smooth="yes"/>
      <point x="305" y="-123"/>
      <point x="231" y="-137"/>
      <point x="150" y="-137" type="curve"/>
      <point x="150" y="-250" type="line"/>
      <point x="340" y="-250"/>
      <point x="493" y="-232"/>
      <point x="565" y="-157" type="curve" smooth="yes"/>
      <point x="620" y="-100"/>
      <point x="637" y="-39"/>
      <point x="648" y="30" type="curve" smooth="yes"/>
      <point x="654" y="70"/>
      <point x="655" y="128"/>
      <point x="655" y="227" type="curve" smooth="yes"/>
      <point x="655" y="384"/>
      <point x="664" y="441"/>
      <point x="705" y="481" type="curve" smooth="yes"/>
      <point x="747" y="522"/>
      <point x="813" y="541"/>
      <point x="880" y="541" type="curve" smooth="yes"/>
      <point x="896" y="541"/>
      <point x="913" y="539"/>
      <point x="930" y="537" type="curve"/>
      <point x="930" y="659" type="line"/>
      <point x="914" y="657"/>
      <point x="899" y="656"/>
      <point x="884" y="656" type="curve" smooth="yes"/>
      <point x="800" y="656"/>
      <point x="736" y="685"/>
      <point x="705" y="717" type="curve" smooth="yes"/>
      <point x="663" y="761"/>
      <point x="655" y="842"/>
      <point x="655" y="939" type="curve" smooth="yes"/>
      <point x="655" y="1098"/>
      <point x="649" y="1163"/>
      <point x="644" y="1196" type="curve" smooth="yes"/>
      <point x="633" y="1265"/>
      <point x="595" y="1323"/>
      <point x="555" y="1362" type="curve" smooth="yes"/>
      <point x="495" y="1420"/>
      <point x="340" y="1446"/>
    </contour>
  </outline>
</glyph>
<glyph name="asciitilde" format="2">
  <advance width="1535"/>
  <unicode hex="007E"/>
  <outline>
    <contour>
      <point x="1377" y="768" type="line"/>
      <point x="1201" y="638"/>
      <point x="1102" y="604"/>
      <point x="1023" y="604" type="curve" smooth="yes"/>
      <point x="986" y="604"/>
      <point x="948" y="611"/>
      <point x="909" y="622" type="curve" smooth="yes"/>
      <point x="779" y="659"/>
      <point x="656" y="728"/>
      <point x="517" y="728" type="curve" smooth="yes"/>
      <point x="418" y="728"/>
      <point x="297" y="691"/>
      <point x="158" y="585" type="curve"/>
      <point x="158" y="411" type="line"/>
      <point x="311" y="527"/>
      <point x="422" y="576"/>
      <point x="507" y="576" type="curve" smooth="yes"/>
      <point x="688" y="576"/>
      <point x="842" y="453"/>
      <point x="1021" y="453" type="curve" smooth="yes"/>
      <point x="1126" y="453"/>
      <point x="1228" y="486"/>
      <point x="1377" y="593" type="curve"/>
    </contour>
  </outline>
</glyph>
<glyph name="exclamdown" format="2">
  <advance width="626"/>
  <unicode hex="00A1"/>
  <outline>
    <contour>
      <point x="461" y="799" type="curve" smooth="yes"/>
      <point x="461" y="908"/>
      <point x="373" y="950"/>
      <point x="311" y="950" type="curve" smooth="yes"/>
      <point x="232" y="950"/>
      <point x="164" y="884"/>
      <point x="164" y="799" type="curve" smooth="yes"/>
      <point x="164" y="709"/>
      <point x="243" y="653"/>
      <point x="311" y="653" type="curve" smooth="yes"/>
      <point x="382" y="653"/>
      <point x="461" y="704"/>
    </contour>
    <contour>
      <point x="463" y="-189" type="curve"/>
      <point x="361" y="544" type="line"/>
      <point x="262" y="544" type="line"/>
      <point x="162" y="-189" type="line"/>
      <point x="162" y="-292"/>
      <point x="230" y="-339"/>
      <point x="311" y="-339" type="curve" smooth="yes"/>
      <point x="394" y="-339"/>
      <point x="463" y="-290"/>
    </contour>
  </outline>
</glyph>
<glyph name="cent" format="1">
  <advance width="1082"/>
  <unicode hex="00A2"/>
  <outline>
    <contour>
      <point x="960" y="89" type="curve"/>
      <point x="960" y="364" type="line"/>
      <point x="846" y="364" type="line"/>
      <point x="823" y="217" type="line"/>
      <point x="823" y="180" type="line"/>
      <point x="823" y="180"/>
      <point x="783" y="151"/>
      <point x="698" y="151" type="curve"/>
      <point x="698" y="879" type="line"/>
      <point x="746" y="879"/>
      <point x="809" y="854"/>
      <point x="826" y="842" type="curve"/>
      <point x="826" y="800" type="line"/>
      <point x="846" y="666" type="line"/>
      <point x="960" y="666" type="line"/>
      <point x="960" y="932" type="line"/>
      <point x="897" y="962"/>
      <point x="779" y="988"/>
      <point x="698" y="988" type="curve"/>
      <point x="698" y="1174" type="line"/>
      <point x="593" y="1174" type="line"/>
      <point x="593" y="984" type="line"/>
      <point x="336" y="984"/>
      <point x="121" y="784"/>
      <point x="121" y="504" type="curve" smooth="yes"/>
      <point x="121" y="244"/>
      <point x="337" y="42"/>
      <point x="593" y="42" type="curve"/>
      <point x="593" y="-150" type="line"/>
      <point x="698" y="-150" type="line"/>
      <point x="698" y="40" type="line"/>
      <point x="739" y="40"/>
      <point x="936" y="64"/>
    </contour>
    <contour>
      <point x="593" y="154" type="line"/>
      <point x="483" y="182"/>
      <point x="376" y="307"/>
      <point x="376" y="504" type="curve" smooth="yes"/>
      <point x="376" y="754"/>
      <point x="494" y="854"/>
      <point x="593" y="875" type="curve"/>
    </contour>
  </outline>
</glyph>
<glyph name="sterling" format="2">
  <advance width="1082"/>
  <unicode hex="00A3"/>
  <outline>
    <contour>
      <point x="1003" y="40" type="line"/>
      <point x="1003" y="235" type="line"/>
      <point x="433" y="235" type="line" smooth="yes"/>
      <point x="425" y="235"/>
      <point x="359" y="227"/>
      <point x="311" y="221" type="curve"/>
      <point x="485" y="337"/>
      <point x="510" y="457"/>
      <point x="510" y="587" type="curve"/>
      <point x="841" y="587" type="line"/>
      <point x="841" y="705" type="line"/>
      <point x="507" y="705" type="line"/>
      <point x="505" y="723"/>
      <point x="503" y="762"/>
      <point x="503" y="805" type="curve" smooth="yes"/>
      <point x="503" y="943"/>
      <point x="506" y="1205"/>
      <point x="719" y="1205" type="curve" smooth="yes"/>
      <point x="750" y="1205"/>
      <point x="768" y="1200"/>
      <point x="774" y="1197" type="curve"/>
      <point x="774" y="972" type="line"/>
      <point x="795" y="965"/>
      <point x="830" y="956"/>
      <point x="853" y="956" type="curve" smooth="yes"/>
      <point x="929" y="956"/>
      <point x="1003" y="1000"/>
      <point x="1003" y="1085" type="curve" smooth="yes"/>
      <point x="1003" y="1241"/>
      <point x="816" y="1306"/>
      <point x="686" y="1306" type="curve" smooth="yes"/>
      <point x="385" y="1306"/>
      <point x="258" y="1087"/>
      <point x="258" y="798" type="curve" smooth="yes"/>
      <point x="258" y="771"/>
      <point x="262" y="729"/>
      <point x="265" y="705" type="curve"/>
      <point x="139" y="705" type="line"/>
      <point x="139" y="587" type="line"/>
      <point x="269" y="587" type="line"/>
      <point x="269" y="506" type="line" smooth="yes"/>
      <point x="269" y="284"/>
      <point x="211" y="203"/>
      <point x="77" y="180" type="curve"/>
      <point x="77" y="40" type="line"/>
    </contour>
  </outline>
</glyph>
<glyph name="currency" format="2">
  <advance width="1117"/>
  <unicode hex="00A4"/>
  <outline>
    <contour>
      <point x="1039" y="418" type="line"/>
      <point x="853" y="604" type="line"/>
      <point x="905" y="668"/>
      <point x="934" y="749"/>
      <point x="934" y="838" type="curve" smooth="yes"/>
      <point x="934" y="925"/>
      <point x="907" y="1004"/>
      <point x="857" y="1067" type="curve"/>
      <point x="1039" y="1251" type="line"/>
      <point x="975" y="1315" type="line"/>
      <point x="791" y="1133" type="line"/>
      <point x="726" y="1183"/>
      <point x="647" y="1213"/>
      <point x="561" y="1213" type="curve" smooth="yes"/>
      <point x="472" y="1213"/>
      <point x="391" y="1183"/>
      <point x="326" y="1131" type="curve"/>
      <point x="144" y="1315" type="line"/>
      <point x="77" y="1251" type="line"/>
      <point x="262" y="1067" type="line"/>
      <point x="214" y="1004"/>
      <point x="184" y="925"/>
      <point x="184" y="838" type="curve" smooth="yes"/>
      <point x="184" y="752"/>
      <point x="216" y="670"/>
      <point x="265" y="606" type="curve"/>
      <point x="77" y="420" type="line"/>
      <point x="144" y="353" type="line"/>
      <point x="330" y="539" type="line"/>
      <point x="392" y="490"/>
      <point x="473" y="462"/>
      <point x="561" y="462" type="curve" smooth="yes"/>
      <point x="647" y="462"/>
      <point x="726" y="492"/>
      <point x="789" y="539" type="curve"/>
      <point x="975" y="353" type="line"/>
    </contour>
    <contour>
      <point x="842" y="838" type="curve" smooth="yes"/>
      <point x="842" y="682"/>
      <point x="717" y="554"/>
      <point x="561" y="554" type="curve" smooth="yes"/>
      <point x="404" y="554"/>
      <point x="276" y="682"/>
      <point x="276" y="838" type="curve" smooth="yes"/>
      <point x="276" y="995"/>
      <point x="404" y="1120"/>
      <point x="561" y="1120" type="curve" smooth="yes"/>
      <point x="717" y="1120"/>
      <point x="842" y="995"/>
    </contour>
  </outline>
</glyph>
<glyph name="yen" format="2">
  <advance width="1170"/>
  <unicode hex="00A5"/>
  <outline>
    <contour>
      <point x="1157" y="1183" type="line"/>
      <point x="1157" y="1277" type="line"/>
      <point x="763" y="1277" type="line"/>
      <point x="763" y="1185" type="line"/>
      <point x="853" y="1166" type="line" smooth="yes"/>
      <point x="886" y="1159"/>
      <point x="885" y="1137"/>
      <point x="877" y="1125" type="curve" smooth="yes"/>
      <point x="642" y="692" type="line"/>
      <point x="411" y="1135" type="line" smooth="yes"/>
      <point x="401" y="1153"/>
      <point x="417" y="1174"/>
      <point x="435" y="1176" type="curve" smooth="yes"/>
      <point x="520" y="1183" type="line"/>
      <point x="520" y="1277" type="line"/>
      <point x="13" y="1277" type="line"/>
      <point x="13" y="1183" type="line"/>
      <point x="125" y="1164" type="line"/>
      <point x="295" y="835" type="line"/>
      <point x="70" y="835" type="line"/>
      <point x="70" y="738" type="line"/>
      <point x="354" y="738" type="line"/>
      <point x="443" y="566" type="line"/>
      <point x="70" y="566" type="line"/>
      <point x="70" y="471" type="line"/>
      <point x="464" y="471" type="line"/>
      <point x="464" y="186" type="line" smooth="yes"/>
      <point x="464" y="172"/>
      <point x="452" y="149"/>
      <point x="418" y="145" type="curve" smooth="yes"/>
      <point x="308" y="135" type="line"/>
      <point x="308" y="40" type="line"/>
      <point x="879" y="40" type="line"/>
      <point x="879" y="135" type="line"/>
      <point x="770" y="145" type="line" smooth="yes"/>
      <point x="737" y="149"/>
      <point x="723" y="172"/>
      <point x="723" y="186" type="curve" smooth="yes"/>
      <point x="723" y="471" type="line"/>
      <point x="1110" y="471" type="line"/>
      <point x="1110" y="566" type="line"/>
      <point x="717" y="566" type="line"/>
      <point x="813" y="738" type="line"/>
      <point x="1110" y="738" type="line"/>
      <point x="1110" y="835" type="line"/>
      <point x="870" y="835" type="line"/>
      <point x="1052" y="1162" type="line"/>
    </contour>
  </outline>
</glyph>
<glyph name="section" format="2">
  <advance width="922"/>
  <unicode hex="00A7"/>
  <outline>
    <contour>
      <point x="844" y="604" type="curve" smooth="yes"/>
      <point x="844" y="934"/>
      <point x="328" y="932"/>
      <point x="328" y="1124" type="curve" smooth="yes"/>
      <point x="328" y="1219"/>
      <point x="414" y="1268"/>
      <point x="496" y="1268" type="curve" smooth="yes"/>
      <point x="572" y="1268"/>
      <point x="638" y="1240"/>
      <point x="666" y="1219" type="curve"/>
      <point x="686" y="1067" type="line"/>
      <point x="786" y="1067" type="line"/>
      <point x="786" y="1321" type="line"/>
      <point x="734" y="1340"/>
      <point x="618" y="1366"/>
      <point x="489" y="1366" type="curve" smooth="yes"/>
      <point x="293" y="1366"/>
      <point x="115" y="1282"/>
      <point x="115" y="1100" type="curve" smooth="yes"/>
      <point x="115" y="974"/>
      <point x="193" y="911"/>
      <point x="293" y="856" type="curve"/>
      <point x="238" y="832"/>
      <point x="78" y="758"/>
      <point x="78" y="567" type="curve" smooth="yes"/>
      <point x="78" y="215"/>
      <point x="600" y="238"/>
      <point x="600" y="23" type="curve" smooth="yes"/>
      <point x="600" y="-63"/>
      <point x="520" y="-121"/>
      <point x="426" y="-121" type="curve" smooth="yes"/>
      <point x="387" y="-121"/>
      <point x="303" y="-109"/>
      <point x="256" y="-78" type="curve"/>
      <point x="231" y="92" type="line"/>
      <point x="121" y="92" type="line"/>
      <point x="121" y="-164" type="line"/>
      <point x="176" y="-189"/>
      <point x="296" y="-223"/>
      <point x="424" y="-223" type="curve" smooth="yes"/>
      <point x="604" y="-223"/>
      <point x="807" y="-150"/>
      <point x="807" y="63" type="curve" smooth="yes"/>
      <point x="807" y="185"/>
      <point x="719" y="251"/>
      <point x="621" y="303" type="curve"/>
      <point x="723" y="349"/>
      <point x="844" y="433"/>
    </contour>
    <contour>
      <point x="676" y="541" type="curve" smooth="yes"/>
      <point x="676" y="450"/>
      <point x="576" y="384"/>
      <point x="526" y="358" type="curve"/>
      <point x="335" y="441"/>
      <point x="242" y="513"/>
      <point x="242" y="627" type="curve" smooth="yes"/>
      <point x="242" y="722"/>
      <point x="315" y="776"/>
      <point x="393" y="801" type="curve"/>
      <point x="567" y="729"/>
      <point x="676" y="649"/>
    </contour>
  </outline>
</glyph>
<glyph name="dieresis" format="1">
  <advance width="642"/>
  <unicode hex="00A8"/>
  <outline>
    <contour>
      <point x="642" y="1245" type="curve" smooth="yes"/>
      <point x="642" y="1315"/>
      <point x="584" y="1373"/>
      <point x="514" y="1373" type="curve" smooth="yes"/>
      <point x="445" y="1373"/>
      <point x="387" y="1315"/>
      <point x="387" y="1245" type="curve" smooth="yes"/>
      <point x="387" y="1176"/>
      <point x="445" y="1118"/>
      <point x="514" y="1118" type="curve" smooth="yes"/>
      <point x="584" y="1118"/>
      <point x="642" y="1176"/>
    </contour>
    <contour>
      <point x="255" y="1245" type="curve" smooth="yes"/>
      <point x="255" y="1315"/>
      <point x="197" y="1373"/>
      <point x="127" y="1373" type="curve" smooth="yes"/>
      <point x="57" y="1373"/>
      <point x="0" y="1315"/>
      <point x="0" y="1245" type="curve" smooth="yes"/>
      <point x="0" y="1176"/>
      <point x="57" y="1118"/>
      <point x="127" y="1118" type="curve" smooth="yes"/>
      <point x="197" y="1118"/>
      <point x="255" y="1176"/>
    </contour>
  </outline>
</glyph>
<glyph name="copyright" format="2">
  <advance width="1543"/>
  <unicode hex="00A9"/>
  <outline>
    <contour>
      <point x="1084" y="296" type="curve"/>
      <point x="1084" y="527" type="line"/>
      <point x="981" y="527" type="line"/>
      <point x="955" y="368" type="line"/>
      <point x="955" y="368"/>
      <point x="911" y="342"/>
      <point x="844" y="342" type="curve" smooth="yes"/>
      <point x="679" y="342"/>
      <point x="579" y="488"/>
      <point x="579" y="682" type="curve" smooth="yes"/>
      <point x="579" y="842"/>
      <point x="654" y="1026"/>
      <point x="850" y="1026" type="curve" smooth="yes"/>
      <point x="922" y="1026"/>
      <point x="955" y="993"/>
      <point x="955" y="993" type="curve"/>
      <point x="981" y="845" type="line"/>
      <point x="1084" y="845" type="line"/>
      <point x="1084" y="1069" type="line"/>
      <point x="1084" y="1069"/>
      <point x="990" y="1118"/>
      <point x="823" y="1118" type="curve" smooth="yes"/>
      <point x="540" y="1118"/>
      <point x="369" y="923"/>
      <point x="369" y="685" type="curve" smooth="yes"/>
      <point x="369" y="411"/>
      <point x="556" y="250"/>
      <point x="816" y="250" type="curve" smooth="yes"/>
      <point x="975" y="250"/>
      <point x="1084" y="296"/>
    </contour>
    <contour>
      <point x="1486" y="685" type="curve" smooth="yes"/>
      <point x="1486" y="1081"/>
      <point x="1163" y="1402"/>
      <point x="772" y="1402" type="curve" smooth="yes"/>
      <point x="378" y="1402"/>
      <point x="59" y="1079"/>
      <point x="59" y="685" type="curve" smooth="yes"/>
      <point x="59" y="288"/>
      <point x="380" y="-32"/>
      <point x="769" y="-32" type="curve" smooth="yes"/>
      <point x="1165" y="-32"/>
      <point x="1486" y="288"/>
    </contour>
    <contour>
      <point x="1397" y="685" type="curve" smooth="yes"/>
      <point x="1397" y="341"/>
      <point x="1117" y="54"/>
      <point x="770" y="54" type="curve" smooth="yes"/>
      <point x="426" y="54"/>
      <point x="148" y="339"/>
      <point x="148" y="682" type="curve" smooth="yes"/>
      <point x="148" y="1037"/>
      <point x="431" y="1315"/>
      <point x="772" y="1315" type="curve" smooth="yes"/>
      <point x="1117" y="1315"/>
      <point x="1397" y="1034"/>
    </contour>
  </outline>
</glyph>
<glyph name="ordfeminine" format="1">
  <advance width="661"/>
  <unicode hex="00AA"/>
  <outline>
    <contour>
      <point x="643" y="746" type="line"/>
      <point x="643" y="798" type="line"/>
      <point x="589" y="801" type="line" smooth="yes"/>
      <point x="575" y="801"/>
      <point x="564" y="812"/>
      <point x="564" y="827" type="curve" smooth="yes"/>
      <point x="564" y="1111" type="line" smooth="yes"/>
      <point x="564" y="1269"/>
      <point x="470" y="1299"/>
      <point x="332" y="1299" type="curve" smooth="yes"/>
      <point x="204" y="1299"/>
      <point x="65" y="1249"/>
      <point x="65" y="1168" type="curve" smooth="yes"/>
      <point x="65" y="1122"/>
      <point x="118" y="1127"/>
      <point x="118" y="1127" type="curve"/>
      <point x="241" y="1127" type="line"/>
      <point x="241" y="1232" type="line"/>
      <point x="241" y="1232"/>
      <point x="262" y="1236"/>
      <point x="293" y="1236" type="curve" smooth="yes"/>
      <point x="391" y="1236"/>
      <point x="408" y="1176"/>
      <point x="406" y="1133" type="curve"/>
      <point x="406" y="1133"/>
      <point x="406" y="1107"/>
      <point x="406" y="1090" type="curve"/>
      <point x="76" y="1025"/>
      <point x="39" y="974"/>
      <point x="39" y="875" type="curve" smooth="yes"/>
      <point x="39" y="786"/>
      <point x="109" y="733"/>
      <point x="193" y="733" type="curve" smooth="yes"/>
      <point x="301" y="733"/>
      <point x="404" y="801"/>
      <point x="404" y="801" type="curve"/>
      <point x="418" y="746" type="line"/>
    </contour>
    <contour>
      <point x="404" y="847" type="line"/>
      <point x="404" y="847"/>
      <point x="345" y="825"/>
      <point x="293" y="825" type="curve" smooth="yes"/>
      <point x="243" y="825"/>
      <point x="208" y="860"/>
      <point x="208" y="907" type="curve" smooth="yes"/>
      <point x="208" y="972"/>
      <point x="248" y="1002"/>
      <point x="404" y="1032" type="curve"/>
    </contour>
    <contour>
      <point x="632" y="584" type="line"/>
      <point x="632" y="656" type="line"/>
      <point x="57" y="656" type="line"/>
      <point x="57" y="584" type="line"/>
    </contour>
  </outline>
</glyph>
<glyph name="guillemotleft" format="1">
  <advance width="828"/>
  <unicode hex="00AB"/>
  <outline>
    <contour>
      <point x="754" y="134" type="line"/>
      <point x="754" y="298" type="line"/>
      <point x="559" y="483" type="line"/>
      <point x="754" y="666" type="line"/>
      <point x="754" y="831" type="line"/>
      <point x="429" y="562" type="line"/>
      <point x="429" y="405" type="line"/>
    </contour>
    <contour>
      <point x="392" y="134" type="line"/>
      <point x="392" y="296" type="line"/>
      <point x="199" y="483" type="line"/>
      <point x="392" y="666" type="line"/>
      <point x="392" y="831" type="line"/>
      <point x="70" y="562" type="line"/>
      <point x="70" y="405" type="line"/>
    </contour>
  </outline>
</glyph>
<glyph name="softhyphen" format="2">
  <advance width="605"/>
  <unicode hex="00AD"/>
  <outline>
    <contour>
      <point x="544" y="582" type="line"/>
      <point x="61" y="582" type="line"/>
      <point x="61" y="386" type="line"/>
      <point x="544" y="386" type="line"/>
    </contour>
  </outline>
</glyph>
<glyph name="RegisteredSgn" format="2">
  <advance width="1543"/>
  <unicode hex="00AE"/>
  <outline>
    <contour>
      <point x="1486" y="685" type="curve" smooth="yes"/>
      <point x="1486" y="1081"/>
      <point x="1163" y="1402"/>
      <point x="772" y="1402" type="curve" smooth="yes"/>
      <point x="378" y="1402"/>
      <point x="59" y="1079"/>
      <point x="59" y="685" type="curve" smooth="yes"/>
      <point x="59" y="288"/>
      <point x="380" y="-32"/>
      <point x="769" y="-32" type="curve" smooth="yes"/>
      <point x="1165" y="-32"/>
      <point x="1486" y="288"/>
    </contour>
    <contour>
      <point x="1397" y="685" type="curve" smooth="yes"/>
      <point x="1397" y="341"/>
      <point x="1117" y="54"/>
      <point x="770" y="54" type="curve" smooth="yes"/>
      <point x="426" y="54"/>
      <point x="148" y="339"/>
      <point x="148" y="682" type="curve" smooth="yes"/>
      <point x="148" y="1037"/>
      <point x="431" y="1315"/>
      <point x="772" y="1315" type="curve" smooth="yes"/>
      <point x="1117" y="1315"/>
      <point x="1397" y="1034"/>
    </contour>
    <contour>
      <point x="1203" y="302" type="curve"/>
      <point x="1203" y="362" type="line"/>
      <point x="946" y="332"/>
      <point x="1113" y="643"/>
      <point x="842" y="698" type="curve"/>
      <point x="907" y="707"/>
      <point x="1057" y="746"/>
      <point x="1057" y="908" type="curve" smooth="yes"/>
      <point x="1057" y="1079"/>
      <point x="879" y="1109"/>
      <point x="791" y="1109" type="curve" smooth="yes"/>
      <point x="382" y="1109" type="line"/>
      <point x="382" y="1048" type="line"/>
      <point x="446" y="1041" type="line"/>
      <point x="459" y="1039"/>
      <point x="473" y="1030"/>
      <point x="473" y="1015" type="curve" smooth="yes"/>
      <point x="473" y="395" type="line" smooth="yes"/>
      <point x="473" y="379"/>
      <point x="459" y="368"/>
      <point x="446" y="368" type="curve"/>
      <point x="382" y="362" type="line"/>
      <point x="382" y="302" type="line"/>
      <point x="746" y="302" type="line"/>
      <point x="746" y="362" type="line"/>
      <point x="679" y="368" type="line"/>
      <point x="663" y="368"/>
      <point x="651" y="379"/>
      <point x="651" y="395" type="curve" smooth="yes"/>
      <point x="651" y="656" type="line"/>
      <point x="663" y="656"/>
      <point x="665" y="654"/>
      <point x="675" y="654" type="curve" smooth="yes"/>
      <point x="916" y="654"/>
      <point x="769" y="295"/>
      <point x="1089" y="295" type="curve" smooth="yes"/>
      <point x="1119" y="295"/>
      <point x="1148" y="295"/>
    </contour>
    <contour>
      <point x="872" y="866" type="curve" smooth="yes"/>
      <point x="872" y="729"/>
      <point x="765" y="705"/>
      <point x="691" y="705" type="curve" smooth="yes"/>
      <point x="684" y="705"/>
      <point x="670" y="705"/>
      <point x="651" y="707" type="curve"/>
      <point x="651" y="1016" type="line"/>
      <point x="665" y="1016"/>
      <point x="681" y="1016"/>
      <point x="689" y="1016" type="curve"/>
      <point x="807" y="1016"/>
      <point x="872" y="967"/>
    </contour>
  </outline>
</glyph>
<glyph name="macron" format="2">
  <advance width="626"/>
  <unicode hex="00AF"/>
  <outline>
    <contour>
      <point x="626" y="1118" type="line"/>
      <point x="626" y="1266" type="line"/>
      <point x="0" y="1266" type="line"/>
      <point x="0" y="1118" type="line"/>
    </contour>
  </outline>
</glyph>
<glyph name="degree" format="2">
  <advance width="603"/>
  <unicode hex="00B0"/>
  <outline>
    <contour>
      <point x="535" y="1092" type="curve" smooth="yes"/>
      <point x="535" y="1222"/>
      <point x="430" y="1327"/>
      <point x="301" y="1327" type="curve" smooth="yes"/>
      <point x="174" y="1327"/>
      <point x="69" y="1222"/>
      <point x="69" y="1092" type="curve" smooth="yes"/>
      <point x="69" y="964"/>
      <point x="174" y="860"/>
      <point x="301" y="860" type="curve" smooth="yes"/>
      <point x="430" y="860"/>
      <point x="535" y="964"/>
    </contour>
    <contour>
      <point x="429" y="1092" type="curve" smooth="yes"/>
      <point x="429" y="1021"/>
      <point x="373" y="964"/>
      <point x="301" y="964" type="curve" smooth="yes"/>
      <point x="232" y="964"/>
      <point x="173" y="1021"/>
      <point x="173" y="1092" type="curve" smooth="yes"/>
      <point x="173" y="1164"/>
      <point x="232" y="1221"/>
      <point x="301" y="1221" type="curve" smooth="yes"/>
      <point x="373" y="1221"/>
      <point x="429" y="1164"/>
    </contour>
  </outline>
</glyph>
<glyph name="twosuperior" format="2">
  <advance width="698"/>
  <unicode hex="00B2"/>
  <outline>
    <contour>
      <point x="643" y="584" type="line"/>
      <point x="643" y="800" type="line"/>
      <point x="566" y="800" type="line"/>
      <point x="542" y="701" type="line"/>
      <point x="216" y="701" type="line"/>
      <point x="311" y="759"/>
      <point x="394" y="813"/>
      <point x="460" y="868" type="curve" smooth="yes"/>
      <point x="558" y="949"/>
      <point x="617" y="1031"/>
      <point x="617" y="1125" type="curve" smooth="yes"/>
      <point x="617" y="1259"/>
      <point x="503" y="1340"/>
      <point x="352" y="1340" type="curve" smooth="yes"/>
      <point x="248" y="1340"/>
      <point x="65" y="1306"/>
      <point x="65" y="1166" type="curve" smooth="yes"/>
      <point x="65" y="1116"/>
      <point x="95" y="1085"/>
      <point x="155" y="1085" type="curve" smooth="yes"/>
      <point x="183" y="1085"/>
      <point x="216" y="1097"/>
      <point x="234" y="1106" type="curve"/>
      <point x="234" y="1255" type="line"/>
      <point x="248" y="1262"/>
      <point x="267" y="1266"/>
      <point x="301" y="1266" type="curve" smooth="yes"/>
      <point x="389" y="1266"/>
      <point x="443" y="1201"/>
      <point x="443" y="1115" type="curve" smooth="yes"/>
      <point x="443" y="1037"/>
      <point x="396" y="960"/>
      <point x="319" y="882" type="curve" smooth="yes"/>
      <point x="252" y="814"/>
      <point x="161" y="746"/>
      <point x="57" y="676" type="curve"/>
      <point x="57" y="584" type="line"/>
    </contour>
  </outline>
</glyph>
<glyph name="threesuperior" format="1">
  <advance width="706"/>
  <unicode hex="00B3"/>
  <outline>
    <contour>
      <point x="645" y="798" type="curve" smooth="yes"/>
      <point x="645" y="962"/>
      <point x="443" y="976"/>
      <point x="411" y="974" type="curve" smooth="yes"/>
      <point x="445" y="978"/>
      <point x="616" y="1011"/>
      <point x="616" y="1151" type="curve" smooth="yes"/>
      <point x="616" y="1284"/>
      <point x="479" y="1340"/>
      <point x="348" y="1340" type="curve" smooth="yes"/>
      <point x="197" y="1340"/>
      <point x="79" y="1277"/>
      <point x="79" y="1185" type="curve" smooth="yes"/>
      <point x="79" y="1131"/>
      <point x="123" y="1106"/>
      <point x="174" y="1106" type="curve" smooth="yes"/>
      <point x="193" y="1106"/>
      <point x="216" y="1107"/>
      <point x="238" y="1120" type="curve"/>
      <point x="238" y="1257" type="line"/>
      <point x="238" y="1257"/>
      <point x="271" y="1266"/>
      <point x="293" y="1266" type="curve" smooth="yes"/>
      <point x="382" y="1266"/>
      <point x="440" y="1208"/>
      <point x="440" y="1139" type="curve" smooth="yes"/>
      <point x="440" y="1034"/>
      <point x="352" y="1002"/>
      <point x="264" y="1002" type="curve" smooth="yes"/>
      <point x="253" y="1002"/>
      <point x="245" y="1000"/>
      <point x="230" y="1002" type="curve"/>
      <point x="230" y="919" type="line"/>
      <point x="230" y="919"/>
      <point x="271" y="925"/>
      <point x="308" y="925" type="curve" smooth="yes"/>
      <point x="418" y="925"/>
      <point x="470" y="860"/>
      <point x="470" y="791" type="curve" smooth="yes"/>
      <point x="470" y="703"/>
      <point x="401" y="641"/>
      <point x="319" y="641" type="curve" smooth="yes"/>
      <point x="285" y="641"/>
      <point x="264" y="648"/>
      <point x="238" y="656" type="curve"/>
      <point x="199" y="781" type="line"/>
      <point x="186" y="786"/>
      <point x="169" y="792"/>
      <point x="148" y="792" type="curve" smooth="yes"/>
      <point x="111" y="792"/>
      <point x="61" y="777"/>
      <point x="61" y="715" type="curve" smooth="yes"/>
      <point x="61" y="643"/>
      <point x="151" y="573"/>
      <point x="308" y="573" type="curve" smooth="yes"/>
      <point x="487" y="573"/>
      <point x="645" y="654"/>
    </contour>
  </outline>
</glyph>
<glyph name="acute" format="1">
  <advance width="691"/>
  <unicode hex="00B4"/>
  <outline>
    <contour>
      <point x="691" y="1295" type="curve" smooth="yes"/>
      <point x="691" y="1340"/>
      <point x="663" y="1393"/>
      <point x="584" y="1393" type="curve" smooth="yes"/>
      <point x="535" y="1393"/>
      <point x="510" y="1380"/>
      <point x="468" y="1334" type="curve" smooth="yes"/>
      <point x="216" y="1055" type="line"/>
      <point x="345" y="1055" type="line"/>
      <point x="643" y="1218" type="line" smooth="yes"/>
      <point x="669" y="1232"/>
      <point x="691" y="1271"/>
    </contour>
  </outline>
</glyph>
<glyph name="mu" format="2">
  <advance width="1073"/>
  <unicode hex="00B5"/>
  <outline>
    <contour>
      <point x="1023" y="258" type="line"/>
      <point x="1004" y="165"/>
      <point x="983" y="142"/>
      <point x="948" y="142" type="curve" smooth="yes"/>
      <point x="920" y="142"/>
      <point x="907" y="200"/>
      <point x="907" y="239" type="curve" smooth="yes"/>
      <point x="907" y="939" type="line"/>
      <point x="670" y="939" type="line"/>
      <point x="670" y="270" type="line"/>
      <point x="605" y="195"/>
      <point x="566" y="152"/>
      <point x="499" y="152" type="curve" smooth="yes"/>
      <point x="464" y="152"/>
      <point x="429" y="191"/>
      <point x="413" y="230" type="curve" smooth="yes"/>
      <point x="406" y="248"/>
      <point x="398" y="285"/>
      <point x="398" y="341" type="curve" smooth="yes"/>
      <point x="398" y="939" type="line"/>
      <point x="166" y="939" type="line"/>
      <point x="166" y="161" type="line" smooth="yes"/>
      <point x="166" y="39"/>
      <point x="159" y="-35"/>
      <point x="150" y="-85" type="curve" smooth="yes"/>
      <point x="133" y="-177"/>
      <point x="107" y="-183"/>
      <point x="107" y="-259" type="curve" smooth="yes"/>
      <point x="107" y="-323"/>
      <point x="171" y="-370"/>
      <point x="227" y="-370" type="curve" smooth="yes"/>
      <point x="288" y="-370"/>
      <point x="354" y="-321"/>
      <point x="354" y="-255" type="curve" smooth="yes"/>
      <point x="354" y="-218"/>
      <point x="328" y="-156"/>
      <point x="310" y="-80" type="curve" smooth="yes"/>
      <point x="300" y="-40"/>
      <point x="293" y="3"/>
      <point x="293" y="49" type="curve" smooth="yes"/>
      <point x="293" y="89" type="line"/>
      <point x="325" y="59"/>
      <point x="390" y="17"/>
      <point x="435" y="17" type="curve" smooth="yes"/>
      <point x="545" y="17"/>
      <point x="614" y="54"/>
      <point x="688" y="165" type="curve"/>
      <point x="721" y="73"/>
      <point x="793" y="17"/>
      <point x="857" y="17" type="curve" smooth="yes"/>
      <point x="1003" y="17"/>
      <point x="1071" y="97"/>
      <point x="1082" y="258" type="curve"/>
    </contour>
  </outline>
</glyph>
<glyph name="paragraph" format="2">
  <advance width="958"/>
  <unicode hex="00B6"/>
  <outline>
    <contour>
      <point x="795" y="1155" type="line"/>
      <point x="909" y="1171" type="line"/>
      <point x="909" y="1277" type="line"/>
      <point x="503" y="1277" type="line" smooth="yes"/>
      <point x="223" y="1277"/>
      <point x="49" y="1185"/>
      <point x="49" y="905" type="curve" smooth="yes"/>
      <point x="49" y="610"/>
      <point x="255" y="536"/>
      <point x="545" y="536" type="curve"/>
      <point x="545" y="1160" type="line"/>
      <point x="660" y="1160" type="line"/>
      <point x="660" y="-106" type="line"/>
      <point x="795" y="-106" type="line"/>
    </contour>
  </outline>
</glyph>
<glyph name="periodcentered" format="1">
  <advance width="561"/>
  <unicode hex="00B7"/>
  <outline>
    <contour>
      <point x="278" y="495" type="curve" smooth="yes"/>
      <point x="367" y="495"/>
      <point x="445" y="566"/>
      <point x="445" y="657" type="curve" smooth="yes"/>
      <point x="445" y="747"/>
      <point x="369" y="821"/>
      <point x="278" y="821" type="curve" smooth="yes"/>
      <point x="188" y="821"/>
      <point x="116" y="746"/>
      <point x="116" y="657" type="curve" smooth="yes"/>
      <point x="116" y="567"/>
      <point x="190" y="495"/>
    </contour>
  </outline>
</glyph>
<glyph name="cedilla" format="2">
  <advance width="454"/>
  <unicode hex="00B8"/>
  <outline>
    <contour>
      <point x="454" y="-201" type="curve" smooth="yes"/>
      <point x="454" y="-104"/>
      <point x="383" y="-62"/>
      <point x="299" y="-62" type="curve" smooth="yes"/>
      <point x="280" y="-62"/>
      <point x="273" y="-60"/>
      <point x="273" y="-60" type="curve"/>
      <point x="273" y="40" type="line"/>
      <point x="181" y="40" type="line"/>
      <point x="181" y="-166" type="line"/>
      <point x="181" y="-166"/>
      <point x="208" y="-163"/>
      <point x="221" y="-163" type="curve" smooth="yes"/>
      <point x="264" y="-163"/>
      <point x="302" y="-181"/>
      <point x="302" y="-226" type="curve" smooth="yes"/>
      <point x="302" y="-277"/>
      <point x="241" y="-289"/>
      <point x="193" y="-289" type="curve" smooth="yes"/>
      <point x="149" y="-289"/>
      <point x="77" y="-273"/>
      <point x="77" y="-273" type="curve"/>
      <point x="77" y="-366" type="line"/>
      <point x="77" y="-366"/>
      <point x="151" y="-386"/>
      <point x="227" y="-386" type="curve" smooth="yes"/>
      <point x="357" y="-386"/>
      <point x="454" y="-321"/>
    </contour>
  </outline>
</glyph>
<glyph name="onesuperior" format="2">
  <advance width="626"/>
  <unicode hex="00B9"/>
  <outline>
    <contour>
      <point x="547" y="584" type="line"/>
      <point x="547" y="641" type="line"/>
      <point x="454" y="645" type="line"/>
      <point x="438" y="645"/>
      <point x="426" y="654"/>
      <point x="426" y="668" type="curve" smooth="yes"/>
      <point x="426" y="1336" type="line"/>
      <point x="339" y="1336" type="line"/>
      <point x="79" y="1253" type="line"/>
      <point x="79" y="1196" type="line"/>
      <point x="258" y="1218" type="line"/>
      <point x="258" y="668" type="line" smooth="yes"/>
      <point x="258" y="654"/>
      <point x="247" y="645"/>
      <point x="232" y="645" type="curve"/>
      <point x="127" y="641" type="line"/>
      <point x="127" y="584" type="line"/>
    </contour>
  </outline>
</glyph>
<glyph name="ordmasculine" format="1">
  <advance width="700"/>
  <unicode hex="00BA"/>
  <outline>
    <contour>
      <point x="661" y="1011" type="curve" smooth="yes"/>
      <point x="661" y="1181"/>
      <point x="553" y="1299"/>
      <point x="355" y="1299" type="curve" smooth="yes"/>
      <point x="169" y="1299"/>
      <point x="39" y="1194"/>
      <point x="39" y="1013" type="curve" smooth="yes"/>
      <point x="39" y="838"/>
      <point x="164" y="733"/>
      <point x="346" y="733" type="curve" smooth="yes"/>
      <point x="545" y="733"/>
      <point x="661" y="847"/>
    </contour>
    <contour>
      <point x="485" y="1013" type="curve" smooth="yes"/>
      <point x="485" y="916"/>
      <point x="461" y="794"/>
      <point x="352" y="794" type="curve" smooth="yes"/>
      <point x="239" y="794"/>
      <point x="218" y="923"/>
      <point x="218" y="1016" type="curve" smooth="yes"/>
      <point x="218" y="1113"/>
      <point x="241" y="1236"/>
      <point x="350" y="1236" type="curve" smooth="yes"/>
      <point x="459" y="1236"/>
      <point x="485" y="1107"/>
    </contour>
    <contour>
      <point x="638" y="584" type="line"/>
      <point x="638" y="656" type="line"/>
      <point x="68" y="656" type="line"/>
      <point x="68" y="584" type="line"/>
    </contour>
  </outline>
</glyph>
<glyph name="guillemotright" format="2">
  <advance width="828"/>
  <unicode hex="00BB"/>
  <outline>
    <contour>
      <point x="758" y="403" type="line"/>
      <point x="758" y="560" type="line"/>
      <point x="435" y="831" type="line"/>
      <point x="435" y="668" type="line"/>
      <point x="628" y="483" type="line"/>
      <point x="435" y="298" type="line"/>
      <point x="435" y="134" type="line"/>
    </contour>
    <contour>
      <point x="398" y="403" type="line"/>
      <point x="398" y="560" type="line"/>
      <point x="74" y="831" type="line"/>
      <point x="74" y="666" type="line"/>
      <point x="269" y="483" type="line"/>
      <point x="74" y="298" type="line"/>
      <point x="74" y="134" type="line"/>
    </contour>
  </outline>
</glyph>
<glyph name="onequarter" format="1">
  <advance width="1672"/>
  <unicode hex="00BC"/>
  <outline>
    <contour>
      <point x="1592" y="237" type="line"/>
      <point x="1592" y="327" type="line"/>
      <point x="1458" y="327" type="line"/>
      <point x="1458" y="788" type="line"/>
      <point x="1329" y="788" type="line"/>
      <point x="934" y="332" type="line"/>
      <point x="934" y="237" type="line"/>
      <point x="1305" y="237" type="line"/>
      <point x="1305" y="7" type="line"/>
      <point x="1458" y="7" type="line"/>
      <point x="1458" y="237" type="line"/>
    </contour>
    <contour>
      <point x="1326" y="1321" type="line"/>
      <point x="1191" y="1321" type="line"/>
      <point x="376" y="40" type="line"/>
      <point x="510" y="40" type="line"/>
    </contour>
    <contour>
      <point x="547" y="584" type="line"/>
      <point x="547" y="641" type="line"/>
      <point x="454" y="645" type="line" smooth="yes"/>
      <point x="438" y="645"/>
      <point x="427" y="654"/>
      <point x="427" y="668" type="curve" smooth="yes"/>
      <point x="427" y="1336" type="line"/>
      <point x="339" y="1336" type="line"/>
      <point x="79" y="1253" type="line"/>
      <point x="79" y="1196" type="line"/>
      <point x="258" y="1218" type="line"/>
      <point x="258" y="668" type="line" smooth="yes"/>
      <point x="258" y="654"/>
      <point x="247" y="645"/>
      <point x="232" y="645" type="curve" smooth="yes"/>
      <point x="129" y="641" type="line"/>
      <point x="129" y="584" type="line"/>
    </contour>
    <contour>
      <point x="1305" y="327" type="line"/>
      <point x="1050" y="327" type="line"/>
      <point x="1305" y="628" type="line"/>
    </contour>
  </outline>
</glyph>
<glyph name="onehalf" format="2">
  <advance width="1672"/>
  <unicode hex="00BD"/>
  <outline>
    <contour>
      <point x="1588" y="40" type="line"/>
      <point x="1588" y="258" type="line"/>
      <point x="1509" y="258" type="line"/>
      <point x="1489" y="158" type="line"/>
      <point x="1159" y="158" type="line"/>
      <point x="1257" y="217"/>
      <point x="1343" y="273"/>
      <point x="1410" y="328" type="curve" smooth="yes"/>
      <point x="1507" y="408"/>
      <point x="1565" y="488"/>
      <point x="1565" y="582" type="curve" smooth="yes"/>
      <point x="1565" y="715"/>
      <point x="1449" y="796"/>
      <point x="1298" y="796" type="curve" smooth="yes"/>
      <point x="1192" y="796"/>
      <point x="1010" y="763"/>
      <point x="1010" y="622" type="curve" smooth="yes"/>
      <point x="1010" y="575"/>
      <point x="1041" y="541"/>
      <point x="1101" y="541" type="curve" smooth="yes"/>
      <point x="1129" y="541"/>
      <point x="1164" y="553"/>
      <point x="1182" y="562" type="curve"/>
      <point x="1182" y="710" type="line"/>
      <point x="1196" y="715"/>
      <point x="1221" y="722"/>
      <point x="1244" y="722" type="curve" smooth="yes"/>
      <point x="1335" y="722"/>
      <point x="1386" y="657"/>
      <point x="1386" y="571" type="curve" smooth="yes"/>
      <point x="1386" y="509"/>
      <point x="1341" y="439"/>
      <point x="1279" y="371" type="curve" smooth="yes"/>
      <point x="1196" y="279"/>
      <point x="1081" y="191"/>
      <point x="1003" y="132" type="curve"/>
      <point x="1003" y="40" type="line"/>
    </contour>
    <contour>
      <point x="1284" y="1321" type="line"/>
      <point x="1150" y="1321" type="line"/>
      <point x="336" y="40" type="line"/>
      <point x="470" y="40" type="line"/>
    </contour>
    <contour>
      <point x="553" y="584" type="line"/>
      <point x="553" y="641" type="line"/>
      <point x="459" y="645" type="line"/>
      <point x="445" y="645"/>
      <point x="431" y="654"/>
      <point x="431" y="668" type="curve" smooth="yes"/>
      <point x="431" y="1336" type="line"/>
      <point x="345" y="1336" type="line"/>
      <point x="85" y="1253" type="line"/>
      <point x="85" y="1196" type="line"/>
      <point x="264" y="1218" type="line"/>
      <point x="264" y="668" type="line" smooth="yes"/>
      <point x="264" y="654"/>
      <point x="253" y="645"/>
      <point x="238" y="645" type="curve"/>
      <point x="135" y="641" type="line"/>
      <point x="135" y="584" type="line"/>
    </contour>
  </outline>
</glyph>
<glyph name="threequarters" format="2">
  <advance width="1672"/>
  <unicode hex="00BE"/>
  <outline>
    <contour>
      <point x="1607" y="237" type="line"/>
      <point x="1607" y="327" type="line"/>
      <point x="1472" y="327" type="line"/>
      <point x="1472" y="788" type="line"/>
      <point x="1344" y="788" type="line"/>
      <point x="951" y="332" type="line"/>
      <point x="951" y="237" type="line"/>
      <point x="1319" y="237" type="line"/>
      <point x="1319" y="7" type="line"/>
      <point x="1472" y="7" type="line"/>
      <point x="1472" y="237" type="line"/>
    </contour>
    <contour>
      <point x="1340" y="1321" type="line"/>
      <point x="1205" y="1321" type="line"/>
      <point x="391" y="40" type="line"/>
      <point x="526" y="40" type="line"/>
    </contour>
    <contour>
      <point x="651" y="798" type="curve" smooth="yes"/>
      <point x="651" y="962"/>
      <point x="448" y="976"/>
      <point x="417" y="974" type="curve"/>
      <point x="450" y="978"/>
      <point x="621" y="1011"/>
      <point x="621" y="1151" type="curve" smooth="yes"/>
      <point x="621" y="1284"/>
      <point x="485" y="1340"/>
      <point x="354" y="1340" type="curve" smooth="yes"/>
      <point x="202" y="1340"/>
      <point x="85" y="1277"/>
      <point x="85" y="1185" type="curve" smooth="yes"/>
      <point x="85" y="1131"/>
      <point x="129" y="1106"/>
      <point x="179" y="1106" type="curve" smooth="yes"/>
      <point x="199" y="1106"/>
      <point x="221" y="1107"/>
      <point x="243" y="1120" type="curve"/>
      <point x="243" y="1257" type="line"/>
      <point x="243" y="1257"/>
      <point x="276" y="1266"/>
      <point x="299" y="1266" type="curve" smooth="yes"/>
      <point x="387" y="1266"/>
      <point x="446" y="1208"/>
      <point x="446" y="1139" type="curve" smooth="yes"/>
      <point x="446" y="1034"/>
      <point x="357" y="1002"/>
      <point x="269" y="1002" type="curve" smooth="yes"/>
      <point x="258" y="1002"/>
      <point x="248" y="1000"/>
      <point x="236" y="1002" type="curve"/>
      <point x="236" y="919" type="line"/>
      <point x="236" y="919"/>
      <point x="276" y="925"/>
      <point x="313" y="925" type="curve" smooth="yes"/>
      <point x="424" y="925"/>
      <point x="475" y="860"/>
      <point x="475" y="791" type="curve" smooth="yes"/>
      <point x="475" y="703"/>
      <point x="408" y="641"/>
      <point x="324" y="641" type="curve" smooth="yes"/>
      <point x="292" y="641"/>
      <point x="269" y="648"/>
      <point x="243" y="656" type="curve"/>
      <point x="204" y="781" type="line"/>
      <point x="192" y="786"/>
      <point x="175" y="792"/>
      <point x="153" y="792" type="curve" smooth="yes"/>
      <point x="116" y="792"/>
      <point x="67" y="777"/>
      <point x="67" y="715" type="curve" smooth="yes"/>
      <point x="67" y="643"/>
      <point x="157" y="573"/>
      <point x="313" y="573" type="curve" smooth="yes"/>
      <point x="490" y="573"/>
      <point x="651" y="654"/>
    </contour>
    <contour>
      <point x="1319" y="327" type="line"/>
      <point x="1066" y="327" type="line"/>
      <point x="1319" y="628" type="line"/>
    </contour>
  </outline>
</glyph>
<glyph name="questiondown" format="1">
  <advance width="962"/>
  <unicode hex="00BF"/>
  <outline>
    <contour>
      <point x="721" y="1157" type="curve" smooth="yes"/>
      <point x="721" y="1236"/>
      <point x="660" y="1306"/>
      <point x="580" y="1306" type="curve" smooth="yes"/>
      <point x="499" y="1306"/>
      <point x="429" y="1245"/>
      <point x="429" y="1164" type="curve" smooth="yes"/>
      <point x="429" y="1081"/>
      <point x="490" y="1009"/>
      <point x="579" y="1009" type="curve" smooth="yes"/>
      <point x="658" y="1009"/>
      <point x="721" y="1076"/>
    </contour>
    <contour>
      <point x="881" y="237" type="curve" smooth="yes"/>
      <point x="881" y="351"/>
      <point x="770" y="355"/>
      <point x="723" y="355" type="curve" smooth="yes"/>
      <point x="704" y="355"/>
      <point x="700" y="351"/>
      <point x="700" y="351" type="curve"/>
      <point x="617" y="130" type="line"/>
      <point x="455" y="130"/>
      <point x="376" y="228"/>
      <point x="376" y="364" type="curve" smooth="yes"/>
      <point x="376" y="617"/>
      <point x="643" y="674"/>
      <point x="643" y="674" type="curve"/>
      <point x="643" y="919" type="line"/>
      <point x="517" y="919" type="line"/>
      <point x="517" y="763" type="line"/>
      <point x="517" y="763"/>
      <point x="118" y="682"/>
      <point x="118" y="368" type="curve" smooth="yes"/>
      <point x="118" y="154"/>
      <point x="299" y="17"/>
      <point x="536" y="17" type="curve" smooth="yes"/>
      <point x="686" y="17"/>
      <point x="881" y="77"/>
    </contour>
  </outline>
</glyph>
<glyph name="Aacute" format="2">
  <advance width="1264"/>
  <unicode hex="00C1"/>
  <outline>
    <contour>
      <point x="1255" y="40" type="line"/>
      <point x="1255" y="134" type="line"/>
      <point x="1185" y="147" type="line" smooth="yes"/>
      <point x="1159" y="152"/>
      <point x="1154" y="160"/>
      <point x="1145" y="182" type="curve"/>
      <point x="735" y="1306" type="line"/>
      <point x="526" y="1306" type="line"/>
      <point x="112" y="149" type="line"/>
      <point x="9" y="134" type="line"/>
      <point x="9" y="40" type="line"/>
      <point x="406" y="40" type="line"/>
      <point x="406" y="134" type="line"/>
      <point x="302" y="147" type="line" smooth="yes"/>
      <point x="290" y="149"/>
      <point x="269" y="167"/>
      <point x="276" y="186" type="curve" smooth="yes"/>
      <point x="378" y="471" type="line"/>
      <point x="772" y="471" type="line"/>
      <point x="872" y="179" type="line" smooth="yes"/>
      <point x="877" y="165"/>
      <point x="867" y="149"/>
      <point x="855" y="147" type="curve"/>
      <point x="746" y="134" type="line"/>
      <point x="746" y="40" type="line"/>
    </contour>
    <contour>
      <point x="726" y="580" type="line"/>
      <point x="413" y="580" type="line"/>
      <point x="568" y="1023" type="line"/>
    </contour>
    <contour>
      <point x="960" y="1651" type="curve" smooth="yes"/>
      <point x="960" y="1697"/>
      <point x="934" y="1751"/>
      <point x="855" y="1751" type="curve" smooth="yes"/>
      <point x="805" y="1751"/>
      <point x="779" y="1737"/>
      <point x="737" y="1691" type="curve" smooth="yes"/>
      <point x="485" y="1412" type="line"/>
      <point x="614" y="1412" type="line"/>
      <point x="913" y="1575" type="line" smooth="yes"/>
      <point x="938" y="1588"/>
      <point x="960" y="1628"/>
    </contour>
  </outline>
</glyph>
<glyph name="Acircumflex" format="2">
  <advance width="1264"/>
  <unicode hex="00C2"/>
  <outline>
    <contour>
      <point x="1255" y="40" type="line"/>
      <point x="1255" y="134" type="line"/>
      <point x="1185" y="147" type="line" smooth="yes"/>
      <point x="1159" y="152"/>
      <point x="1154" y="160"/>
      <point x="1145" y="182" type="curve" smooth="yes"/>
      <point x="735" y="1306" type="line"/>
      <point x="526" y="1306" type="line"/>
      <point x="112" y="149" type="line"/>
      <point x="9" y="134" type="line"/>
      <point x="9" y="40" type="line"/>
      <point x="406" y="40" type="line"/>
      <point x="406" y="134" type="line"/>
      <point x="302" y="147" type="line" smooth="yes"/>
      <point x="290" y="149"/>
      <point x="269" y="167"/>
      <point x="276" y="186" type="curve" smooth="yes"/>
      <point x="378" y="471" type="line"/>
      <point x="772" y="471" type="line"/>
      <point x="872" y="179" type="line" smooth="yes"/>
      <point x="877" y="165"/>
      <point x="867" y="149"/>
      <point x="855" y="147" type="curve" smooth="yes"/>
      <point x="746" y="134" type="line"/>
      <point x="746" y="40" type="line"/>
    </contour>
    <contour>
      <point x="726" y="580" type="line"/>
      <point x="413" y="580" type="line"/>
      <point x="568" y="1023" type="line"/>
    </contour>
    <contour>
      <point x="929" y="1412" type="line"/>
      <point x="726" y="1728" type="line"/>
      <point x="507" y="1728" type="line"/>
      <point x="302" y="1412" type="line"/>
      <point x="457" y="1412" type="line"/>
      <point x="616" y="1586" type="line"/>
      <point x="776" y="1412" type="line"/>
    </contour>
  </outline>
</glyph>
<glyph name="Atilde" format="2">
  <advance width="1264"/>
  <unicode hex="00C3"/>
  <outline>
    <contour>
      <point x="1255" y="40" type="line"/>
      <point x="1255" y="134" type="line"/>
      <point x="1185" y="147" type="line" smooth="yes"/>
      <point x="1159" y="152"/>
      <point x="1154" y="160"/>
      <point x="1145" y="182" type="curve"/>
      <point x="735" y="1306" type="line"/>
      <point x="526" y="1306" type="line"/>
      <point x="112" y="149" type="line"/>
      <point x="9" y="134" type="line"/>
      <point x="9" y="40" type="line"/>
      <point x="406" y="40" type="line"/>
      <point x="406" y="134" type="line"/>
      <point x="302" y="147" type="line" smooth="yes"/>
      <point x="290" y="149"/>
      <point x="269" y="167"/>
      <point x="276" y="186" type="curve" smooth="yes"/>
      <point x="378" y="471" type="line"/>
      <point x="772" y="471" type="line"/>
      <point x="872" y="179" type="line" smooth="yes"/>
      <point x="877" y="165"/>
      <point x="867" y="149"/>
      <point x="855" y="147" type="curve"/>
      <point x="746" y="134" type="line"/>
      <point x="746" y="40" type="line"/>
    </contour>
    <contour>
      <point x="726" y="580" type="line"/>
      <point x="413" y="580" type="line"/>
      <point x="568" y="1023" type="line"/>
    </contour>
    <contour>
      <point x="938" y="1697" type="curve"/>
      <point x="841" y="1697" type="line"/>
      <point x="833" y="1649"/>
      <point x="798" y="1610"/>
      <point x="760" y="1610" type="curve" smooth="yes"/>
      <point x="651" y="1610"/>
      <point x="612" y="1697"/>
      <point x="514" y="1697" type="curve" smooth="yes"/>
      <point x="389" y="1697"/>
      <point x="322" y="1596"/>
      <point x="293" y="1468" type="curve"/>
      <point x="391" y="1468" type="line"/>
      <point x="398" y="1518"/>
      <point x="433" y="1557"/>
      <point x="472" y="1557" type="curve" smooth="yes"/>
      <point x="580" y="1557"/>
      <point x="619" y="1468"/>
      <point x="717" y="1468" type="curve" smooth="yes"/>
      <point x="842" y="1468"/>
      <point x="909" y="1570"/>
    </contour>
  </outline>
</glyph>
<glyph name="Adieresis" format="1">
  <advance width="1264"/>
  <unicode hex="00C4"/>
  <outline>
    <contour>
      <point x="1255" y="40" type="line"/>
      <point x="1255" y="134" type="line"/>
      <point x="1185" y="147" type="line" smooth="yes"/>
      <point x="1159" y="152"/>
      <point x="1154" y="160"/>
      <point x="1145" y="182" type="curve" smooth="yes"/>
      <point x="735" y="1306" type="line"/>
      <point x="526" y="1306" type="line"/>
      <point x="112" y="149" type="line"/>
      <point x="9" y="134" type="line"/>
      <point x="9" y="40" type="line"/>
      <point x="406" y="40" type="line"/>
      <point x="406" y="134" type="line"/>
      <point x="302" y="147" type="line" smooth="yes"/>
      <point x="290" y="149"/>
      <point x="269" y="167"/>
      <point x="276" y="186" type="curve" smooth="yes"/>
      <point x="378" y="471" type="line"/>
      <point x="772" y="471" type="line"/>
      <point x="872" y="179" type="line" smooth="yes"/>
      <point x="877" y="165"/>
      <point x="867" y="149"/>
      <point x="855" y="147" type="curve" smooth="yes"/>
      <point x="746" y="134" type="line"/>
      <point x="746" y="40" type="line"/>
    </contour>
    <contour>
      <point x="726" y="580" type="line"/>
      <point x="413" y="580" type="line"/>
      <point x="568" y="1023" type="line"/>
    </contour>
    <contour>
      <point x="942" y="1596" type="curve" smooth="yes"/>
      <point x="942" y="1665"/>
      <point x="885" y="1723"/>
      <point x="814" y="1723" type="curve" smooth="yes"/>
      <point x="744" y="1723"/>
      <point x="689" y="1665"/>
      <point x="689" y="1596" type="curve" smooth="yes"/>
      <point x="689" y="1526"/>
      <point x="744" y="1468"/>
      <point x="814" y="1468" type="curve" smooth="yes"/>
      <point x="885" y="1468"/>
      <point x="942" y="1526"/>
    </contour>
    <contour>
      <point x="554" y="1596" type="curve" smooth="yes"/>
      <point x="554" y="1665"/>
      <point x="498" y="1723"/>
      <point x="427" y="1723" type="curve" smooth="yes"/>
      <point x="357" y="1723"/>
      <point x="301" y="1665"/>
      <point x="301" y="1596" type="curve" smooth="yes"/>
      <point x="301" y="1526"/>
      <point x="357" y="1468"/>
      <point x="427" y="1468" type="curve" smooth="yes"/>
      <point x="498" y="1468"/>
      <point x="554" y="1526"/>
    </contour>
  </outline>
</glyph>
<glyph name="Aring" format="1">
  <advance width="1264"/>
  <unicode hex="00C5"/>
  <outline>
    <contour>
      <point x="1255" y="40" type="line"/>
      <point x="1255" y="134" type="line"/>
      <point x="1185" y="147" type="line" smooth="yes"/>
      <point x="1159" y="152"/>
      <point x="1154" y="160"/>
      <point x="1145" y="182" type="curve" smooth="yes"/>
      <point x="735" y="1306" type="line"/>
      <point x="526" y="1306" type="line"/>
      <point x="112" y="149" type="line"/>
      <point x="9" y="134" type="line"/>
      <point x="9" y="40" type="line"/>
      <point x="406" y="40" type="line"/>
      <point x="406" y="134" type="line"/>
      <point x="302" y="147" type="line" smooth="yes"/>
      <point x="290" y="149"/>
      <point x="269" y="167"/>
      <point x="276" y="186" type="curve" smooth="yes"/>
      <point x="378" y="471" type="line"/>
      <point x="772" y="471" type="line"/>
      <point x="872" y="179" type="line" smooth="yes"/>
      <point x="877" y="165"/>
      <point x="867" y="149"/>
      <point x="855" y="147" type="curve" smooth="yes"/>
      <point x="746" y="134" type="line"/>
      <point x="746" y="40" type="line"/>
    </contour>
    <contour>
      <point x="726" y="580" type="line"/>
      <point x="413" y="580" type="line"/>
      <point x="568" y="1023" type="line"/>
    </contour>
    <contour>
      <point x="867" y="1642" type="curve" smooth="yes"/>
      <point x="867" y="1767"/>
      <point x="763" y="1871"/>
      <point x="636" y="1871" type="curve" smooth="yes"/>
      <point x="508" y="1871"/>
      <point x="408" y="1767"/>
      <point x="408" y="1642" type="curve" smooth="yes"/>
      <point x="408" y="1514"/>
      <point x="508" y="1412"/>
      <point x="636" y="1412" type="curve" smooth="yes"/>
      <point x="763" y="1412"/>
      <point x="867" y="1514"/>
    </contour>
    <contour>
      <point x="756" y="1642" type="curve" smooth="yes"/>
      <point x="756" y="1575"/>
      <point x="702" y="1522"/>
      <point x="636" y="1522" type="curve" smooth="yes"/>
      <point x="570" y="1522"/>
      <point x="516" y="1575"/>
      <point x="516" y="1642" type="curve" smooth="yes"/>
      <point x="516" y="1708"/>
      <point x="570" y="1762"/>
      <point x="636" y="1762" type="curve" smooth="yes"/>
      <point x="702" y="1762"/>
      <point x="756" y="1708"/>
    </contour>
  </outline>
</glyph>
<glyph name="AE" format="2">
  <advance width="1786"/>
  <unicode hex="00C6"/>
  <outline>
    <contour>
      <point x="1731" y="40" type="line"/>
      <point x="1731" y="377" type="line"/>
      <point x="1597" y="377" type="line"/>
      <point x="1567" y="186" type="line" smooth="yes"/>
      <point x="1565" y="172"/>
      <point x="1550" y="151"/>
      <point x="1535" y="151" type="curve" smooth="yes"/>
      <point x="1147" y="151" type="line"/>
      <point x="1147" y="620" type="line"/>
      <point x="1351" y="620" type="line" smooth="yes"/>
      <point x="1366" y="620"/>
      <point x="1382" y="602"/>
      <point x="1384" y="589" type="curve" smooth="yes"/>
      <point x="1400" y="462" type="line"/>
      <point x="1515" y="462" type="line"/>
      <point x="1515" y="895" type="line"/>
      <point x="1400" y="895" type="line"/>
      <point x="1384" y="770" type="line" smooth="yes"/>
      <point x="1382" y="757"/>
      <point x="1368" y="737"/>
      <point x="1351" y="737" type="curve" smooth="yes"/>
      <point x="1147" y="737" type="line"/>
      <point x="1147" y="1169" type="line"/>
      <point x="1482" y="1169" type="line" smooth="yes"/>
      <point x="1500" y="1169"/>
      <point x="1509" y="1153"/>
      <point x="1513" y="1135" type="curve"/>
      <point x="1539" y="982" type="line"/>
      <point x="1672" y="982" type="line"/>
      <point x="1672" y="1277" type="line"/>
      <point x="591" y="1277" type="line"/>
      <point x="591" y="1183" type="line"/>
      <point x="682" y="1174" type="line"/>
      <point x="698" y="1171"/>
      <point x="719" y="1153"/>
      <point x="707" y="1135" type="curve"/>
      <point x="121" y="147" type="line"/>
      <point x="9" y="134" type="line"/>
      <point x="9" y="40" type="line"/>
      <point x="411" y="40" type="line"/>
      <point x="411" y="134" type="line"/>
      <point x="306" y="143" type="line"/>
      <point x="290" y="145"/>
      <point x="282" y="161"/>
      <point x="293" y="182" type="curve"/>
      <point x="475" y="490" type="line"/>
      <point x="883" y="490" type="line"/>
      <point x="883" y="182" type="line" smooth="yes"/>
      <point x="883" y="165"/>
      <point x="860" y="143"/>
      <point x="835" y="142" type="curve"/>
      <point x="739" y="134" type="line"/>
      <point x="739" y="40" type="line"/>
    </contour>
    <contour>
      <point x="883" y="604" type="line"/>
      <point x="544" y="604" type="line"/>
      <point x="883" y="1171" type="line"/>
    </contour>
  </outline>
</glyph>
<glyph name="Ccedilla" format="2">
  <advance width="1173"/>
  <unicode hex="00C7"/>
  <outline>
    <contour>
      <point x="946" y="-201" type="curve" smooth="yes"/>
      <point x="946" y="-104"/>
      <point x="876" y="-62"/>
      <point x="791" y="-62" type="curve" smooth="yes"/>
      <point x="783" y="-62"/>
      <point x="775" y="-62"/>
      <point x="767" y="-63" type="curve"/>
      <point x="767" y="12" type="line"/>
      <point x="932" y="19"/>
      <point x="1064" y="66"/>
      <point x="1106" y="84" type="curve"/>
      <point x="1106" y="407" type="line"/>
      <point x="960" y="407" type="line"/>
      <point x="920" y="189" type="line" smooth="yes"/>
      <point x="918" y="178"/>
      <point x="897" y="158"/>
      <point x="888" y="154" type="curve" smooth="yes"/>
      <point x="868" y="145"/>
      <point x="826" y="130"/>
      <point x="781" y="130" type="curve" smooth="yes"/>
      <point x="472" y="130"/>
      <point x="357" y="397"/>
      <point x="357" y="656" type="curve" smooth="yes"/>
      <point x="357" y="974"/>
      <point x="514" y="1181"/>
      <point x="767" y="1181" type="curve" smooth="yes"/>
      <point x="813" y="1181"/>
      <point x="877" y="1159"/>
      <point x="897" y="1151" type="curve" smooth="yes"/>
      <point x="911" y="1145"/>
      <point x="921" y="1127"/>
      <point x="922" y="1122" type="curve" smooth="yes"/>
      <point x="962" y="916" type="line"/>
      <point x="1106" y="916" type="line"/>
      <point x="1106" y="1229" type="line"/>
      <point x="934" y="1284"/>
      <point x="857" y="1306"/>
      <point x="717" y="1306" type="curve" smooth="yes"/>
      <point x="352" y="1306"/>
      <point x="68" y="1043"/>
      <point x="68" y="659" type="curve" smooth="yes"/>
      <point x="68" y="295"/>
      <point x="317" y="31"/>
      <point x="673" y="12" type="curve"/>
      <point x="673" y="-166" type="line"/>
      <point x="687" y="-164"/>
      <point x="700" y="-163"/>
      <point x="714" y="-163" type="curve" smooth="yes"/>
      <point x="756" y="-163"/>
      <point x="795" y="-181"/>
      <point x="795" y="-226" type="curve" smooth="yes"/>
      <point x="795" y="-277"/>
      <point x="733" y="-289"/>
      <point x="686" y="-289" type="curve" smooth="yes"/>
      <point x="649" y="-289"/>
      <point x="607" y="-281"/>
      <point x="570" y="-273" type="curve"/>
      <point x="570" y="-366" type="line"/>
      <point x="618" y="-377"/>
      <point x="669" y="-386"/>
      <point x="719" y="-386" type="curve" smooth="yes"/>
      <point x="851" y="-386"/>
      <point x="946" y="-321"/>
    </contour>
  </outline>
</glyph>
<glyph name="Egrave" format="2">
  <advance width="1102"/>
  <unicode hex="00C8"/>
  <outline>
    <contour>
      <point x="1047" y="40" type="line"/>
      <point x="1047" y="377" type="line"/>
      <point x="913" y="377" type="line"/>
      <point x="885" y="186" type="line" smooth="yes"/>
      <point x="883" y="172"/>
      <point x="867" y="151"/>
      <point x="851" y="151" type="curve" smooth="yes"/>
      <point x="450" y="151" type="line"/>
      <point x="450" y="620" type="line"/>
      <point x="669" y="620" type="line" smooth="yes"/>
      <point x="686" y="620"/>
      <point x="698" y="601"/>
      <point x="700" y="587" type="curve" smooth="yes"/>
      <point x="717" y="462" type="line"/>
      <point x="832" y="462" type="line"/>
      <point x="832" y="895" type="line"/>
      <point x="717" y="895" type="line"/>
      <point x="700" y="770" type="line" smooth="yes"/>
      <point x="698" y="757"/>
      <point x="686" y="737"/>
      <point x="669" y="737" type="curve" smooth="yes"/>
      <point x="450" y="737" type="line"/>
      <point x="450" y="1169" type="line"/>
      <point x="793" y="1169" type="line" smooth="yes"/>
      <point x="809" y="1169"/>
      <point x="822" y="1153"/>
      <point x="826" y="1135" type="curve"/>
      <point x="855" y="982" type="line"/>
      <point x="988" y="982" type="line"/>
      <point x="988" y="1277" type="line"/>
      <point x="48" y="1277" type="line"/>
      <point x="48" y="1183" type="line"/>
      <point x="149" y="1174" type="line"/>
      <point x="171" y="1171"/>
      <point x="192" y="1157"/>
      <point x="192" y="1133" type="curve" smooth="yes"/>
      <point x="192" y="184" type="line" smooth="yes"/>
      <point x="192" y="160"/>
      <point x="171" y="145"/>
      <point x="149" y="143" type="curve" smooth="yes"/>
      <point x="48" y="134" type="line"/>
      <point x="48" y="40" type="line"/>
    </contour>
    <contour>
      <point x="767" y="1412" type="line"/>
      <point x="512" y="1691" type="line" smooth="yes"/>
      <point x="472" y="1737"/>
      <point x="446" y="1751"/>
      <point x="396" y="1751" type="curve" smooth="yes"/>
      <point x="317" y="1751"/>
      <point x="292" y="1697"/>
      <point x="292" y="1651" type="curve" smooth="yes"/>
      <point x="292" y="1628"/>
      <point x="312" y="1590"/>
      <point x="339" y="1575" type="curve" smooth="yes"/>
      <point x="636" y="1412" type="line"/>
    </contour>
  </outline>
</glyph>
<glyph name="Eacute" format="1">
  <advance width="1102"/>
  <unicode hex="00C9"/>
  <outline>
    <contour>
      <point x="1047" y="40" type="line"/>
      <point x="1047" y="377" type="line"/>
      <point x="913" y="377" type="line"/>
      <point x="885" y="186" type="line" smooth="yes"/>
      <point x="883" y="172"/>
      <point x="867" y="151"/>
      <point x="851" y="151" type="curve" smooth="yes"/>
      <point x="450" y="151" type="line"/>
      <point x="450" y="620" type="line"/>
      <point x="669" y="620" type="line" smooth="yes"/>
      <point x="686" y="620"/>
      <point x="698" y="601"/>
      <point x="700" y="587" type="curve" smooth="yes"/>
      <point x="717" y="462" type="line"/>
      <point x="832" y="462" type="line"/>
      <point x="832" y="895" type="line"/>
      <point x="717" y="895" type="line"/>
      <point x="700" y="770" type="line" smooth="yes"/>
      <point x="698" y="757"/>
      <point x="686" y="737"/>
      <point x="669" y="737" type="curve" smooth="yes"/>
      <point x="450" y="737" type="line"/>
      <point x="450" y="1169" type="line"/>
      <point x="793" y="1169" type="line" smooth="yes"/>
      <point x="809" y="1169"/>
      <point x="822" y="1153"/>
      <point x="826" y="1135" type="curve" smooth="yes"/>
      <point x="855" y="982" type="line"/>
      <point x="988" y="982" type="line"/>
      <point x="988" y="1277" type="line"/>
      <point x="48" y="1277" type="line"/>
      <point x="48" y="1183" type="line"/>
      <point x="149" y="1174" type="line" smooth="yes"/>
      <point x="171" y="1171"/>
      <point x="192" y="1157"/>
      <point x="192" y="1133" type="curve" smooth="yes"/>
      <point x="192" y="184" type="line" smooth="yes"/>
      <point x="192" y="160"/>
      <point x="171" y="145"/>
      <point x="149" y="143" type="curve" smooth="yes"/>
      <point x="48" y="134" type="line"/>
      <point x="48" y="40" type="line"/>
    </contour>
    <contour>
      <point x="892" y="1651" type="curve" smooth="yes"/>
      <point x="892" y="1697"/>
      <point x="867" y="1751"/>
      <point x="787" y="1751" type="curve" smooth="yes"/>
      <point x="737" y="1751"/>
      <point x="712" y="1737"/>
      <point x="670" y="1691" type="curve" smooth="yes"/>
      <point x="418" y="1412" type="line"/>
      <point x="547" y="1412" type="line"/>
      <point x="844" y="1575" type="line"/>
      <point x="872" y="1588"/>
      <point x="892" y="1628"/>
    </contour>
  </outline>
</glyph>
<glyph name="Iacute" format="2">
  <advance width="661"/>
  <unicode hex="00CD"/>
  <outline>
    <contour>
      <point x="617" y="40" type="line"/>
      <point x="617" y="134" type="line"/>
      <point x="503" y="143" type="line" smooth="yes"/>
      <point x="483" y="145"/>
      <point x="461" y="160"/>
      <point x="461" y="184" type="curve" smooth="yes"/>
      <point x="461" y="1133" type="line" smooth="yes"/>
      <point x="461" y="1157"/>
      <point x="483" y="1171"/>
      <point x="503" y="1174" type="curve" smooth="yes"/>
      <point x="617" y="1183" type="line"/>
      <point x="617" y="1277" type="line"/>
      <point x="42" y="1277" type="line"/>
      <point x="42" y="1183" type="line"/>
      <point x="157" y="1174" type="line" smooth="yes"/>
      <point x="179" y="1171"/>
      <point x="197" y="1157"/>
      <point x="197" y="1133" type="curve" smooth="yes"/>
      <point x="197" y="184" type="line" smooth="yes"/>
      <point x="197" y="160"/>
      <point x="179" y="145"/>
      <point x="157" y="143" type="curve" smooth="yes"/>
      <point x="42" y="134" type="line"/>
      <point x="42" y="40" type="line"/>
    </contour>
    <contour>
      <point x="634" y="1651" type="curve" smooth="yes"/>
      <point x="634" y="1697"/>
      <point x="608" y="1751"/>
      <point x="529" y="1751" type="curve" smooth="yes"/>
      <point x="479" y="1751"/>
      <point x="454" y="1737"/>
      <point x="413" y="1691" type="curve" smooth="yes"/>
      <point x="158" y="1412" type="line"/>
      <point x="290" y="1412" type="line"/>
      <point x="586" y="1575" type="line"/>
      <point x="614" y="1588"/>
      <point x="634" y="1628"/>
    </contour>
  </outline>
</glyph>
<glyph name="Idieresis" format="1">
  <advance width="661"/>
  <unicode hex="00CF"/>
  <outline>
    <contour>
      <point x="617" y="40" type="line"/>
      <point x="617" y="134" type="line"/>
      <point x="503" y="143" type="line" smooth="yes"/>
      <point x="483" y="145"/>
      <point x="461" y="160"/>
      <point x="461" y="184" type="curve" smooth="yes"/>
      <point x="461" y="1133" type="line" smooth="yes"/>
      <point x="461" y="1157"/>
      <point x="483" y="1171"/>
      <point x="503" y="1174" type="curve" smooth="yes"/>
      <point x="617" y="1183" type="line"/>
      <point x="617" y="1277" type="line"/>
      <point x="42" y="1277" type="line"/>
      <point x="42" y="1183" type="line"/>
      <point x="157" y="1174" type="line" smooth="yes"/>
      <point x="179" y="1171"/>
      <point x="197" y="1157"/>
      <point x="197" y="1133" type="curve" smooth="yes"/>
      <point x="197" y="184" type="line" smooth="yes"/>
      <point x="197" y="160"/>
      <point x="179" y="145"/>
      <point x="157" y="143" type="curve" smooth="yes"/>
      <point x="42" y="134" type="line"/>
      <point x="42" y="40" type="line"/>
    </contour>
    <contour>
      <point x="652" y="1596" type="curve" smooth="yes"/>
      <point x="652" y="1665"/>
      <point x="596" y="1723"/>
      <point x="526" y="1723" type="curve" smooth="yes"/>
      <point x="455" y="1723"/>
      <point x="398" y="1665"/>
      <point x="398" y="1596" type="curve" smooth="yes"/>
      <point x="398" y="1526"/>
      <point x="455" y="1468"/>
      <point x="526" y="1468" type="curve" smooth="yes"/>
      <point x="596" y="1468"/>
      <point x="652" y="1526"/>
    </contour>
    <contour>
      <point x="264" y="1596" type="curve" smooth="yes"/>
      <point x="264" y="1665"/>
      <point x="206" y="1723"/>
      <point x="137" y="1723" type="curve" smooth="yes"/>
      <point x="67" y="1723"/>
      <point x="9" y="1665"/>
      <point x="9" y="1596" type="curve" smooth="yes"/>
      <point x="9" y="1526"/>
      <point x="67" y="1468"/>
      <point x="137" y="1468" type="curve" smooth="yes"/>
      <point x="206" y="1468"/>
      <point x="264" y="1526"/>
    </contour>
  </outline>
</glyph>
<glyph name="Eth" format="2">
  <advance width="1338"/>
  <unicode hex="00D0"/>
  <outline>
    <contour>
      <point x="1270" y="659" type="curve" smooth="yes"/>
      <point x="1270" y="1100"/>
      <point x="967" y="1277"/>
      <point x="605" y="1277" type="curve" smooth="yes"/>
      <point x="51" y="1277" type="line"/>
      <point x="51" y="1183" type="line"/>
      <point x="151" y="1176" type="line" smooth="yes"/>
      <point x="174" y="1174"/>
      <point x="192" y="1157"/>
      <point x="192" y="1135" type="curve" smooth="yes"/>
      <point x="192" y="747" type="line"/>
      <point x="28" y="747" type="line"/>
      <point x="28" y="628" type="line"/>
      <point x="192" y="628" type="line"/>
      <point x="192" y="184" type="line" smooth="yes"/>
      <point x="192" y="161"/>
      <point x="171" y="145"/>
      <point x="151" y="143" type="curve" smooth="yes"/>
      <point x="51" y="134" type="line"/>
      <point x="51" y="40" type="line"/>
      <point x="638" y="40" type="line" smooth="yes"/>
      <point x="841" y="40"/>
      <point x="1270" y="105"/>
    </contour>
    <contour>
      <point x="975" y="656" type="curve" smooth="yes"/>
      <point x="975" y="359"/>
      <point x="850" y="149"/>
      <point x="577" y="149" type="curve" smooth="yes"/>
      <point x="455" y="149" type="line"/>
      <point x="455" y="628" type="line"/>
      <point x="704" y="628" type="line"/>
      <point x="704" y="747" type="line"/>
      <point x="455" y="747" type="line"/>
      <point x="455" y="1169" type="line"/>
      <point x="573" y="1169" type="line" smooth="yes"/>
      <point x="820" y="1169"/>
      <point x="975" y="1011"/>
    </contour>
  </outline>
</glyph>
<glyph name="Ntilde" format="1">
  <advance width="1372"/>
  <unicode hex="00D1"/>
  <outline>
    <contour>
      <point x="1318" y="1183" type="line"/>
      <point x="1318" y="1277" type="line"/>
      <point x="890" y="1277" type="line"/>
      <point x="890" y="1183" type="line"/>
      <point x="995" y="1174" type="line" smooth="yes"/>
      <point x="1017" y="1171"/>
      <point x="1038" y="1157"/>
      <point x="1038" y="1133" type="curve" smooth="yes"/>
      <point x="1038" y="395" type="line"/>
      <point x="507" y="1227" type="line"/>
      <point x="507" y="1277" type="line"/>
      <point x="51" y="1277" type="line"/>
      <point x="51" y="1183" type="line"/>
      <point x="151" y="1174" type="line" smooth="yes"/>
      <point x="174" y="1171"/>
      <point x="192" y="1157"/>
      <point x="192" y="1133" type="curve" smooth="yes"/>
      <point x="192" y="184" type="line" smooth="yes"/>
      <point x="192" y="160"/>
      <point x="174" y="145"/>
      <point x="151" y="143" type="curve" smooth="yes"/>
      <point x="49" y="134" type="line"/>
      <point x="49" y="40" type="line"/>
      <point x="475" y="40" type="line"/>
      <point x="475" y="134" type="line"/>
      <point x="373" y="143" type="line" smooth="yes"/>
      <point x="352" y="145"/>
      <point x="332" y="160"/>
      <point x="332" y="184" type="curve" smooth="yes"/>
      <point x="332" y="1015" type="line"/>
      <point x="953" y="40" type="line"/>
      <point x="1178" y="40" type="line"/>
      <point x="1178" y="1133" type="line" smooth="yes"/>
      <point x="1178" y="1157"/>
      <point x="1198" y="1171"/>
      <point x="1219" y="1174" type="curve" smooth="yes"/>
    </contour>
    <contour>
      <point x="1029" y="1697" type="curve"/>
      <point x="929" y="1697" type="line"/>
      <point x="923" y="1649"/>
      <point x="888" y="1610"/>
      <point x="848" y="1610" type="curve" smooth="yes"/>
      <point x="739" y="1610"/>
      <point x="702" y="1697"/>
      <point x="605" y="1697" type="curve" smooth="yes"/>
      <point x="479" y="1697"/>
      <point x="413" y="1596"/>
      <point x="383" y="1468" type="curve"/>
      <point x="481" y="1468" type="line"/>
      <point x="487" y="1518"/>
      <point x="524" y="1557"/>
      <point x="562" y="1557" type="curve" smooth="yes"/>
      <point x="670" y="1557"/>
      <point x="709" y="1468"/>
      <point x="807" y="1468" type="curve" smooth="yes"/>
      <point x="932" y="1468"/>
      <point x="997" y="1570"/>
    </contour>
  </outline>
</glyph>
<glyph name="Ograve" format="2">
  <advance width="1393"/>
  <unicode hex="00D2"/>
  <outline>
    <contour>
      <point x="1327" y="652" type="curve" smooth="yes"/>
      <point x="1327" y="1009"/>
      <point x="1075" y="1306"/>
      <point x="691" y="1306" type="curve" smooth="yes"/>
      <point x="299" y="1306"/>
      <point x="68" y="1030"/>
      <point x="68" y="666" type="curve" smooth="yes"/>
      <point x="68" y="248"/>
      <point x="339" y="10"/>
      <point x="707" y="10" type="curve" smooth="yes"/>
      <point x="1078" y="10"/>
      <point x="1327" y="300"/>
    </contour>
    <contour>
      <point x="1030" y="645" type="curve" smooth="yes"/>
      <point x="1030" y="407"/>
      <point x="936" y="126"/>
      <point x="689" y="126" type="curve" smooth="yes"/>
      <point x="463" y="126"/>
      <point x="363" y="399"/>
      <point x="363" y="661" type="curve" smooth="yes"/>
      <point x="363" y="908"/>
      <point x="452" y="1183"/>
      <point x="707" y="1183" type="curve" smooth="yes"/>
      <point x="922" y="1183"/>
      <point x="1030" y="934"/>
    </contour>
    <contour>
      <point x="828" y="1412" type="line"/>
      <point x="575" y="1691" type="line" smooth="yes"/>
      <point x="533" y="1737"/>
      <point x="507" y="1751"/>
      <point x="457" y="1751" type="curve" smooth="yes"/>
      <point x="378" y="1751"/>
      <point x="352" y="1697"/>
      <point x="352" y="1651" type="curve" smooth="yes"/>
      <point x="352" y="1628"/>
      <point x="374" y="1588"/>
      <point x="400" y="1575" type="curve" smooth="yes"/>
      <point x="697" y="1412" type="line"/>
    </contour>
  </outline>
</glyph>
<glyph name="Ocircumflex" format="1">
  <advance width="1393"/>
  <unicode hex="00D4"/>
  <outline>
    <contour>
      <point x="1327" y="652" type="curve" smooth="yes"/>
      <point x="1327" y="1009"/>
      <point x="1075" y="1306"/>
      <point x="691" y="1306" type="curve" smooth="yes"/>
      <point x="299" y="1306"/>
      <point x="68" y="1030"/>
      <point x="68" y="666" type="curve" smooth="yes"/>
      <point x="68" y="248"/>
      <point x="339" y="10"/>
      <point x="707" y="10" type="curve" smooth="yes"/>
      <point x="1078" y="10"/>
      <point x="1327" y="300"/>
    </contour>
    <contour>
      <point x="1030" y="645" type="curve" smooth="yes"/>
      <point x="1030" y="407"/>
      <point x="936" y="126"/>
      <point x="689" y="126" type="curve" smooth="yes"/>
      <point x="463" y="126"/>
      <point x="363" y="399"/>
      <point x="363" y="661" type="curve" smooth="yes"/>
      <point x="363" y="908"/>
      <point x="452" y="1183"/>
      <point x="707" y="1183" type="curve" smooth="yes"/>
      <point x="922" y="1183"/>
      <point x="1030" y="934"/>
    </contour>
    <contour>
      <point x="1010" y="1412" type="line"/>
      <point x="805" y="1728" type="line"/>
      <point x="588" y="1728" type="line"/>
      <point x="383" y="1412" type="line"/>
      <point x="538" y="1412" type="line"/>
      <point x="697" y="1586" type="line"/>
      <point x="857" y="1412" type="line"/>
    </contour>
  </outline>
</glyph>
